<?xml version="1.0" encoding="UTF-8" standalone="no"?>
<!-- Created with Inkscape (http://www.inkscape.org/) -->

<svg
   width="500"
   height="500"
   viewBox="0 0 132.29167 132.29166"
   version="1.1"
   id="svg1"
   inkscape:version="1.3 (0e150ed6c4, 2023-07-21)"
   sodipodi:docname="LOGO200.svg"
   xml:space="preserve"
   inkscape:export-filename="logo200.png"
   inkscape:export-xdpi="96"
   inkscape:export-ydpi="96"
   xmlns:inkscape="http://www.inkscape.org/namespaces/inkscape"
   xmlns:sodipodi="http://sodipodi.sourceforge.net/DTD/sodipodi-0.dtd"
   xmlns="http://www.w3.org/2000/svg"
   xmlns:svg="http://www.w3.org/2000/svg"><sodipodi:namedview
     id="namedview1"
     pagecolor="#ffffff"
     bordercolor="#000000"
     borderopacity="0.25"
     inkscape:showpageshadow="2"
     inkscape:pageopacity="0.0"
     inkscape:pagecheckerboard="0"
     inkscape:deskcolor="#d1d1d1"
     inkscape:document-units="mm"
     inkscape:zoom="0.50000003"
     inkscape:cx="-25.999999"
     inkscape:cy="438.99998"
     inkscape:window-width="1366"
     inkscape:window-height="699"
     inkscape:window-x="0"
     inkscape:window-y="32"
     inkscape:window-maximized="1"
     inkscape:current-layer="layer1"
     showguides="true"
     showgrid="false" /><defs
     id="defs1"><rect
       x="43.710777"
       y="130.24622"
       width="240.41403"
       height="53.30978"
       id="rect4" /><rect
       x="338.31757"
       y="82.803932"
       width="138.51009"
       height="90.363014"
       id="rect1" /><clipPath
       clipPathUnits="userSpaceOnUse"
       id="clipPath2"><rect
         style="fill:none;stroke:#000000;stroke-width:0.881769;stroke-dasharray:none;stroke-opacity:1"
         id="rect2"
         width="89.585342"
         height="68.187721"
         x="151.69763"
         y="199.0618" /></clipPath><clipPath
       clipPathUnits="userSpaceOnUse"
       id="clipPath2-5"><rect
         style="fill:none;stroke:#000000;stroke-width:0.881769;stroke-dasharray:none;stroke-opacity:1"
         id="rect2-6"
         width="89.585342"
         height="68.187721"
         x="151.69763"
         y="199.0618" /></clipPath><clipPath
       clipPathUnits="userSpaceOnUse"
       id="clipPath2-5-7"><rect
         style="fill:none;stroke:#000000;stroke-width:0.881769;stroke-dasharray:none;stroke-opacity:1"
         id="rect2-6-5"
         width="89.585342"
         height="68.187721"
         x="151.69763"
         y="199.0618" /></clipPath><clipPath
       clipPathUnits="userSpaceOnUse"
       id="clipPath2-3"><rect
         style="fill:none;stroke:#000000;stroke-width:0.881769;stroke-dasharray:none;stroke-opacity:1"
         id="rect2-5"
         width="89.585342"
         height="68.187721"
         x="151.69763"
         y="199.0618" /></clipPath><clipPath
       clipPathUnits="userSpaceOnUse"
       id="clipPath2-5-0"><rect
         style="fill:none;stroke:#000000;stroke-width:0.881769;stroke-dasharray:none;stroke-opacity:1"
         id="rect2-6-9"
         width="89.585342"
         height="68.187721"
         x="151.69763"
         y="199.0618" /></clipPath><clipPath
       clipPathUnits="userSpaceOnUse"
       id="clipPath2-36"><rect
         style="fill:none;stroke:#000000;stroke-width:0.881769;stroke-dasharray:none;stroke-opacity:1"
         id="rect2-0"
         width="89.585342"
         height="68.187721"
         x="151.69763"
         y="199.0618" /></clipPath></defs><g
     inkscape:label="Camada 1"
     inkscape:groupmode="layer"
     id="layer1"><rect
       style="fill:#141414;fill-opacity:1;stroke:#ff5e00;stroke-width:0;stroke-dasharray:none;stroke-opacity:1"
       id="rect3-9"
       width="112.45518"
       height="62.965775"
       x="-93.54937"
       y="149.79964" /><rect
       style="opacity:1;fill:#ff5e00;fill-opacity:1;stroke:#ff5e00;stroke-width:1.21979;stroke-dasharray:none;stroke-opacity:1"
       id="rect3"
       width="338.04938"
       height="189.28021"
       x="263.66974"
       y="-18.174213" /><g
       id="g1"
       transform="matrix(-0.29327537,0.00143377,-0.00143377,-0.29327537,-12.086177,24.533098)"
       style="fill:#1a1a1a;fill-opacity:1"><path
         style="display:inline;fill:#1a1a1a;fill-opacity:1;stroke:#ffffff;stroke-width:2.76458;stroke-linecap:round;stroke-linejoin:round;stroke-dasharray:none;stroke-opacity:1"
         d="m 194.69195,266.36459 c -0.11303,-0.21322 -0.25901,-0.48945 -0.32441,-0.61384 -0.0654,-0.12439 -0.1416,-0.24521 -0.16933,-0.26849 -0.0277,-0.0233 -0.12475,-0.19474 -0.21557,-0.381 -0.2704,-0.55453 -0.37123,-0.635 -0.79561,-0.635 -0.71484,0 -3.66609,-0.53719 -4.96592,-0.9039 -0.96262,-0.27157 -1.36868,-0.39835 -1.62146,-0.50624 -0.14674,-0.0626 -0.32336,-0.11386 -0.39249,-0.11386 -0.0691,0 -0.23482,-0.0569 -0.3682,-0.12648 -0.13339,-0.0696 -0.30157,-0.12672 -0.37375,-0.127 -0.0722,-2.9e-4 -0.16743,-0.031 -0.21167,-0.0683 -0.0442,-0.0373 -0.30903,-0.15513 -0.58843,-0.26192 -1.17401,-0.44874 -3.01289,-1.36423 -4.318,-2.14972 -1.34494,-0.80946 -1.40771,-0.84799 -1.51938,-0.93261 -0.0491,-0.0372 -0.35599,-0.25791 -0.68195,-0.49044 -0.32597,-0.23254 -0.65978,-0.47832 -0.7418,-0.54618 -0.082,-0.0679 -0.18363,-0.12338 -0.22578,-0.12338 -0.0422,0 -0.0893,-0.034 -0.10487,-0.0754 -0.0155,-0.0415 -0.2295,-0.23387 -0.47552,-0.42751 l -0.44729,-0.35207 -0.48404,0.12878 c -0.26622,0.0708 -0.57929,0.15101 -0.6957,0.17818 -0.11642,0.0272 -0.41247,0.1126 -0.6579,0.18985 l -0.44622,0.14046 -1.00493,-1.00231 c -1.1821,-1.17902 -1.14862,-1.0289 -0.6478,-2.90464 l 0.14054,-0.52637 -0.35207,-0.44729 c -0.19364,-0.24602 -0.38602,-0.46 -0.42751,-0.47552 -0.0415,-0.0155 -0.0755,-0.0611 -0.0755,-0.10139 0,-0.0618 -0.91274,-1.34683 -1.18331,-1.66598 -0.0477,-0.0562 -0.0867,-0.12446 -0.0867,-0.1516 0,-0.0715 -0.36946,-0.58768 -0.4445,-0.62103 -0.0349,-0.0155 -0.0635,-0.0649 -0.0635,-0.10969 0,-0.0448 -0.21923,-0.45121 -0.48719,-0.90311 -0.70092,-1.18209 -1.52939,-2.87527 -1.97624,-4.03898 -0.10729,-0.2794 -0.22556,-0.5442 -0.26282,-0.58843 -0.0373,-0.0442 -0.068,-0.13949 -0.0683,-0.21167 -2.8e-4,-0.0722 -0.0574,-0.24036 -0.127,-0.37375 -0.0696,-0.13338 -0.12648,-0.29401 -0.12648,-0.35696 0,-0.0629 -0.0525,-0.23956 -0.1167,-0.39248 -0.10787,-0.25699 -0.16869,-0.45377 -0.50459,-1.63271 -0.0663,-0.23283 -0.18622,-0.72813 -0.26642,-1.10067 -0.0802,-0.37253 -0.18448,-0.84878 -0.23174,-1.05833 -0.0473,-0.20955 -0.12216,-0.66675 -0.16646,-1.016 -0.52275,-4.12125 0.49748,4.00101 -0.23813,-1.84459 0,-0.36528 -0.0985,-0.48037 -0.635,-0.74198 -0.18626,-0.0908 -0.35771,-0.18783 -0.381,-0.21557 -0.0421,-0.0502 -0.14873,-0.10881 -0.88414,-0.48629 l -0.38586,-0.19805 v -1.50144 -1.50144 l 0.38767,-0.20551 c 0.21322,-0.11302 0.48945,-0.25901 0.61384,-0.32441 0.12439,-0.0654 0.24521,-0.14159 0.26849,-0.16933 0.0233,-0.0277 0.19474,-0.12474 0.381,-0.21557 0.582,-0.28379 0.635,-0.35944 0.635,-0.90632 v -0.49487 h 0.26962 c 0.14828,0 0.48166,0.0546 0.74083,0.12141 0.25917,0.0668 0.70424,0.16615 0.98905,0.22083 0.28481,0.0547 0.55586,0.12387 0.60233,0.15375 0.053,0.0341 0.0596,0.22777 0.0175,0.52001 -0.23197,2.44402 -0.34113,3.94653 0.0854,6.32969 0.21976,1.66895 0.61636,3.54577 0.97936,4.63464 0.0621,0.18627 0.13779,0.46205 0.1682,0.61286 0.0304,0.15081 0.0905,0.29593 0.13346,0.3225 0.043,0.0266 0.0781,0.12096 0.0781,0.20976 0,0.0888 0.0533,0.28659 0.11846,0.43951 0.0651,0.15292 0.18296,0.44949 0.2618,0.65904 0.0788,0.20955 0.19467,0.4953 0.25741,0.635 0.0627,0.1397 0.19625,0.4445 0.29671,0.67733 0.22818,0.52883 0.84666,1.76503 1.08017,2.159 0.0966,0.16298 0.25841,0.44873 0.35957,0.635 0.10117,0.18627 0.29418,0.5025 0.42891,0.70274 0.13474,0.20025 0.24497,0.38526 0.24497,0.41115 0,0.0259 0.1143,0.19139 0.254,0.36778 0.1397,0.17638 0.254,0.36284 0.254,0.41435 0,0.0515 0.0286,0.0937 0.0635,0.0938 0.0349,8e-5 0.17178,0.17153 0.30411,0.381 0.13234,0.20946 0.27521,0.38085 0.3175,0.38085 0.0423,0 0.0769,0.054 0.0769,0.11994 0,0.066 0.0298,0.13264 0.0661,0.14817 0.0364,0.0155 0.2359,0.24729 0.44338,0.51505 0.20749,0.26776 0.40632,0.48684 0.44186,0.48684 0.0355,0 0.0646,0.0353 0.0646,0.0786 0,0.13789 1.23348,1.41275 2.89354,2.9906 0.13473,0.12806 0.27858,0.23284 0.31966,0.23284 0.0411,0 0.0874,0.0337 0.10291,0.0748 0.0452,0.11985 1.05963,0.94117 1.16246,0.94117 0.0514,0 0.0934,0.0346 0.0934,0.0769 0,0.0423 0.17139,0.18516 0.38085,0.3175 0.20947,0.13233 0.38092,0.26918 0.381,0.30411 9e-5,0.0349 0.0423,0.0635 0.0938,0.0635 0.0515,0 0.23249,0.10797 0.40217,0.23993 0.16968,0.13196 0.36567,0.26681 0.43552,0.29965 0.13933,0.0655 0.2939,0.1586 0.80433,0.48433 0.18627,0.11887 0.39582,0.24224 0.46567,0.27417 0.0698,0.0319 0.26035,0.13926 0.42333,0.23852 0.37272,0.22701 1.60051,0.84404 2.159,1.08501 0.23283,0.10047 0.53763,0.23399 0.67733,0.29672 0.1397,0.0627 0.42545,0.17857 0.635,0.25741 0.20955,0.0788 0.50612,0.19665 0.65904,0.2618 0.15292,0.0652 0.3507,0.11846 0.43951,0.11846 0.0888,0 0.1832,0.0352 0.20976,0.0781 0.0266,0.043 0.17169,0.10304 0.3225,0.13346 0.15081,0.0304 0.42659,0.10611 0.61286,0.1682 0.74349,0.24786 1.9568,0.53625 3.175,0.75467 1.73725,0.31147 2.7592,0.39159 4.99533,0.39159 2.23614,0 3.25809,-0.0801 4.99534,-0.39159 1.2182,-0.21842 2.43151,-0.50681 3.175,-0.75467 0.18626,-0.0621 0.46205,-0.13779 0.61286,-0.1682 0.15081,-0.0304 0.29593,-0.0905 0.3225,-0.13346 0.0266,-0.043 0.12096,-0.0781 0.20976,-0.0781 0.0888,0 0.28658,-0.0533 0.4395,-0.11846 0.15293,-0.0652 0.44949,-0.18296 0.65904,-0.2618 0.20955,-0.0788 0.4953,-0.19467 0.635,-0.25741 0.1397,-0.0627 0.4445,-0.19625 0.67734,-0.29672 0.52882,-0.22817 1.76503,-0.84665 2.159,-1.08016 0.16298,-0.0966 0.43799,-0.2531 0.61113,-0.34778 0.17314,-0.0947 0.47794,-0.27739 0.67734,-0.40601 0.48981,-0.31598 0.66693,-0.42402 0.89169,-0.5439 0.10478,-0.0559 0.1905,-0.1336 0.1905,-0.17269 0,-0.0391 0.0571,-0.0711 0.127,-0.0711 0.0698,0 0.12707,-0.0286 0.12716,-0.0635 8e-5,-0.0349 0.17153,-0.17178 0.381,-0.30411 0.20946,-0.13234 0.38084,-0.27521 0.38084,-0.3175 0,-0.0423 0.0572,-0.0769 0.127,-0.0769 0.0699,0 0.127,-0.0299 0.127,-0.0664 0,-0.0365 0.10478,-0.12999 0.23284,-0.2077 0.12806,-0.0777 0.37783,-0.27642 0.55504,-0.44159 0.17722,-0.16516 0.34045,-0.30029 0.36273,-0.30029 0.0589,0 1.30872,-1.20325 2.05775,-1.98105 1.02146,-1.06068 1.10964,-1.15543 1.10964,-1.19216 0,-0.0191 0.13514,-0.1797 0.3003,-0.35692 0.16517,-0.17721 0.36388,-0.42698 0.44159,-0.55504 0.0777,-0.12806 0.17118,-0.23283 0.2077,-0.23283 0.0365,0 0.0664,-0.0571 0.0664,-0.127 0,-0.0698 0.0346,-0.127 0.0769,-0.127 0.0423,0 0.18516,-0.17139 0.3175,-0.38085 0.13233,-0.20947 0.26918,-0.38092 0.3041,-0.381 0.0349,-9e-5 0.0635,-0.0423 0.0635,-0.0938 0,-0.0515 0.1143,-0.23797 0.254,-0.41435 0.1397,-0.17639 0.254,-0.34189 0.254,-0.36778 0,-0.0259 0.11024,-0.2109 0.24498,-0.41115 0.13473,-0.20024 0.32774,-0.51647 0.4289,-0.70274 0.10117,-0.18627 0.26298,-0.47202 0.35958,-0.635 0.2335,-0.39397 0.85199,-1.63017 1.08016,-2.159 0.10046,-0.23283 0.23399,-0.53763 0.29672,-0.67733 0.0627,-0.1397 0.17857,-0.42545 0.25741,-0.635 0.0788,-0.20955 0.19665,-0.50612 0.2618,-0.65904 0.0652,-0.15292 0.11845,-0.3507 0.11845,-0.43951 0,-0.0888 0.0352,-0.1832 0.0782,-0.20976 0.043,-0.0266 0.10304,-0.17169 0.13345,-0.3225 0.0304,-0.15081 0.10611,-0.42659 0.16821,-0.61286 1.15558,-3.19301 1.31135,-6.57843 1.14418,-9.13664 0,-1.28764 -0.10267,-2.34619 -0.3908,-4.02903 -0.23357,-1.36422 -0.71797,-3.25235 -1.01619,-3.96104 -0.0644,-0.15292 -0.11701,-0.3326 -0.11701,-0.39929 0,-0.0667 -0.0533,-0.24637 -0.11845,-0.39929 -0.0651,-0.15293 -0.18524,-0.44949 -0.26687,-0.65904 -0.2458,-0.63099 -0.39865,-0.97629 -0.85327,-1.92762 -0.45021,-0.94208 -0.46377,-1.12158 -0.0845,-1.1193 0.16497,0.001 0.78457,-0.12409 1.8697,-0.37745 l 0.41956,-0.098 0.28466,0.597 c 0.39105,0.82011 0.48172,1.02742 0.70555,1.61299 0.10679,0.2794 0.22466,0.5442 0.26192,0.58844 0.0373,0.0442 0.0677,0.16078 0.0677,0.25898 0,0.0982 0.0559,0.25251 0.12431,0.3429 0.0684,0.0904 0.12552,0.22973 0.127,0.30964 10e-4,0.0799 0.0552,0.27042 0.1194,0.42334 0.49468,1.17852 1.41305,5.50494 1.40864,6.63608 -10e-4,0.38331 0.0904,0.49325 0.63365,0.75815 0.18627,0.0908 0.35772,0.18783 0.381,0.21557 0.0421,0.0502 0.14873,0.10882 0.88415,0.48629 l 0.38585,0.19805 v 1.5089 1.50889 l -0.38585,0.19805 c -0.73542,0.37748 -0.84202,0.43611 -0.88415,0.48629 -0.0233,0.0277 -0.19473,0.12475 -0.381,0.21557 -0.55452,0.2704 -0.635,0.37123 -0.635,0.79561 0,0.71484 -0.53718,3.66609 -0.90389,4.96592 -0.30991,1.0985 -0.39497,1.37439 -0.5034,1.63271 -0.0642,0.15292 -0.11671,0.32954 -0.11671,0.39248 0,0.063 -0.0569,0.22358 -0.12647,0.35696 -0.0696,0.13339 -0.12672,0.30157 -0.127,0.37375 -2.9e-4,0.0722 -0.031,0.16743 -0.0683,0.21167 -0.0373,0.0442 -0.15513,0.30903 -0.26192,0.58843 -0.39969,1.04568 -1.33404,2.9544 -1.97714,4.03898 -0.26796,0.4519 -0.4872,0.8583 -0.4872,0.90311 0,0.0448 -0.0286,0.0942 -0.0635,0.10969 -0.075,0.0333 -0.4445,0.54954 -0.4445,0.62103 0,0.0271 -0.039,0.0954 -0.0867,0.1516 -0.16929,0.19969 -1.18331,1.59336 -1.18331,1.62634 0,0.0184 -0.09,0.13063 -0.19998,0.24931 -0.10999,0.11868 -0.29881,0.35877 -0.4196,0.53353 -0.24311,0.35173 -0.24601,0.31095 0.11268,1.58774 0.10465,0.37254 0.20629,0.75354 0.22586,0.84667 0.0266,0.12675 -0.23047,0.434 -1.02242,1.22181 l -1.05802,1.05248 -0.44909,-0.13825 c -0.5117,-0.15752 -1.27292,-0.36946 -1.60634,-0.44723 -0.18113,-0.0423 -0.31539,0.0177 -0.67733,0.30264 -0.24828,0.19543 -0.46412,0.38928 -0.47965,0.43077 -0.0155,0.0415 -0.0611,0.0754 -0.10138,0.0754 -0.0403,0 -0.40855,0.24673 -0.81845,0.54831 -0.4099,0.30157 -0.78546,0.57779 -0.83456,0.61383 -0.12968,0.0952 -0.29798,0.1984 -1.51938,0.93205 -1.30764,0.78544 -3.14749,1.70074 -4.318,2.14814 -0.2794,0.10679 -0.5442,0.22466 -0.58844,0.26192 -0.0442,0.0373 -0.13948,0.068 -0.21166,0.0683 -0.0722,2.8e-4 -0.24037,0.0574 -0.37375,0.127 -0.13338,0.0696 -0.29401,0.12648 -0.35696,0.12648 -0.063,0 -0.23957,0.0525 -0.39249,0.1167 -0.25831,0.10843 -0.5342,0.19349 -1.6327,0.5034 -1.29983,0.36671 -4.25108,0.9039 -4.96592,0.9039 -0.42438,0 -0.52521,0.0805 -0.79561,0.635 -0.0908,0.18626 -0.18783,0.35771 -0.21557,0.381 -0.0502,0.0421 -0.10882,0.14873 -0.48629,0.88414 l -0.19805,0.38586 h -1.50144 -1.50144 z m -1.09446,-6.60288 c -1.54671,-0.19105 -3.0528,-0.47387 -4.10633,-0.77109 -1.4271,-0.40261 -1.39624,-0.39226 -3.048,-1.02239 -0.43892,-0.16745 -1.29551,-0.55967 -1.98967,-0.91104 -1.05837,-0.53574 -1.48199,-0.7614 -1.524,-0.81183 -0.0233,-0.028 -0.13758,-0.10075 -0.254,-0.16177 -0.65791,-0.34483 -2.794,-1.84539 -2.794,-1.96274 0,-0.0376 -0.0571,-0.0683 -0.127,-0.0683 -0.0698,0 -0.127,-0.0317 -0.127,-0.0703 0,-0.0387 -0.1748,-0.19585 -0.38845,-0.34928 -0.51567,-0.37033 -2.88129,-2.73279 -3.24656,-3.24224 -0.1586,-0.22119 -0.32,-0.40216 -0.35867,-0.40216 -0.0387,0 -0.0703,-0.0571 -0.0703,-0.127 0,-0.0698 -0.0308,-0.127 -0.0683,-0.127 -0.11735,0 -1.61791,-2.13609 -1.96274,-2.794 -0.061,-0.11642 -0.13381,-0.23072 -0.16177,-0.254 -0.09,-0.075 -0.90869,-1.67585 -1.34222,-2.62467 -0.24486,-0.5359 -0.43592,-1.00448 -0.65594,-1.60867 -0.0593,-0.16298 -0.16429,-0.44873 -0.23321,-0.635 -0.11807,-0.3191 -0.23347,-0.69935 -0.51389,-1.69333 -0.44055,-1.56157 -0.81021,-3.92016 -0.85278,-5.44113 l -0.0766,-1.53381 0.0544,-1.16898 c 0.0688,-1.47955 0.10376,-1.64347 0.34067,-1.59929 0.33724,0.0629 1.53366,0.32023 1.89529,0.40766 l 1.63256,0.36127 c 0.20807,0.0276 0.60691,0.10242 0.88631,0.16622 0.2794,0.0638 0.8128,0.17859 1.18533,0.25509 0.37254,0.0765 0.82974,0.17644 1.016,0.22211 0.18627,0.0457 0.52917,0.11476 0.762,0.15354 0.23284,0.0388 0.59479,0.11173 0.80434,0.16212 0.20955,0.0504 0.6858,0.15469 1.05833,0.23179 0.37253,0.0771 0.90593,0.19026 1.18533,0.25147 0.2794,0.0612 0.8128,0.1748 1.18534,0.25243 0.37253,0.0776 0.90593,0.19161 1.18533,0.2533 0.2794,0.0617 0.8128,0.17433 1.18533,0.25031 0.37254,0.076 0.82974,0.1789 1.016,0.2287 0.18627,0.0498 0.52917,0.11906 0.762,0.15391 0.23284,0.0348 0.59479,0.10432 0.80434,0.15438 0.46286,0.11057 1.32832,0.29708 3.47133,0.74806 0.34925,0.0735 0.8636,0.18318 1.143,0.24375 1.05383,0.22846 1.71424,0.3689 2.37067,0.50413 0.37253,0.0767 0.84878,0.17952 1.05833,0.22838 0.20955,0.0489 0.65947,0.13898 0.99981,0.20024 0.52767,0.095 0.67295,0.16128 0.98636,0.45017 0.87397,0.80561 2.40302,1.17968 3.5595,0.87083 0.51427,-0.13735 1.22766,-0.45107 1.22766,-0.53988 0,-0.0356 0.0368,-0.0647 0.0818,-0.0647 0.17471,0 0.67039,-0.60157 0.92308,-1.12028 0.20124,-0.41307 0.26507,-0.65898 0.26507,-1.02111 0,-0.85588 -0.47962,-1.75236 -1.25776,-2.35094 -0.91922,-0.7071 -2.46209,-1.03448 -3.35657,-0.71223 -0.42583,0.15341 -0.62977,0.15452 -1.12709,0.006 -0.37313,-0.11133 -0.69856,-0.19727 -1.98441,-0.52405 -0.29104,-0.074 -0.71967,-0.18407 -0.9525,-0.24467 -0.78896,-0.20536 -1.47986,-0.3824 -1.98967,-0.50985 -0.2794,-0.0699 -0.7366,-0.18415 -1.016,-0.254 -0.2794,-0.0699 -0.74612,-0.18704 -1.03716,-0.26041 -0.29104,-0.0734 -0.75777,-0.19104 -1.03717,-0.26148 -0.2794,-0.0704 -0.6985,-0.17766 -0.93133,-0.23826 -0.62349,-0.16229 -1.411,-0.36489 -2.01084,-0.51733 -0.29104,-0.074 -0.71966,-0.18407 -0.9525,-0.24467 -1.07686,-0.2803 -1.56145,-0.40507 -2.032,-0.52323 -0.2794,-0.0702 -0.69335,-0.18157 -0.91989,-0.24759 -0.22653,-0.066 -0.46907,-0.12003 -0.53897,-0.12003 -0.0699,0 -0.30364,-0.0554 -0.51944,-0.12302 -0.2158,-0.0677 -0.63049,-0.18196 -0.92153,-0.254 -0.29104,-0.072 -0.75777,-0.18813 -1.03717,-0.25798 -0.2794,-0.0699 -0.72707,-0.18127 -0.99483,-0.24759 -0.51867,-0.12848 -1.31815,-0.33227 -2.01083,-0.51256 -0.78506,-0.20434 -1.47878,-0.38213 -2.01084,-0.51534 -0.29104,-0.0729 -0.64546,-0.16786 -0.78761,-0.2111 -0.14214,-0.0432 -0.42789,-0.11497 -0.635,-0.1594 -0.64618,-0.13865 -1.33242,-0.32269 -1.43148,-0.38391 -0.12269,-0.0758 -0.0997,-0.15934 0.39049,-1.42027 0.15872,-0.40828 0.84126,-1.90287 0.95695,-2.0955 0.0419,-0.0699 0.2217,-0.41275 0.39944,-0.762 0.17774,-0.34925 0.34411,-0.65405 0.36972,-0.67733 0.0256,-0.0233 0.12444,-0.17699 0.21963,-0.34156 0.36713,-0.63469 1.0847,-1.69044 1.14895,-1.69044 0.0371,0 0.0674,-0.054 0.0674,-0.11995 0,-0.066 0.0286,-0.13264 0.0635,-0.14816 0.0349,-0.0155 0.17346,-0.19015 0.30785,-0.38806 0.13439,-0.19791 0.27727,-0.35983 0.3175,-0.35983 0.0402,0 0.0731,-0.054 0.0731,-0.11995 0,-0.066 0.0328,-0.13264 0.0728,-0.14816 0.0401,-0.0155 0.2963,-0.29493 0.56944,-0.62089 0.63723,-0.7605 2.02622,-2.14949 2.78672,-2.78673 0.32597,-0.27313 0.60537,-0.52938 0.62089,-0.56944 0.0155,-0.0401 0.0822,-0.0728 0.14817,-0.0728 0.066,0 0.11994,-0.0308 0.11994,-0.0683 0,-0.11734 2.13609,-1.6179 2.794,-1.96274 0.11642,-0.061 0.23072,-0.13381 0.254,-0.16176 0.0689,-0.0827 1.74708,-0.94078 2.62467,-1.34204 0.60538,-0.2768 1.13304,-0.48623 2.26483,-0.89888 0.46447,-0.16935 1.24234,-0.39249 2.52794,-0.72515 0.64237,-0.16623 1.75924,-0.35025 3.12356,-0.51466 3.95277,-0.47633 8.42175,0.0664 12.1285,1.47302 0.87355,0.33148 1.11163,0.42872 1.62984,0.66567 0.87758,0.40126 2.55581,1.25937 2.62466,1.34204 0.0233,0.028 0.13759,0.10074 0.254,0.16176 0.65792,0.34484 2.794,1.8454 2.794,1.96274 0,0.0376 0.054,0.0683 0.11995,0.0683 0.066,0 0.13264,0.0328 0.14816,0.0728 0.0155,0.0401 0.29493,0.29604 0.62089,0.56885 0.32597,0.27282 0.96812,0.87083 1.427,1.32891 0.81057,0.80917 0.83007,0.8376 0.68472,0.99821 -0.0823,0.0909 -0.30534,0.20597 -0.49567,0.25565 -0.19032,0.0497 -0.57465,0.14879 -0.85405,0.22026 -0.2794,0.0715 -0.6985,0.17953 -0.93133,0.24014 -0.63257,0.16465 -1.87251,0.47909 -3.048,0.77297 -0.2794,0.0699 -0.7366,0.18415 -1.016,0.254 -0.58591,0.14647 -1.33961,0.33885 -1.94733,0.49703 -0.23284,0.0606 -0.65194,0.16782 -0.93134,0.23826 -0.47251,0.11912 -0.98406,0.25097 -2.032,0.52374 -0.39581,0.10302 -0.77259,0.19979 -2.032,0.52189 -0.2794,0.0714 -0.6985,0.1795 -0.93133,0.24011 -0.69268,0.18029 -1.49217,0.38408 -2.01083,0.51256 -0.26776,0.0663 -0.71544,0.17774 -0.99484,0.24759 -0.2794,0.0699 -0.7366,0.18415 -1.016,0.254 -0.94893,0.23723 -1.56526,0.39935 -2.01083,0.52892 -0.40796,0.11863 -0.48339,0.11703 -0.91762,-0.0196 -0.5907,-0.18579 -1.63377,-0.13965 -2.33908,0.10348 -0.66669,0.22981 -1.38264,0.74191 -1.77188,1.26738 -0.17962,0.24248 -0.32659,0.47625 -0.32659,0.51948 0,0.0432 -0.0569,0.18774 -0.12647,0.32112 -0.28967,0.55541 -0.0833,1.66584 0.44791,2.40957 0.51804,0.72536 1.73252,1.26194 2.85627,1.26194 0.75303,0 2.15629,-0.3963 2.15629,-0.60896 0,-0.0376 0.046,-0.0684 0.10227,-0.0684 0.0562,0 0.23722,-0.13125 0.40216,-0.29166 0.30542,-0.29701 0.36309,-0.31686 1.73924,-0.59848 0.37253,-0.0762 0.90593,-0.18868 1.18533,-0.24989 0.2794,-0.0612 0.8128,-0.17551 1.18534,-0.254 0.37253,-0.0785 0.90593,-0.19443 1.18533,-0.25763 0.2794,-0.0632 0.6223,-0.13481 0.762,-0.15914 0.1397,-0.0243 0.61595,-0.12651 1.05833,-0.22709 0.44239,-0.10057 0.97579,-0.21128 1.18534,-0.24603 0.20955,-0.0348 0.55245,-0.10423 0.762,-0.1544 0.20955,-0.0502 0.6858,-0.15429 1.05833,-0.23139 0.37253,-0.0771 0.90593,-0.19089 1.18533,-0.25287 0.2794,-0.062 0.8128,-0.17661 1.18534,-0.25474 1.49619,-0.31382 1.80004,-0.37883 2.32833,-0.4982 0.30268,-0.0684 0.75121,-0.15071 0.99673,-0.18291 0.24552,-0.0322 0.46685,-0.0916 0.49183,-0.13207 0.025,-0.0404 0.14171,-0.0735 0.25937,-0.0735 0.11767,0 0.4488,-0.0561 0.73584,-0.12466 0.28704,-0.0686 0.7886,-0.17961 1.11456,-0.24677 1.15666,-0.23833 1.95392,-0.40616 2.45534,-0.51687 0.2794,-0.0617 0.79375,-0.17176 1.143,-0.2446 0.34925,-0.0728 0.83719,-0.1759 1.08431,-0.22903 0.52533,-0.11295 0.50154,-0.13271 0.96738,0.8039 0.63478,1.27628 0.88884,1.87443 1.45074,3.41553 0.34839,0.95553 0.78389,2.68179 1.01993,4.04283 0.60029,3.46132 0.52002,6.65932 -0.26032,10.37167 -0.22919,1.09036 -0.59232,2.31725 -1.00238,3.38666 -0.0804,0.20955 -0.20422,0.5334 -0.27528,0.71967 -0.33418,0.87598 -1.56171,3.37943 -1.72287,3.51367 -0.028,0.0233 -0.10075,0.13758 -0.16177,0.254 -0.34483,0.65791 -1.8454,2.794 -1.96274,2.794 -0.0376,0 -0.0683,0.0572 -0.0683,0.127 0,0.0699 -0.0316,0.127 -0.0703,0.127 -0.0387,0 -0.20024,0.18092 -0.35904,0.40205 -0.37422,0.52108 -2.71151,2.85837 -3.2326,3.23259 -0.22112,0.1588 -0.40205,0.32037 -0.40205,0.35904 0,0.0387 -0.0571,0.0703 -0.127,0.0703 -0.0698,0 -0.127,0.0308 -0.127,0.0683 0,0.11735 -2.13608,1.61791 -2.794,1.96274 -0.11641,0.061 -0.23071,0.13381 -0.254,0.16177 -0.0233,0.0279 -0.25188,0.15937 -0.508,0.29204 -1.79616,0.93041 -2.52053,1.26213 -3.7465,1.71566 -0.95574,0.35357 -1.02844,0.37681 -2.30716,0.73756 -1.09414,0.30868 -2.63841,0.59488 -4.10634,0.76102 -1.35423,0.15328 -4.38439,0.15874 -5.588,0.0101 z m 4.7625,-24.14791 c -0.56097,-0.20103 -0.85711,-0.94501 -1.68579,-1.07517 -0.17877,-0.0281 -0.53459,-0.10351 -0.79071,-0.16761 -0.25611,-0.0641 -0.77046,-0.17872 -1.143,-0.25469 -0.37253,-0.076 -0.94403,-0.19463 -1.27,-0.26368 -0.32596,-0.0691 -0.87841,-0.1857 -1.22766,-0.25919 -0.34925,-0.0735 -0.8636,-0.18319 -1.143,-0.24376 -0.89813,-0.1947 -1.67665,-0.36109 -2.37067,-0.50666 -0.37253,-0.0781 -0.90593,-0.19254 -1.18533,-0.25423 -0.2794,-0.0617 -0.8128,-0.17474 -1.18534,-0.25123 -0.37253,-0.0765 -0.82973,-0.17644 -1.016,-0.22211 -0.18626,-0.0457 -0.52916,-0.11477 -0.762,-0.15355 -0.23283,-0.0388 -0.59478,-0.11173 -0.80433,-0.16211 -0.20955,-0.0504 -0.6858,-0.15469 -1.05833,-0.2318 -0.37254,-0.0771 -0.90594,-0.19026 -1.18534,-0.25147 -0.2794,-0.0612 -0.8128,-0.17479 -1.18533,-0.25242 -0.37253,-0.0776 -0.90593,-0.19162 -1.18533,-0.25331 -0.2794,-0.0617 -0.8128,-0.17545 -1.18534,-0.25281 -5.0147,-1.0419 -2.24389,-0.48325 -6.01133,-1.274 -0.37253,-0.0782 -0.90593,-0.19224 -1.18533,-0.25345 -0.2794,-0.0612 -0.8128,-0.17517 -1.18534,-0.25326 -0.37253,-0.0781 -0.88938,-0.19526 -1.14855,-0.26037 -0.25917,-0.0651 -0.56062,-0.11839 -0.66989,-0.11839 -0.10927,0 -0.39252,-0.0544 -0.62945,-0.12087 -0.23692,-0.0665 -0.73557,-0.18264 -1.10811,-0.25815 -0.37253,-0.0755 -0.94403,-0.1938 -1.27,-0.26285 -0.32596,-0.0691 -0.87841,-0.18569 -1.22766,-0.25919 -0.34925,-0.0735 -0.8636,-0.18371 -1.143,-0.24492 -0.2794,-0.0612 -0.8128,-0.1755 -1.18534,-0.254 -0.37253,-0.0785 -0.90593,-0.19216 -1.18533,-0.2526 -0.2794,-0.0604 -0.79375,-0.16931 -1.143,-0.24194 -0.34925,-0.0726 -0.9017,-0.18889 -1.22767,-0.25836 -0.32596,-0.0695 -0.87841,-0.18631 -1.22766,-0.25965 -0.34925,-0.0733 -0.88265,-0.18589 -1.18534,-0.25011 -0.30268,-0.0642 -0.85513,-0.1807 -1.22766,-0.25884 -1.00051,-0.20985 -0.693,-0.16389 -0.81098,-0.26009 -0.16616,-0.13548 -0.13122,-1.29073 0.057,-1.88589 0.16616,-0.52529 0.27902,-0.76556 0.54684,-1.16417 0.18266,-0.27186 -0.10519,-0.44743 0.50952,-0.25502 0.37779,0.11825 1.06459,0.30166 1.96242,0.52406 0.6198,0.15352 1.3583,0.33815 2.032,0.508 0.29104,0.0734 0.75777,0.19104 1.03717,0.26148 0.2794,0.0704 0.6985,0.17766 0.93133,0.23826 0.23283,0.0606 0.67098,0.17467 0.97367,0.25349 0.30268,0.0788 0.73568,0.19731 0.96222,0.26333 0.22654,0.066 0.46703,0.12003 0.53442,0.12003 0.0674,0 0.30115,0.0533 0.51945,0.11842 0.37313,0.11133 0.69856,0.19727 1.98441,0.52406 0.29104,0.074 0.71966,0.18407 0.9525,0.24467 1.13979,0.29667 1.56315,0.40536 2.01083,0.51626 0.26776,0.0663 0.71543,0.17774 0.99483,0.24759 0.2794,0.0699 0.7366,0.18415 1.016,0.254 0.68734,0.17183 1.4779,0.37294 1.98967,0.50615 1.04793,0.27276 1.55949,0.40461 2.032,0.52374 0.2794,0.0704 0.6985,0.17766 0.93133,0.23826 0.52907,0.13771 1.27447,0.3284 1.98967,0.509 0.30268,0.0764 0.74083,0.18862 0.97367,0.2493 0.98268,0.2561 1.46825,0.38096 1.94733,0.50073 0.56195,0.14049 1.29023,0.32392 2.0955,0.52779 0.29104,0.0737 0.71452,0.18798 0.94106,0.254 0.22654,0.066 0.46703,0.12003 0.53442,0.12003 0.0674,0 0.30115,0.0533 0.51945,0.11842 0.37312,0.11133 0.69855,0.19727 1.9844,0.52406 0.29105,0.074 0.71967,0.18406 0.9525,0.24467 0.23284,0.0606 0.65194,0.16865 0.93134,0.24011 1.2594,0.32209 1.63619,0.41886 2.032,0.52189 1.10328,0.28717 1.563,0.40541 2.032,0.52266 0.2794,0.0699 0.7366,0.18415 1.016,0.254 0.2794,0.0699 0.7366,0.18415 1.016,0.254 0.72759,0.1819 1.4588,0.36646 1.94733,0.49151 1.67923,0.42985 1.66136,0.42745 1.97426,0.26564 0.386,-0.1996 1.49575,-0.18258 1.97314,0.0303 0.66846,0.29804 1.17525,0.93291 1.17462,1.47146 -3.3e-4,0.27774 -0.25714,0.77693 -0.49724,0.96652 -0.0756,0.0597 -0.29728,0.18419 -0.49263,0.27666 -0.44113,0.2088 -1.3472,0.21724 -1.86732,0.0174 -1e-5,-1e-5 3e-5,-3e-5 3e-5,-3e-5 z m -5.82083,-10.69596 c -0.18627,-0.0991 -0.4094,-0.24227 -0.49584,-0.31822 -0.22165,-0.19473 -0.47783,-0.72523 -0.47783,-0.98949 0,-0.45924 0.51771,-1.09372 1.143,-1.40082 0.43766,-0.21495 1.59488,-0.23794 1.97898,-0.0393 0.31568,0.16324 0.43248,0.16457 0.97692,0.0111 0.41115,-0.11591 0.84228,-0.22646 2.01827,-0.51754 0.29104,-0.072 0.70573,-0.18634 0.92153,-0.254 0.2158,-0.0677 0.44955,-0.12302 0.51944,-0.12302 0.0699,0 0.31244,-0.054 0.53897,-0.12003 0.22654,-0.066 0.64049,-0.17744 0.91989,-0.2476 0.2794,-0.0702 0.75565,-0.19259 1.05834,-0.27207 1.00516,-0.26396 1.39212,-0.36396 1.92616,-0.49774 0.53334,-0.13361 1.23062,-0.31233 2.01084,-0.51541 0.43299,-0.1127 1.04611,-0.26803 1.94733,-0.49333 0.2794,-0.0699 0.7366,-0.18415 1.016,-0.254 1.2096,-0.30241 1.98475,-0.49992 3.048,-0.77667 0.23283,-0.0606 0.65193,-0.16782 0.93133,-0.23826 3.70695,-0.777 7.34168,-1.8567 11.00667,-2.80977 0.23283,-0.0606 0.65193,-0.16782 0.93133,-0.23826 0.47252,-0.11913 0.98407,-0.25098 2.032,-0.52374 0.39582,-0.10303 0.7726,-0.1998 2.032,-0.52189 0.2794,-0.0715 0.6985,-0.17951 0.93134,-0.24011 0.23283,-0.0606 0.65193,-0.16782 0.93133,-0.23826 0.2794,-0.0704 0.75565,-0.19099 1.05833,-0.26789 0.70065,-0.17801 1.43915,-0.36263 2.032,-0.508 0.4271,-0.10473 0.82119,-0.20571 1.98967,-0.50985 0.4481,-0.11663 1.08463,-0.27779 1.98967,-0.50372 0.30268,-0.0756 0.72689,-0.19275 0.94269,-0.26041 0.54688,-0.17147 0.58631,-0.0967 0.74918,0.0935 0.44215,0.51639 0.76663,1.59857 0.73457,2.44969 l -0.0247,0.65567 -0.46567,0.14275 c -0.25611,0.0785 -0.33585,0.143 -0.70839,0.21933 -0.37253,0.0763 -0.90593,0.18887 -1.18533,0.25008 -0.4725,0.1035 -0.82394,0.17808 -2.37067,0.50307 -0.32596,0.0685 -0.87841,0.18523 -1.22766,0.25942 -0.34925,0.0742 -0.92075,0.19433 -1.27,0.26696 -0.34925,0.0726 -0.8636,0.18151 -1.143,0.24194 -0.2794,0.0604 -0.8128,0.17411 -1.18534,0.25261 -0.37253,0.0785 -0.90593,0.19279 -1.18533,0.254 -0.2794,0.0612 -0.79375,0.17141 -1.143,0.24491 -0.34925,0.0735 -0.92075,0.19434 -1.27,0.26853 -0.79194,0.16824 -1.63189,0.34477 -2.45533,0.51601 -0.34925,0.0726 -0.8636,0.18151 -1.143,0.24194 -0.2794,0.0604 -0.8128,0.17453 -1.18534,0.25353 -1.11852,0.23721 -1.83452,0.3918 -2.37066,0.51186 -0.2794,0.0626 -0.6223,0.13366 -0.762,0.15798 -0.1397,0.0243 -0.61595,0.12652 -1.05834,0.22709 -0.44238,0.10057 -0.97578,0.21129 -1.18533,0.24604 -0.20955,0.0348 -0.55245,0.10423 -0.762,0.15439 -0.20955,0.0502 -0.6858,0.15358 -1.05833,0.22982 -0.37254,0.0762 -0.90594,0.18932 -1.18534,0.25129 -0.2794,0.062 -0.8128,0.17691 -1.18533,0.2554 -0.37253,0.0785 -0.90593,0.19217 -1.18533,0.2526 -0.54542,0.11798 -1.50039,0.32095 -2.45534,0.52186 -0.32596,0.0686 -0.76411,0.16479 -0.97366,0.21379 -0.20955,0.049 -0.6477,0.14025 -0.97367,0.20277 -0.32597,0.0625 -0.85937,0.17401 -1.18533,0.24777 -0.32597,0.0737 -0.70697,0.15428 -0.84667,0.17896 -0.1397,0.0247 -0.4826,0.0959 -0.762,0.15837 -0.2794,0.0624 -0.8128,0.17745 -1.18533,0.25558 -0.69402,0.14557 -1.47255,0.31196 -2.37067,0.50666 -0.2794,0.0606 -0.79375,0.17026 -1.143,0.24376 -0.34925,0.0735 -0.9017,0.19013 -1.22767,0.25919 -0.32596,0.0691 -0.89746,0.18769 -1.27,0.26364 -1.19173,0.24294 -1.27902,0.2768 -1.48369,0.5755 -0.10614,0.1549 -0.27292,0.32293 -0.37064,0.37341 -0.66707,0.3446 -0.82117,0.39037 -1.40533,0.41739 -0.5225,0.0242 -0.695,-0.003 -0.97367,-0.15076 z m -23.70667,-0.80719 c -0.22388,-0.0448 -1.07744,-0.26483 -1.6161,-0.41668 -0.23693,-0.0668 -0.48822,-0.12144 -0.55842,-0.12144 -0.10863,0 -0.11347,-0.0536 -0.0325,-0.35984 0.0523,-0.1979 0.14167,-0.44305 0.19858,-0.54476 0.0569,-0.10172 0.10348,-0.25602 0.10348,-0.3429 0,-0.0869 0.0305,-0.19416 0.0677,-0.2384 0.0373,-0.0442 0.15512,-0.30904 0.26192,-0.58844 0.39969,-1.04567 1.33404,-2.9544 1.97714,-4.03897 0.26796,-0.45191 0.48719,-0.85831 0.48719,-0.90312 0,-0.0448 0.0286,-0.0942 0.0635,-0.10968 0.075,-0.0333 0.4445,-0.54955 0.4445,-0.62104 0,-0.0271 0.04,-0.0953 0.0888,-0.15159 0.0488,-0.0563 0.27908,-0.36896 0.51161,-0.69493 0.23254,-0.32597 0.47832,-0.65978 0.54618,-0.7418 0.0679,-0.082 0.12338,-0.18362 0.12338,-0.22578 0,-0.0421 0.0364,-0.0893 0.0809,-0.10486 0.0445,-0.0155 0.23423,-0.23413 0.42167,-0.48579 0.26304,-0.35316 0.32957,-0.5077 0.2916,-0.67733 -0.0752,-0.33583 -0.28267,-1.10001 -0.43469,-1.60083 l -0.13651,-0.44972 1.07111,-1.07112 1.07111,-1.07111 0.32025,0.11691 c 0.17614,0.0643 0.4536,0.1443 0.61658,0.17779 0.16299,0.0335 0.5332,0.12421 0.82271,0.20161 l 0.52637,0.14072 0.44729,-0.35207 c 0.24602,-0.19363 0.46,-0.38601 0.47552,-0.42751 0.0155,-0.0415 0.0611,-0.0754 0.10139,-0.0754 0.0402,0 0.40854,-0.24674 0.81845,-0.54831 0.4099,-0.30157 0.78545,-0.5778 0.83456,-0.61383 0.11455,-0.0841 0.20026,-0.13655 1.51938,-0.93048 0.929,-0.55913 2.57357,-1.41086 3.556,-1.84168 0.1397,-0.0613 0.38735,-0.16972 0.55033,-0.24102 0.16299,-0.0713 0.40147,-0.15583 0.52997,-0.18787 0.1285,-0.032 0.25457,-0.0921 0.28016,-0.13352 0.0256,-0.0414 0.11096,-0.0755 0.1897,-0.0758 0.0787,-2.9e-4 0.2523,-0.0574 0.38569,-0.127 0.13338,-0.0696 0.29401,-0.12648 0.35696,-0.12648 0.0629,0 0.23956,-0.0525 0.39248,-0.11671 0.25832,-0.10842 0.53421,-0.19349 1.63271,-0.5034 1.29983,-0.36671 4.25108,-0.90389 4.96592,-0.90389 0.42438,0 0.52521,-0.0805 0.79561,-0.635 0.0908,-0.18627 0.18783,-0.35772 0.21557,-0.381 0.0502,-0.0421 0.10882,-0.14873 0.48629,-0.88414 l 0.19805,-0.38586 h 1.50889 1.5089 l 0.19805,0.38586 c 0.37747,0.73541 0.4361,0.84201 0.48629,0.88414 0.0277,0.0233 0.12474,0.19473 0.21557,0.381 0.2704,0.55452 0.37123,0.635 0.79561,0.635 1.13607,0 5.42516,0.91474 6.59862,1.40729 0.15292,0.0642 0.32954,0.11671 0.39249,0.11671 0.063,0 0.22358,0.0569 0.35696,0.12648 0.13338,0.0696 0.30157,0.12671 0.37375,0.127 0.0722,2.8e-4 0.16743,0.031 0.21166,0.0683 0.0442,0.0373 0.30904,0.15512 0.58844,0.26191 1.02246,0.39082 2.92194,1.31843 4.04935,1.9775 0.45803,0.26776 0.8646,0.48684 0.90349,0.48684 0.0389,0 0.0834,0.0286 0.0989,0.0635 0.0333,0.075 0.54955,0.4445 0.62104,0.4445 0.0271,0 0.0953,0.0385 0.15159,0.0855 0.0562,0.047 0.59756,0.452 1.20293,0.89998 0.60537,0.44797 1.18268,0.88891 1.28292,0.97986 0.17669,0.16033 0.19864,0.16099 0.71966,0.0218 0.29558,-0.079 0.67077,-0.17095 0.83375,-0.20444 0.16299,-0.0335 0.44017,-0.1134 0.61596,-0.17757 l 0.31963,-0.11668 1.0562,1.05368 1.23074,4.29069 -2.74857,0.84517 c -0.1494,0.0459 -0.93512,-0.99059 -1.79653,-1.83782 -1.30664,-1.28511 -1.55531,-1.52216 -1.59679,-1.52216 -0.0191,0 -0.17979,-0.13514 -0.35701,-0.3003 -0.17721,-0.16517 -0.42698,-0.36388 -0.55504,-0.44159 -0.12806,-0.0777 -0.23284,-0.17117 -0.23284,-0.2077 0,-0.0365 -0.0571,-0.0664 -0.127,-0.0664 -0.0698,0 -0.127,-0.0346 -0.127,-0.0769 0,-0.0423 -0.17138,-0.18517 -0.38084,-0.3175 -0.20947,-0.13234 -0.38092,-0.26919 -0.381,-0.30411 -9e-5,-0.0349 -0.0398,-0.0635 -0.0883,-0.0635 -0.0804,0 -0.57318,-0.3141 -0.67391,-0.42951 -0.0233,-0.0267 -0.0995,-0.0758 -0.16933,-0.10916 -0.14664,-0.07 -0.32405,-0.17774 -0.82382,-0.50023 -0.19698,-0.12711 -0.39383,-0.2311 -0.43744,-0.2311 -0.0436,0 -0.092,-0.0286 -0.10752,-0.0635 -0.043,-0.0967 -1.62978,-0.91974 -2.48355,-1.28812 -0.23284,-0.10046 -0.53764,-0.23399 -0.67734,-0.29672 -0.1397,-0.0627 -0.42545,-0.17857 -0.635,-0.25741 -0.20955,-0.0788 -0.50611,-0.19665 -0.65904,-0.2618 -0.15292,-0.0652 -0.35069,-0.11845 -0.4395,-0.11845 -0.0888,0 -0.1832,-0.0352 -0.20976,-0.0781 -0.0266,-0.043 -0.17169,-0.10304 -0.3225,-0.13346 -0.15081,-0.0304 -0.4266,-0.10611 -0.61286,-0.16821 -1.16424,-0.38812 -3.00702,-0.769 -4.91067,-1.01497 -1.39149,-0.1798 -5.12785,-0.1798 -6.51933,0 -1.90366,0.24597 -3.74644,0.62685 -4.91067,1.01497 -0.18627,0.0621 -0.46205,0.13779 -0.61286,0.16821 -0.15081,0.0304 -0.29593,0.0905 -0.3225,0.13346 -0.0266,0.043 -0.12096,0.0781 -0.20976,0.0781 -0.0888,0 -0.28659,0.0533 -0.43951,0.11845 -0.15292,0.0651 -0.44949,0.18296 -0.65904,0.2618 -0.20955,0.0788 -0.4953,0.19468 -0.635,0.25741 -0.1397,0.0627 -0.4445,0.19626 -0.67733,0.29672 -0.64503,0.27831 -1.834,0.88134 -2.22752,1.12976 -0.1933,0.12202 -0.37201,0.22186 -0.39715,0.22186 -0.0251,0 -0.20686,0.10399 -0.40385,0.2311 -0.50471,0.32568 -0.67826,0.43087 -0.82381,0.49931 -0.0699,0.0328 -0.26584,0.16769 -0.43552,0.29965 -0.16968,0.13197 -0.35066,0.23994 -0.40217,0.23994 -0.0515,0 -0.0937,0.0286 -0.0938,0.0635 -8e-5,0.0349 -0.17153,0.17177 -0.381,0.30411 -0.20946,0.13233 -0.38085,0.27521 -0.38085,0.3175 0,0.0423 -0.0571,0.0769 -0.127,0.0769 -0.0698,0 -0.127,0.0293 -0.127,0.0651 0,0.0358 -0.0911,0.12151 -0.20239,0.1905 -0.8331,0.51635 -4.26054,3.95124 -4.82242,4.83291 -0.0861,0.13505 -0.19084,0.24554 -0.23283,0.24554 -0.042,0 -0.0764,0.0572 -0.0764,0.127 0,0.0699 -0.0348,0.127 -0.0774,0.127 -0.0426,0 -0.19158,0.18097 -0.33112,0.40216 -0.35784,0.56723 -0.72329,1.07453 -0.79798,1.10773 -0.0349,0.0155 -0.0635,0.0662 -0.0635,0.11265 0,0.0464 -0.12989,0.28138 -0.28865,0.52211 -0.71936,1.09073 -1.92226,3.51148 -2.48938,5.00968 -0.14102,0.37253 -0.26897,0.75038 -0.28435,0.83965 -0.0308,0.17877 -0.11185,0.21507 -0.36662,0.16414 z"
         id="path1-9"
         clip-path="url(#clipPath2-5)"
         sodipodi:nodetypes="csssssssssssssssscscssscsscsssssssssssssssssscssscccssssscsssscssssssssssssssssssscssssssssssssssssssssssssssssssssssssssssssssssssssssssssssssssssssssssssssssssssscssssscccssscccssssssssssssssscsssssscssssssssssssssssssscccccsssssssssssssssssssccssccsssssssssssssssssssssssssscsssssssssssscssssssssscssssssssssssssssssssssssssssssssssssssssssssscssssssssssssssssssssssssssssssssssssssssssssssssssscccssssssssssssssssssssssssssssssssssssssssssssssssssssssssssssssssssssssssssccssssssssssssssssssssssssssssssssssssssscsssssssssssssssssssssssssscscsssssssssscssssscssssssssscssscccssscssssssssssssssssssscccsssssssssssssscsssssscccsssssssssssssssssssssssssssssssssssscssssssscssss"
         transform="matrix(-2.6414513,0,0,-2.6414513,631.47175,764.94501)" /><path
         style="fill:#1a1a1a;fill-opacity:1;stroke:none;stroke-width:0.330547;stroke-dasharray:none;stroke-opacity:1"
         d="m 194.69195,266.36459 c -0.11303,-0.21322 -0.25901,-0.48945 -0.32441,-0.61384 -0.0654,-0.12439 -0.1416,-0.24521 -0.16933,-0.26849 -0.0277,-0.0233 -0.12475,-0.19474 -0.21557,-0.381 -0.2704,-0.55453 -0.37123,-0.635 -0.79561,-0.635 -0.71484,0 -3.66609,-0.53719 -4.96592,-0.9039 -0.96262,-0.27157 -1.36868,-0.39835 -1.62146,-0.50624 -0.14674,-0.0626 -0.32336,-0.11386 -0.39249,-0.11386 -0.0691,0 -0.23482,-0.0569 -0.3682,-0.12648 -0.13339,-0.0696 -0.30157,-0.12672 -0.37375,-0.127 -0.0722,-2.9e-4 -0.16743,-0.031 -0.21167,-0.0683 -0.0442,-0.0373 -0.30903,-0.15513 -0.58843,-0.26192 -1.17401,-0.44874 -3.01289,-1.36423 -4.318,-2.14972 -1.34494,-0.80946 -1.40771,-0.84799 -1.51938,-0.93261 -0.0491,-0.0372 -0.35599,-0.25791 -0.68195,-0.49044 -0.32597,-0.23254 -0.65978,-0.47832 -0.7418,-0.54618 -0.082,-0.0679 -0.18363,-0.12338 -0.22578,-0.12338 -0.0422,0 -0.0893,-0.034 -0.10487,-0.0754 -0.0155,-0.0415 -0.2295,-0.23387 -0.47552,-0.42751 l -0.44729,-0.35207 -0.48404,0.12878 c -0.26622,0.0708 -0.57929,0.15101 -0.6957,0.17818 -0.11642,0.0272 -0.41247,0.1126 -0.6579,0.18985 l -0.44622,0.14046 -1.00493,-1.00231 c -1.1821,-1.17902 -1.14862,-1.0289 -0.6478,-2.90464 l 0.14054,-0.52637 -0.35207,-0.44729 c -0.19364,-0.24602 -0.38602,-0.46 -0.42751,-0.47552 -0.0415,-0.0155 -0.0755,-0.0611 -0.0755,-0.10139 0,-0.0618 -0.91274,-1.34683 -1.18331,-1.66598 -0.0477,-0.0562 -0.0867,-0.12446 -0.0867,-0.1516 0,-0.0715 -0.36946,-0.58768 -0.4445,-0.62103 -0.0349,-0.0155 -0.0635,-0.0649 -0.0635,-0.10969 0,-0.0448 -0.21923,-0.45121 -0.48719,-0.90311 -0.70092,-1.18209 -1.52939,-2.87527 -1.97624,-4.03898 -0.10729,-0.2794 -0.22556,-0.5442 -0.26282,-0.58843 -0.0373,-0.0442 -0.068,-0.13949 -0.0683,-0.21167 -2.8e-4,-0.0722 -0.0574,-0.24036 -0.127,-0.37375 -0.0696,-0.13338 -0.12648,-0.29401 -0.12648,-0.35696 0,-0.0629 -0.0525,-0.23956 -0.1167,-0.39248 -0.10787,-0.25699 -0.16869,-0.45377 -0.50459,-1.63271 -0.0663,-0.23283 -0.18622,-0.72813 -0.26642,-1.10067 -0.0802,-0.37253 -0.18448,-0.84878 -0.23174,-1.05833 -0.0473,-0.20955 -0.12216,-0.66675 -0.16646,-1.016 -0.52275,-4.12125 0.49748,4.00101 -0.23813,-1.84459 0,-0.36528 -0.0985,-0.48037 -0.635,-0.74198 -0.18626,-0.0908 -0.35771,-0.18783 -0.381,-0.21557 -0.0421,-0.0502 -0.14873,-0.10881 -0.88414,-0.48629 l -0.38586,-0.19805 v -1.50144 -1.50144 l 0.38767,-0.20551 c 0.21322,-0.11302 0.48945,-0.25901 0.61384,-0.32441 0.12439,-0.0654 0.24521,-0.14159 0.26849,-0.16933 0.0233,-0.0277 0.19474,-0.12474 0.381,-0.21557 0.582,-0.28379 0.635,-0.35944 0.635,-0.90632 v -0.49487 h 0.26962 c 0.14828,0 0.48166,0.0546 0.74083,0.12141 0.25917,0.0668 0.70424,0.16615 0.98905,0.22083 0.28481,0.0547 0.55586,0.12387 0.60233,0.15375 0.053,0.0341 0.0596,0.22777 0.0175,0.52001 -0.23197,2.44402 -0.34113,3.94653 0.0854,6.32969 0.21976,1.66895 0.61636,3.54577 0.97936,4.63464 0.0621,0.18627 0.13779,0.46205 0.1682,0.61286 0.0304,0.15081 0.0905,0.29593 0.13346,0.3225 0.043,0.0266 0.0781,0.12096 0.0781,0.20976 0,0.0888 0.0533,0.28659 0.11846,0.43951 0.0651,0.15292 0.18296,0.44949 0.2618,0.65904 0.0788,0.20955 0.19467,0.4953 0.25741,0.635 0.0627,0.1397 0.19625,0.4445 0.29671,0.67733 0.22818,0.52883 0.84666,1.76503 1.08017,2.159 0.0966,0.16298 0.25841,0.44873 0.35957,0.635 0.10117,0.18627 0.29418,0.5025 0.42891,0.70274 0.13474,0.20025 0.24497,0.38526 0.24497,0.41115 0,0.0259 0.1143,0.19139 0.254,0.36778 0.1397,0.17638 0.254,0.36284 0.254,0.41435 0,0.0515 0.0286,0.0937 0.0635,0.0938 0.0349,8e-5 0.17178,0.17153 0.30411,0.381 0.13234,0.20946 0.27521,0.38085 0.3175,0.38085 0.0423,0 0.0769,0.054 0.0769,0.11994 0,0.066 0.0298,0.13264 0.0661,0.14817 0.0364,0.0155 0.2359,0.24729 0.44338,0.51505 0.20749,0.26776 0.40632,0.48684 0.44186,0.48684 0.0355,0 0.0646,0.0353 0.0646,0.0786 0,0.13789 1.23348,1.41275 2.89354,2.9906 0.13473,0.12806 0.27858,0.23284 0.31966,0.23284 0.0411,0 0.0874,0.0337 0.10291,0.0748 0.0452,0.11985 1.05963,0.94117 1.16246,0.94117 0.0514,0 0.0934,0.0346 0.0934,0.0769 0,0.0423 0.17139,0.18516 0.38085,0.3175 0.20947,0.13233 0.38092,0.26918 0.381,0.30411 9e-5,0.0349 0.0423,0.0635 0.0938,0.0635 0.0515,0 0.23249,0.10797 0.40217,0.23993 0.16968,0.13196 0.36567,0.26681 0.43552,0.29965 0.13933,0.0655 0.2939,0.1586 0.80433,0.48433 0.18627,0.11887 0.39582,0.24224 0.46567,0.27417 0.0698,0.0319 0.26035,0.13926 0.42333,0.23852 0.37272,0.22701 1.60051,0.84404 2.159,1.08501 0.23283,0.10047 0.53763,0.23399 0.67733,0.29672 0.1397,0.0627 0.42545,0.17857 0.635,0.25741 0.20955,0.0788 0.50612,0.19665 0.65904,0.2618 0.15292,0.0652 0.3507,0.11846 0.43951,0.11846 0.0888,0 0.1832,0.0352 0.20976,0.0781 0.0266,0.043 0.17169,0.10304 0.3225,0.13346 0.15081,0.0304 0.42659,0.10611 0.61286,0.1682 0.74349,0.24786 1.9568,0.53625 3.175,0.75467 1.73725,0.31147 2.7592,0.39159 4.99533,0.39159 2.23614,0 3.25809,-0.0801 4.99534,-0.39159 1.2182,-0.21842 2.43151,-0.50681 3.175,-0.75467 0.18626,-0.0621 0.46205,-0.13779 0.61286,-0.1682 0.15081,-0.0304 0.29593,-0.0905 0.3225,-0.13346 0.0266,-0.043 0.12096,-0.0781 0.20976,-0.0781 0.0888,0 0.28658,-0.0533 0.4395,-0.11846 0.15293,-0.0652 0.44949,-0.18296 0.65904,-0.2618 0.20955,-0.0788 0.4953,-0.19467 0.635,-0.25741 0.1397,-0.0627 0.4445,-0.19625 0.67734,-0.29672 0.52882,-0.22817 1.76503,-0.84665 2.159,-1.08016 0.16298,-0.0966 0.43799,-0.2531 0.61113,-0.34778 0.17314,-0.0947 0.47794,-0.27739 0.67734,-0.40601 0.48981,-0.31598 0.66693,-0.42402 0.89169,-0.5439 0.10478,-0.0559 0.1905,-0.1336 0.1905,-0.17269 0,-0.0391 0.0571,-0.0711 0.127,-0.0711 0.0698,0 0.12707,-0.0286 0.12716,-0.0635 8e-5,-0.0349 0.17153,-0.17178 0.381,-0.30411 0.20946,-0.13234 0.38084,-0.27521 0.38084,-0.3175 0,-0.0423 0.0572,-0.0769 0.127,-0.0769 0.0699,0 0.127,-0.0299 0.127,-0.0664 0,-0.0365 0.10478,-0.12999 0.23284,-0.2077 0.12806,-0.0777 0.37783,-0.27642 0.55504,-0.44159 0.17722,-0.16516 0.34045,-0.30029 0.36273,-0.30029 0.0589,0 1.30872,-1.20325 2.05775,-1.98105 1.02146,-1.06068 1.10964,-1.15543 1.10964,-1.19216 0,-0.0191 0.13514,-0.1797 0.3003,-0.35692 0.16517,-0.17721 0.36388,-0.42698 0.44159,-0.55504 0.0777,-0.12806 0.17118,-0.23283 0.2077,-0.23283 0.0365,0 0.0664,-0.0571 0.0664,-0.127 0,-0.0698 0.0346,-0.127 0.0769,-0.127 0.0423,0 0.18516,-0.17139 0.3175,-0.38085 0.13233,-0.20947 0.26918,-0.38092 0.3041,-0.381 0.0349,-9e-5 0.0635,-0.0423 0.0635,-0.0938 0,-0.0515 0.1143,-0.23797 0.254,-0.41435 0.1397,-0.17639 0.254,-0.34189 0.254,-0.36778 0,-0.0259 0.11024,-0.2109 0.24498,-0.41115 0.13473,-0.20024 0.32774,-0.51647 0.4289,-0.70274 0.10117,-0.18627 0.26298,-0.47202 0.35958,-0.635 0.2335,-0.39397 0.85199,-1.63017 1.08016,-2.159 0.10046,-0.23283 0.23399,-0.53763 0.29672,-0.67733 0.0627,-0.1397 0.17857,-0.42545 0.25741,-0.635 0.0788,-0.20955 0.19665,-0.50612 0.2618,-0.65904 0.0652,-0.15292 0.11845,-0.3507 0.11845,-0.43951 0,-0.0888 0.0352,-0.1832 0.0782,-0.20976 0.043,-0.0266 0.10304,-0.17169 0.13345,-0.3225 0.0304,-0.15081 0.10611,-0.42659 0.16821,-0.61286 1.15558,-3.19301 1.31135,-6.57843 1.14418,-9.13664 0,-1.28764 -0.10267,-2.34619 -0.3908,-4.02903 -0.23357,-1.36422 -0.71797,-3.25235 -1.01619,-3.96104 -0.0644,-0.15292 -0.11701,-0.3326 -0.11701,-0.39929 0,-0.0667 -0.0533,-0.24637 -0.11845,-0.39929 -0.0651,-0.15293 -0.18524,-0.44949 -0.26687,-0.65904 -0.2458,-0.63099 -0.39865,-0.97629 -0.85327,-1.92762 -0.45021,-0.94208 -0.46377,-1.12158 -0.0845,-1.1193 0.16497,0.001 0.78457,-0.12409 1.8697,-0.37745 l 0.41956,-0.098 0.28466,0.597 c 0.39105,0.82011 0.48172,1.02742 0.70555,1.61299 0.10679,0.2794 0.22466,0.5442 0.26192,0.58844 0.0373,0.0442 0.0677,0.16078 0.0677,0.25898 0,0.0982 0.0559,0.25251 0.12431,0.3429 0.0684,0.0904 0.12552,0.22973 0.127,0.30964 10e-4,0.0799 0.0552,0.27042 0.1194,0.42334 0.49468,1.17852 1.41305,5.50494 1.40864,6.63608 -10e-4,0.38331 0.0904,0.49325 0.63365,0.75815 0.18627,0.0908 0.35772,0.18783 0.381,0.21557 0.0421,0.0502 0.14873,0.10882 0.88415,0.48629 l 0.38585,0.19805 v 1.5089 1.50889 l -0.38585,0.19805 c -0.73542,0.37748 -0.84202,0.43611 -0.88415,0.48629 -0.0233,0.0277 -0.19473,0.12475 -0.381,0.21557 -0.55452,0.2704 -0.635,0.37123 -0.635,0.79561 0,0.71484 -0.53718,3.66609 -0.90389,4.96592 -0.30991,1.0985 -0.39497,1.37439 -0.5034,1.63271 -0.0642,0.15292 -0.11671,0.32954 -0.11671,0.39248 0,0.063 -0.0569,0.22358 -0.12647,0.35696 -0.0696,0.13339 -0.12672,0.30157 -0.127,0.37375 -2.9e-4,0.0722 -0.031,0.16743 -0.0683,0.21167 -0.0373,0.0442 -0.15513,0.30903 -0.26192,0.58843 -0.39969,1.04568 -1.33404,2.9544 -1.97714,4.03898 -0.26796,0.4519 -0.4872,0.8583 -0.4872,0.90311 0,0.0448 -0.0286,0.0942 -0.0635,0.10969 -0.075,0.0333 -0.4445,0.54954 -0.4445,0.62103 0,0.0271 -0.039,0.0954 -0.0867,0.1516 -0.16929,0.19969 -1.18331,1.59336 -1.18331,1.62634 0,0.0184 -0.09,0.13063 -0.19998,0.24931 -0.10999,0.11868 -0.29881,0.35877 -0.4196,0.53353 -0.24311,0.35173 -0.24601,0.31095 0.11268,1.58774 0.10465,0.37254 0.20629,0.75354 0.22586,0.84667 0.0266,0.12675 -0.23047,0.434 -1.02242,1.22181 l -1.05802,1.05248 -0.44909,-0.13825 c -0.5117,-0.15752 -1.27292,-0.36946 -1.60634,-0.44723 -0.18113,-0.0423 -0.31539,0.0177 -0.67733,0.30264 -0.24828,0.19543 -0.46412,0.38928 -0.47965,0.43077 -0.0155,0.0415 -0.0611,0.0754 -0.10138,0.0754 -0.0403,0 -0.40855,0.24673 -0.81845,0.54831 -0.4099,0.30157 -0.78546,0.57779 -0.83456,0.61383 -0.12968,0.0952 -0.29798,0.1984 -1.51938,0.93205 -1.30764,0.78544 -3.14749,1.70074 -4.318,2.14814 -0.2794,0.10679 -0.5442,0.22466 -0.58844,0.26192 -0.0442,0.0373 -0.13948,0.068 -0.21166,0.0683 -0.0722,2.8e-4 -0.24037,0.0574 -0.37375,0.127 -0.13338,0.0696 -0.29401,0.12648 -0.35696,0.12648 -0.063,0 -0.23957,0.0525 -0.39249,0.1167 -0.25831,0.10843 -0.5342,0.19349 -1.6327,0.5034 -1.29983,0.36671 -4.25108,0.9039 -4.96592,0.9039 -0.42438,0 -0.52521,0.0805 -0.79561,0.635 -0.0908,0.18626 -0.18783,0.35771 -0.21557,0.381 -0.0502,0.0421 -0.10882,0.14873 -0.48629,0.88414 l -0.19805,0.38586 h -1.50144 -1.50144 z m -1.09446,-6.60288 c -1.54671,-0.19105 -3.0528,-0.47387 -4.10633,-0.77109 -1.4271,-0.40261 -1.39624,-0.39226 -3.048,-1.02239 -0.43892,-0.16745 -1.29551,-0.55967 -1.98967,-0.91104 -1.05837,-0.53574 -1.48199,-0.7614 -1.524,-0.81183 -0.0233,-0.028 -0.13758,-0.10075 -0.254,-0.16177 -0.65791,-0.34483 -2.794,-1.84539 -2.794,-1.96274 0,-0.0376 -0.0571,-0.0683 -0.127,-0.0683 -0.0698,0 -0.127,-0.0317 -0.127,-0.0703 0,-0.0387 -0.1748,-0.19585 -0.38845,-0.34928 -0.51567,-0.37033 -2.88129,-2.73279 -3.24656,-3.24224 -0.1586,-0.22119 -0.32,-0.40216 -0.35867,-0.40216 -0.0387,0 -0.0703,-0.0571 -0.0703,-0.127 0,-0.0698 -0.0308,-0.127 -0.0683,-0.127 -0.11735,0 -1.61791,-2.13609 -1.96274,-2.794 -0.061,-0.11642 -0.13381,-0.23072 -0.16177,-0.254 -0.09,-0.075 -0.90869,-1.67585 -1.34222,-2.62467 -0.24486,-0.5359 -0.43592,-1.00448 -0.65594,-1.60867 -0.0593,-0.16298 -0.16429,-0.44873 -0.23321,-0.635 -0.11807,-0.3191 -0.23347,-0.69935 -0.51389,-1.69333 -0.44055,-1.56157 -0.81021,-3.92016 -0.85278,-5.44113 l -0.0766,-1.53381 0.0544,-1.16898 c 0.0688,-1.47955 0.10376,-1.64347 0.34067,-1.59929 0.33724,0.0629 1.53366,0.32023 1.89529,0.40766 l 1.63256,0.36127 c 0.20807,0.0276 0.60691,0.10242 0.88631,0.16622 0.2794,0.0638 0.8128,0.17859 1.18533,0.25509 0.37254,0.0765 0.82974,0.17644 1.016,0.22211 0.18627,0.0457 0.52917,0.11476 0.762,0.15354 0.23284,0.0388 0.59479,0.11173 0.80434,0.16212 0.20955,0.0504 0.6858,0.15469 1.05833,0.23179 0.37253,0.0771 0.90593,0.19026 1.18533,0.25147 0.2794,0.0612 0.8128,0.1748 1.18534,0.25243 0.37253,0.0776 0.90593,0.19161 1.18533,0.2533 0.2794,0.0617 0.8128,0.17433 1.18533,0.25031 0.37254,0.076 0.82974,0.1789 1.016,0.2287 0.18627,0.0498 0.52917,0.11906 0.762,0.15391 0.23284,0.0348 0.59479,0.10432 0.80434,0.15438 0.46286,0.11057 1.32832,0.29708 3.47133,0.74806 0.34925,0.0735 0.8636,0.18318 1.143,0.24375 1.05383,0.22846 1.71424,0.3689 2.37067,0.50413 0.37253,0.0767 0.84878,0.17952 1.05833,0.22838 0.20955,0.0489 0.65947,0.13898 0.99981,0.20024 0.52767,0.095 0.67295,0.16128 0.98636,0.45017 0.87397,0.80561 2.40302,1.17968 3.5595,0.87083 0.51427,-0.13735 1.22766,-0.45107 1.22766,-0.53988 0,-0.0356 0.0368,-0.0647 0.0818,-0.0647 0.17471,0 0.67039,-0.60157 0.92308,-1.12028 0.20124,-0.41307 0.26507,-0.65898 0.26507,-1.02111 0,-0.85588 -0.47962,-1.75236 -1.25776,-2.35094 -0.91922,-0.7071 -2.46209,-1.03448 -3.35657,-0.71223 -0.42583,0.15341 -0.62977,0.15452 -1.12709,0.006 -0.37313,-0.11133 -0.69856,-0.19727 -1.98441,-0.52405 -0.29104,-0.074 -0.71967,-0.18407 -0.9525,-0.24467 -0.78896,-0.20536 -1.47986,-0.3824 -1.98967,-0.50985 -0.2794,-0.0699 -0.7366,-0.18415 -1.016,-0.254 -0.2794,-0.0699 -0.74612,-0.18704 -1.03716,-0.26041 -0.29104,-0.0734 -0.75777,-0.19104 -1.03717,-0.26148 -0.2794,-0.0704 -0.6985,-0.17766 -0.93133,-0.23826 -0.62349,-0.16229 -1.411,-0.36489 -2.01084,-0.51733 -0.29104,-0.074 -0.71966,-0.18407 -0.9525,-0.24467 -1.07686,-0.2803 -1.56145,-0.40507 -2.032,-0.52323 -0.2794,-0.0702 -0.69335,-0.18157 -0.91989,-0.24759 -0.22653,-0.066 -0.46907,-0.12003 -0.53897,-0.12003 -0.0699,0 -0.30364,-0.0554 -0.51944,-0.12302 -0.2158,-0.0677 -0.63049,-0.18196 -0.92153,-0.254 -0.29104,-0.072 -0.75777,-0.18813 -1.03717,-0.25798 -0.2794,-0.0699 -0.72707,-0.18127 -0.99483,-0.24759 -0.51867,-0.12848 -1.31815,-0.33227 -2.01083,-0.51256 -0.78506,-0.20434 -1.47878,-0.38213 -2.01084,-0.51534 -0.29104,-0.0729 -0.64546,-0.16786 -0.78761,-0.2111 -0.14214,-0.0432 -0.42789,-0.11497 -0.635,-0.1594 -0.64618,-0.13865 -1.33242,-0.32269 -1.43148,-0.38391 -0.12269,-0.0758 -0.0997,-0.15934 0.39049,-1.42027 0.15872,-0.40828 0.84126,-1.90287 0.95695,-2.0955 0.0419,-0.0699 0.2217,-0.41275 0.39944,-0.762 0.17774,-0.34925 0.34411,-0.65405 0.36972,-0.67733 0.0256,-0.0233 0.12444,-0.17699 0.21963,-0.34156 0.36713,-0.63469 1.0847,-1.69044 1.14895,-1.69044 0.0371,0 0.0674,-0.054 0.0674,-0.11995 0,-0.066 0.0286,-0.13264 0.0635,-0.14816 0.0349,-0.0155 0.17346,-0.19015 0.30785,-0.38806 0.13439,-0.19791 0.27727,-0.35983 0.3175,-0.35983 0.0402,0 0.0731,-0.054 0.0731,-0.11995 0,-0.066 0.0328,-0.13264 0.0728,-0.14816 0.0401,-0.0155 0.2963,-0.29493 0.56944,-0.62089 0.63723,-0.7605 2.02622,-2.14949 2.78672,-2.78673 0.32597,-0.27313 0.60537,-0.52938 0.62089,-0.56944 0.0155,-0.0401 0.0822,-0.0728 0.14817,-0.0728 0.066,0 0.11994,-0.0308 0.11994,-0.0683 0,-0.11734 2.13609,-1.6179 2.794,-1.96274 0.11642,-0.061 0.23072,-0.13381 0.254,-0.16176 0.0689,-0.0827 1.74708,-0.94078 2.62467,-1.34204 0.60538,-0.2768 1.13304,-0.48623 2.26483,-0.89888 0.46447,-0.16935 1.24234,-0.39249 2.52794,-0.72515 0.64237,-0.16623 1.75924,-0.35025 3.12356,-0.51466 3.95277,-0.47633 8.42175,0.0664 12.1285,1.47302 0.87355,0.33148 1.11163,0.42872 1.62984,0.66567 0.87758,0.40126 2.55581,1.25937 2.62466,1.34204 0.0233,0.028 0.13759,0.10074 0.254,0.16176 0.65792,0.34484 2.794,1.8454 2.794,1.96274 0,0.0376 0.054,0.0683 0.11995,0.0683 0.066,0 0.13264,0.0328 0.14816,0.0728 0.0155,0.0401 0.29493,0.29604 0.62089,0.56885 0.32597,0.27282 0.96812,0.87083 1.427,1.32891 0.81057,0.80917 0.83007,0.8376 0.68472,0.99821 -0.0823,0.0909 -0.30534,0.20597 -0.49567,0.25565 -0.19032,0.0497 -0.57465,0.14879 -0.85405,0.22026 -0.2794,0.0715 -0.6985,0.17953 -0.93133,0.24014 -0.63257,0.16465 -1.87251,0.47909 -3.048,0.77297 -0.2794,0.0699 -0.7366,0.18415 -1.016,0.254 -0.58591,0.14647 -1.33961,0.33885 -1.94733,0.49703 -0.23284,0.0606 -0.65194,0.16782 -0.93134,0.23826 -0.47251,0.11912 -0.98406,0.25097 -2.032,0.52374 -0.39581,0.10302 -0.77259,0.19979 -2.032,0.52189 -0.2794,0.0714 -0.6985,0.1795 -0.93133,0.24011 -0.69268,0.18029 -1.49217,0.38408 -2.01083,0.51256 -0.26776,0.0663 -0.71544,0.17774 -0.99484,0.24759 -0.2794,0.0699 -0.7366,0.18415 -1.016,0.254 -0.94893,0.23723 -1.56526,0.39935 -2.01083,0.52892 -0.40796,0.11863 -0.48339,0.11703 -0.91762,-0.0196 -0.5907,-0.18579 -1.63377,-0.13965 -2.33908,0.10348 -0.66669,0.22981 -1.38264,0.74191 -1.77188,1.26738 -0.17962,0.24248 -0.32659,0.47625 -0.32659,0.51948 0,0.0432 -0.0569,0.18774 -0.12647,0.32112 -0.28967,0.55541 -0.0833,1.66584 0.44791,2.40957 0.51804,0.72536 1.73252,1.26194 2.85627,1.26194 0.75303,0 2.15629,-0.3963 2.15629,-0.60896 0,-0.0376 0.046,-0.0684 0.10227,-0.0684 0.0562,0 0.23722,-0.13125 0.40216,-0.29166 0.30542,-0.29701 0.36309,-0.31686 1.73924,-0.59848 0.37253,-0.0762 0.90593,-0.18868 1.18533,-0.24989 0.2794,-0.0612 0.8128,-0.17551 1.18534,-0.254 0.37253,-0.0785 0.90593,-0.19443 1.18533,-0.25763 0.2794,-0.0632 0.6223,-0.13481 0.762,-0.15914 0.1397,-0.0243 0.61595,-0.12651 1.05833,-0.22709 0.44239,-0.10057 0.97579,-0.21128 1.18534,-0.24603 0.20955,-0.0348 0.55245,-0.10423 0.762,-0.1544 0.20955,-0.0502 0.6858,-0.15429 1.05833,-0.23139 0.37253,-0.0771 0.90593,-0.19089 1.18533,-0.25287 0.2794,-0.062 0.8128,-0.17661 1.18534,-0.25474 1.49619,-0.31382 1.80004,-0.37883 2.32833,-0.4982 0.30268,-0.0684 0.75121,-0.15071 0.99673,-0.18291 0.24552,-0.0322 0.46685,-0.0916 0.49183,-0.13207 0.025,-0.0404 0.14171,-0.0735 0.25937,-0.0735 0.11767,0 0.4488,-0.0561 0.73584,-0.12466 0.28704,-0.0686 0.7886,-0.17961 1.11456,-0.24677 1.15666,-0.23833 1.95392,-0.40616 2.45534,-0.51687 0.2794,-0.0617 0.79375,-0.17176 1.143,-0.2446 0.34925,-0.0728 0.83719,-0.1759 1.08431,-0.22903 0.52533,-0.11295 0.50154,-0.13271 0.96738,0.8039 0.63478,1.27628 0.88884,1.87443 1.45074,3.41553 0.34839,0.95553 0.78389,2.68179 1.01993,4.04283 0.60029,3.46132 0.52002,6.65932 -0.26032,10.37167 -0.22919,1.09036 -0.59232,2.31725 -1.00238,3.38666 -0.0804,0.20955 -0.20422,0.5334 -0.27528,0.71967 -0.33418,0.87598 -1.56171,3.37943 -1.72287,3.51367 -0.028,0.0233 -0.10075,0.13758 -0.16177,0.254 -0.34483,0.65791 -1.8454,2.794 -1.96274,2.794 -0.0376,0 -0.0683,0.0572 -0.0683,0.127 0,0.0699 -0.0316,0.127 -0.0703,0.127 -0.0387,0 -0.20024,0.18092 -0.35904,0.40205 -0.37422,0.52108 -2.71151,2.85837 -3.2326,3.23259 -0.22112,0.1588 -0.40205,0.32037 -0.40205,0.35904 0,0.0387 -0.0571,0.0703 -0.127,0.0703 -0.0698,0 -0.127,0.0308 -0.127,0.0683 0,0.11735 -2.13608,1.61791 -2.794,1.96274 -0.11641,0.061 -0.23071,0.13381 -0.254,0.16177 -0.0233,0.0279 -0.25188,0.15937 -0.508,0.29204 -1.79616,0.93041 -2.52053,1.26213 -3.7465,1.71566 -0.95574,0.35357 -1.02844,0.37681 -2.30716,0.73756 -1.09414,0.30868 -2.63841,0.59488 -4.10634,0.76102 -1.35423,0.15328 -4.38439,0.15874 -5.588,0.0101 z m 4.7625,-24.14791 c -0.56097,-0.20103 -0.85711,-0.94501 -1.68579,-1.07517 -0.17877,-0.0281 -0.53459,-0.10351 -0.79071,-0.16761 -0.25611,-0.0641 -0.77046,-0.17872 -1.143,-0.25469 -0.37253,-0.076 -0.94403,-0.19463 -1.27,-0.26368 -0.32596,-0.0691 -0.87841,-0.1857 -1.22766,-0.25919 -0.34925,-0.0735 -0.8636,-0.18319 -1.143,-0.24376 -0.89813,-0.1947 -1.67665,-0.36109 -2.37067,-0.50666 -0.37253,-0.0781 -0.90593,-0.19254 -1.18533,-0.25423 -0.2794,-0.0617 -0.8128,-0.17474 -1.18534,-0.25123 -0.37253,-0.0765 -0.82973,-0.17644 -1.016,-0.22211 -0.18626,-0.0457 -0.52916,-0.11477 -0.762,-0.15355 -0.23283,-0.0388 -0.59478,-0.11173 -0.80433,-0.16211 -0.20955,-0.0504 -0.6858,-0.15469 -1.05833,-0.2318 -0.37254,-0.0771 -0.90594,-0.19026 -1.18534,-0.25147 -0.2794,-0.0612 -0.8128,-0.17479 -1.18533,-0.25242 -0.37253,-0.0776 -0.90593,-0.19162 -1.18533,-0.25331 -0.2794,-0.0617 -0.8128,-0.17545 -1.18534,-0.25281 -5.0147,-1.0419 -2.24389,-0.48325 -6.01133,-1.274 -0.37253,-0.0782 -0.90593,-0.19224 -1.18533,-0.25345 -0.2794,-0.0612 -0.8128,-0.17517 -1.18534,-0.25326 -0.37253,-0.0781 -0.88938,-0.19526 -1.14855,-0.26037 -0.25917,-0.0651 -0.56062,-0.11839 -0.66989,-0.11839 -0.10927,0 -0.39252,-0.0544 -0.62945,-0.12087 -0.23692,-0.0665 -0.73557,-0.18264 -1.10811,-0.25815 -0.37253,-0.0755 -0.94403,-0.1938 -1.27,-0.26285 -0.32596,-0.0691 -0.87841,-0.18569 -1.22766,-0.25919 -0.34925,-0.0735 -0.8636,-0.18371 -1.143,-0.24492 -0.2794,-0.0612 -0.8128,-0.1755 -1.18534,-0.254 -0.37253,-0.0785 -0.90593,-0.19216 -1.18533,-0.2526 -0.2794,-0.0604 -0.79375,-0.16931 -1.143,-0.24194 -0.34925,-0.0726 -0.9017,-0.18889 -1.22767,-0.25836 -0.32596,-0.0695 -0.87841,-0.18631 -1.22766,-0.25965 -0.34925,-0.0733 -0.88265,-0.18589 -1.18534,-0.25011 -0.30268,-0.0642 -0.85513,-0.1807 -1.22766,-0.25884 -1.00051,-0.20985 -1.34252,-0.30343 -1.4605,-0.39963 -0.16616,-0.13548 -0.13122,-1.29073 0.057,-1.88589 0.16616,-0.52529 0.27902,-0.76556 0.54684,-1.16417 0.18266,-0.27186 0.54433,-0.30789 1.15904,-0.11548 0.37779,0.11825 1.06459,0.30166 1.96242,0.52406 0.6198,0.15352 1.3583,0.33815 2.032,0.508 0.29104,0.0734 0.75777,0.19104 1.03717,0.26148 0.2794,0.0704 0.6985,0.17766 0.93133,0.23826 0.23283,0.0606 0.67098,0.17467 0.97367,0.25349 0.30268,0.0788 0.73568,0.19731 0.96222,0.26333 0.22654,0.066 0.46703,0.12003 0.53442,0.12003 0.0674,0 0.30115,0.0533 0.51945,0.11842 0.37313,0.11133 0.69856,0.19727 1.98441,0.52406 0.29104,0.074 0.71966,0.18407 0.9525,0.24467 1.13979,0.29667 1.56315,0.40536 2.01083,0.51626 0.26776,0.0663 0.71543,0.17774 0.99483,0.24759 0.2794,0.0699 0.7366,0.18415 1.016,0.254 0.68734,0.17183 1.4779,0.37294 1.98967,0.50615 1.04793,0.27276 1.55949,0.40461 2.032,0.52374 0.2794,0.0704 0.6985,0.17766 0.93133,0.23826 0.52907,0.13771 1.27447,0.3284 1.98967,0.509 0.30268,0.0764 0.74083,0.18862 0.97367,0.2493 0.98268,0.2561 1.46825,0.38096 1.94733,0.50073 0.56195,0.14049 1.29023,0.32392 2.0955,0.52779 0.29104,0.0737 0.71452,0.18798 0.94106,0.254 0.22654,0.066 0.46703,0.12003 0.53442,0.12003 0.0674,0 0.30115,0.0533 0.51945,0.11842 0.37312,0.11133 0.69855,0.19727 1.9844,0.52406 0.29105,0.074 0.71967,0.18406 0.9525,0.24467 0.23284,0.0606 0.65194,0.16865 0.93134,0.24011 1.2594,0.32209 1.63619,0.41886 2.032,0.52189 1.10328,0.28717 1.563,0.40541 2.032,0.52266 0.2794,0.0699 0.7366,0.18415 1.016,0.254 0.2794,0.0699 0.7366,0.18415 1.016,0.254 0.72759,0.1819 1.4588,0.36646 1.94733,0.49151 1.67923,0.42985 1.66136,0.42745 1.97426,0.26564 0.386,-0.1996 1.49575,-0.18258 1.97314,0.0303 0.66846,0.29804 1.17525,0.93291 1.17462,1.47146 -3.3e-4,0.27774 -0.25714,0.77693 -0.49724,0.96652 -0.0756,0.0597 -0.29728,0.18419 -0.49263,0.27666 -0.44113,0.2088 -1.3472,0.21724 -1.86732,0.0174 -1e-5,-1e-5 3e-5,-3e-5 3e-5,-3e-5 z m -5.82083,-10.69596 c -0.18627,-0.0991 -0.4094,-0.24227 -0.49584,-0.31822 -0.22165,-0.19473 -0.47783,-0.72523 -0.47783,-0.98949 0,-0.45924 0.51771,-1.09372 1.143,-1.40082 0.43766,-0.21495 1.59488,-0.23794 1.97898,-0.0393 0.31568,0.16324 0.43248,0.16457 0.97692,0.0111 0.41115,-0.11591 0.84228,-0.22646 2.01827,-0.51754 0.29104,-0.072 0.70573,-0.18634 0.92153,-0.254 0.2158,-0.0677 0.44955,-0.12302 0.51944,-0.12302 0.0699,0 0.31244,-0.054 0.53897,-0.12003 0.22654,-0.066 0.64049,-0.17744 0.91989,-0.2476 0.2794,-0.0702 0.75565,-0.19259 1.05834,-0.27207 1.00516,-0.26396 1.39212,-0.36396 1.92616,-0.49774 0.53334,-0.13361 1.23062,-0.31233 2.01084,-0.51541 0.43299,-0.1127 1.04611,-0.26803 1.94733,-0.49333 0.2794,-0.0699 0.7366,-0.18415 1.016,-0.254 1.2096,-0.30241 1.98475,-0.49992 3.048,-0.77667 0.23283,-0.0606 0.65193,-0.16782 0.93133,-0.23826 3.70695,-0.777 7.34168,-1.8567 11.00667,-2.80977 0.23283,-0.0606 0.65193,-0.16782 0.93133,-0.23826 0.47252,-0.11913 0.98407,-0.25098 2.032,-0.52374 0.39582,-0.10303 0.7726,-0.1998 2.032,-0.52189 0.2794,-0.0715 0.6985,-0.17951 0.93134,-0.24011 0.23283,-0.0606 0.65193,-0.16782 0.93133,-0.23826 0.2794,-0.0704 0.75565,-0.19099 1.05833,-0.26789 0.70065,-0.17801 1.43915,-0.36263 2.032,-0.508 0.4271,-0.10473 0.82119,-0.20571 1.98967,-0.50985 0.4481,-0.11663 1.08463,-0.27779 1.98967,-0.50372 0.30268,-0.0756 0.72689,-0.19275 0.94269,-0.26041 0.54688,-0.17147 1.02092,-0.15894 1.18379,0.0313 0.44215,0.51639 0.76666,1.59857 0.73457,2.44969 l -0.0247,0.65567 -0.46567,0.14275 c -0.25611,0.0785 -0.77046,0.20521 -1.143,0.28154 -0.37253,0.0763 -0.90593,0.18887 -1.18533,0.25008 -0.4725,0.1035 -0.82394,0.17808 -2.37067,0.50307 -0.32596,0.0685 -0.87841,0.18523 -1.22766,0.25942 -0.34925,0.0742 -0.92075,0.19433 -1.27,0.26696 -0.34925,0.0726 -0.8636,0.18151 -1.143,0.24194 -0.2794,0.0604 -0.8128,0.17411 -1.18534,0.25261 -0.37253,0.0785 -0.90593,0.19279 -1.18533,0.254 -0.2794,0.0612 -0.79375,0.17141 -1.143,0.24491 -0.34925,0.0735 -0.92075,0.19434 -1.27,0.26853 -0.79194,0.16824 -1.63189,0.34477 -2.45533,0.51601 -0.34925,0.0726 -0.8636,0.18151 -1.143,0.24194 -0.2794,0.0604 -0.8128,0.17453 -1.18534,0.25353 -1.11852,0.23721 -1.83452,0.3918 -2.37066,0.51186 -0.2794,0.0626 -0.6223,0.13366 -0.762,0.15798 -0.1397,0.0243 -0.61595,0.12652 -1.05834,0.22709 -0.44238,0.10057 -0.97578,0.21129 -1.18533,0.24604 -0.20955,0.0348 -0.55245,0.10423 -0.762,0.15439 -0.20955,0.0502 -0.6858,0.15358 -1.05833,0.22982 -0.37254,0.0762 -0.90594,0.18932 -1.18534,0.25129 -0.2794,0.062 -0.8128,0.17691 -1.18533,0.2554 -0.37253,0.0785 -0.90593,0.19217 -1.18533,0.2526 -0.54542,0.11798 -1.50039,0.32095 -2.45534,0.52186 -0.32596,0.0686 -0.76411,0.16479 -0.97366,0.21379 -0.20955,0.049 -0.6477,0.14025 -0.97367,0.20277 -0.32597,0.0625 -0.85937,0.17401 -1.18533,0.24777 -0.32597,0.0737 -0.70697,0.15428 -0.84667,0.17896 -0.1397,0.0247 -0.4826,0.0959 -0.762,0.15837 -0.2794,0.0624 -0.8128,0.17745 -1.18533,0.25558 -0.69402,0.14557 -1.47255,0.31196 -2.37067,0.50666 -0.2794,0.0606 -0.79375,0.17026 -1.143,0.24376 -0.34925,0.0735 -0.9017,0.19013 -1.22767,0.25919 -0.32596,0.0691 -0.89746,0.18769 -1.27,0.26364 -1.19173,0.24294 -1.27902,0.2768 -1.48369,0.5755 -0.10614,0.1549 -0.27292,0.32293 -0.37064,0.37341 -0.66707,0.3446 -0.82117,0.39037 -1.40533,0.41739 -0.5225,0.0242 -0.695,-0.003 -0.97367,-0.15076 z m -23.70667,-0.80719 c -0.22388,-0.0448 -1.07744,-0.26483 -1.6161,-0.41668 -0.23693,-0.0668 -0.48822,-0.12144 -0.55842,-0.12144 -0.10863,0 -0.11347,-0.0536 -0.0325,-0.35984 0.0523,-0.1979 0.14167,-0.44305 0.19858,-0.54476 0.0569,-0.10172 0.10348,-0.25602 0.10348,-0.3429 0,-0.0869 0.0305,-0.19416 0.0677,-0.2384 0.0373,-0.0442 0.15512,-0.30904 0.26192,-0.58844 0.39969,-1.04567 1.33404,-2.9544 1.97714,-4.03897 0.26796,-0.45191 0.48719,-0.85831 0.48719,-0.90312 0,-0.0448 0.0286,-0.0942 0.0635,-0.10968 0.075,-0.0333 0.4445,-0.54955 0.4445,-0.62104 0,-0.0271 0.04,-0.0953 0.0888,-0.15159 0.0488,-0.0563 0.27908,-0.36896 0.51161,-0.69493 0.23254,-0.32597 0.47832,-0.65978 0.54618,-0.7418 0.0679,-0.082 0.12338,-0.18362 0.12338,-0.22578 0,-0.0421 0.0364,-0.0893 0.0809,-0.10486 0.0445,-0.0155 0.23423,-0.23413 0.42167,-0.48579 0.26304,-0.35316 0.32957,-0.5077 0.2916,-0.67733 -0.0752,-0.33583 -0.28267,-1.10001 -0.43469,-1.60083 l -0.13651,-0.44972 1.07111,-1.07112 1.07111,-1.07111 0.32025,0.11691 c 0.17614,0.0643 0.4536,0.1443 0.61658,0.17779 0.16299,0.0335 0.5332,0.12421 0.82271,0.20161 l 0.52637,0.14072 0.44729,-0.35207 c 0.24602,-0.19363 0.46,-0.38601 0.47552,-0.42751 0.0155,-0.0415 0.0611,-0.0754 0.10139,-0.0754 0.0402,0 0.40854,-0.24674 0.81845,-0.54831 0.4099,-0.30157 0.78545,-0.5778 0.83456,-0.61383 0.11455,-0.0841 0.20026,-0.13655 1.51938,-0.93048 0.929,-0.55913 2.57357,-1.41086 3.556,-1.84168 0.1397,-0.0613 0.38735,-0.16972 0.55033,-0.24102 0.16299,-0.0713 0.40147,-0.15583 0.52997,-0.18787 0.1285,-0.032 0.25457,-0.0921 0.28016,-0.13352 0.0256,-0.0414 0.11096,-0.0755 0.1897,-0.0758 0.0787,-2.9e-4 0.2523,-0.0574 0.38569,-0.127 0.13338,-0.0696 0.29401,-0.12648 0.35696,-0.12648 0.0629,0 0.23956,-0.0525 0.39248,-0.11671 0.25832,-0.10842 0.53421,-0.19349 1.63271,-0.5034 1.29983,-0.36671 4.25108,-0.90389 4.96592,-0.90389 0.42438,0 0.52521,-0.0805 0.79561,-0.635 0.0908,-0.18627 0.18783,-0.35772 0.21557,-0.381 0.0502,-0.0421 0.10882,-0.14873 0.48629,-0.88414 l 0.19805,-0.38586 h 1.50889 1.5089 l 0.19805,0.38586 c 0.37747,0.73541 0.4361,0.84201 0.48629,0.88414 0.0277,0.0233 0.12474,0.19473 0.21557,0.381 0.2704,0.55452 0.37123,0.635 0.79561,0.635 1.13607,0 5.42516,0.91474 6.59862,1.40729 0.15292,0.0642 0.32954,0.11671 0.39249,0.11671 0.063,0 0.22358,0.0569 0.35696,0.12648 0.13338,0.0696 0.30157,0.12671 0.37375,0.127 0.0722,2.8e-4 0.16743,0.031 0.21166,0.0683 0.0442,0.0373 0.30904,0.15512 0.58844,0.26191 1.02246,0.39082 2.92194,1.31843 4.04935,1.9775 0.45803,0.26776 0.8646,0.48684 0.90349,0.48684 0.0389,0 0.0834,0.0286 0.0989,0.0635 0.0333,0.075 0.54955,0.4445 0.62104,0.4445 0.0271,0 0.0953,0.0385 0.15159,0.0855 0.0562,0.047 0.59756,0.452 1.20293,0.89998 0.60537,0.44797 1.18268,0.88891 1.28292,0.97986 0.17669,0.16033 0.19864,0.16099 0.71966,0.0218 0.29558,-0.079 0.67077,-0.17095 0.83375,-0.20444 0.16299,-0.0335 0.44017,-0.1134 0.61596,-0.17757 l 0.31963,-0.11668 1.0562,1.05368 1.23074,4.29069 -2.74857,0.84517 c -0.1494,0.0459 -0.93512,-0.99059 -1.79653,-1.83782 -1.30664,-1.28511 -1.55531,-1.52216 -1.59679,-1.52216 -0.0191,0 -0.17979,-0.13514 -0.35701,-0.3003 -0.17721,-0.16517 -0.42698,-0.36388 -0.55504,-0.44159 -0.12806,-0.0777 -0.23284,-0.17117 -0.23284,-0.2077 0,-0.0365 -0.0571,-0.0664 -0.127,-0.0664 -0.0698,0 -0.127,-0.0346 -0.127,-0.0769 0,-0.0423 -0.17138,-0.18517 -0.38084,-0.3175 -0.20947,-0.13234 -0.38092,-0.26919 -0.381,-0.30411 -9e-5,-0.0349 -0.0398,-0.0635 -0.0883,-0.0635 -0.0804,0 -0.57318,-0.3141 -0.67391,-0.42951 -0.0233,-0.0267 -0.0995,-0.0758 -0.16933,-0.10916 -0.14664,-0.07 -0.32405,-0.17774 -0.82382,-0.50023 -0.19698,-0.12711 -0.39383,-0.2311 -0.43744,-0.2311 -0.0436,0 -0.092,-0.0286 -0.10752,-0.0635 -0.043,-0.0967 -1.62978,-0.91974 -2.48355,-1.28812 -0.23284,-0.10046 -0.53764,-0.23399 -0.67734,-0.29672 -0.1397,-0.0627 -0.42545,-0.17857 -0.635,-0.25741 -0.20955,-0.0788 -0.50611,-0.19665 -0.65904,-0.2618 -0.15292,-0.0652 -0.35069,-0.11845 -0.4395,-0.11845 -0.0888,0 -0.1832,-0.0352 -0.20976,-0.0781 -0.0266,-0.043 -0.17169,-0.10304 -0.3225,-0.13346 -0.15081,-0.0304 -0.4266,-0.10611 -0.61286,-0.16821 -1.16424,-0.38812 -3.00702,-0.769 -4.91067,-1.01497 -1.39149,-0.1798 -5.12785,-0.1798 -6.51933,0 -1.90366,0.24597 -3.74644,0.62685 -4.91067,1.01497 -0.18627,0.0621 -0.46205,0.13779 -0.61286,0.16821 -0.15081,0.0304 -0.29593,0.0905 -0.3225,0.13346 -0.0266,0.043 -0.12096,0.0781 -0.20976,0.0781 -0.0888,0 -0.28659,0.0533 -0.43951,0.11845 -0.15292,0.0651 -0.44949,0.18296 -0.65904,0.2618 -0.20955,0.0788 -0.4953,0.19468 -0.635,0.25741 -0.1397,0.0627 -0.4445,0.19626 -0.67733,0.29672 -0.64503,0.27831 -1.834,0.88134 -2.22752,1.12976 -0.1933,0.12202 -0.37201,0.22186 -0.39715,0.22186 -0.0251,0 -0.20686,0.10399 -0.40385,0.2311 -0.50471,0.32568 -0.67826,0.43087 -0.82381,0.49931 -0.0699,0.0328 -0.26584,0.16769 -0.43552,0.29965 -0.16968,0.13197 -0.35066,0.23994 -0.40217,0.23994 -0.0515,0 -0.0937,0.0286 -0.0938,0.0635 -8e-5,0.0349 -0.17153,0.17177 -0.381,0.30411 -0.20946,0.13233 -0.38085,0.27521 -0.38085,0.3175 0,0.0423 -0.0571,0.0769 -0.127,0.0769 -0.0698,0 -0.127,0.0293 -0.127,0.0651 0,0.0358 -0.0911,0.12151 -0.20239,0.1905 -0.8331,0.51635 -4.26054,3.95124 -4.82242,4.83291 -0.0861,0.13505 -0.19084,0.24554 -0.23283,0.24554 -0.042,0 -0.0764,0.0572 -0.0764,0.127 0,0.0699 -0.0348,0.127 -0.0774,0.127 -0.0426,0 -0.19158,0.18097 -0.33112,0.40216 -0.35784,0.56723 -0.72329,1.07453 -0.79798,1.10773 -0.0349,0.0155 -0.0635,0.0662 -0.0635,0.11265 0,0.0464 -0.12989,0.28138 -0.28865,0.52211 -0.71936,1.09073 -1.92226,3.51148 -2.48938,5.00968 -0.14102,0.37253 -0.26897,0.75038 -0.28435,0.83965 -0.0308,0.17877 -0.11185,0.21507 -0.36662,0.16414 z"
         id="path1"
         clip-path="url(#clipPath2)"
         sodipodi:nodetypes="csssssssssssssssscscssscsscsssssssssssssssssscssscccssssscsssscssssssssssssssssssscssssssssssssssssssssssssssssssssssssssssssssssssssssssssssssssssssssssssssssssssscssssscccssscccssssssssssssssscsssssscssssssssssssssssssscccccsssssssssssssssssssccssccsssssssssssssssssssssssssscsssssssssssscssssssssscssssssssssssssssssssssssssssssssssssssssssssscssssssssssssssssssssssssssssssssssssssssssssssssssscccssssssssssssssssssssssssssssssssssssssssssssssssssssssssssssssssssssssssssccssssssssssssssssssssssssssssssssssssssscsssssssssssssssssssssssssscscsssssssssscssssscssssssssscssscccssscssssssssssssssssssscccsssssssssssssscsssssscccsssssssssssssssssssssssssssssssssssscssssssscssss"
         transform="matrix(-2.6414513,0,0,-2.6414513,631.18587,765.12653)" /></g><path
       style="opacity:1;fill:#ff5e00;fill-opacity:1;stroke:#000000;stroke-width:0.283505;stroke-dasharray:none;stroke-opacity:1"
       d="m -55.810958,121.64152 c -0.315361,0.0101 -0.633393,-0.0381 -0.706732,-0.10689 -0.07334,-0.0688 -0.938892,0.5287 -1.923447,1.32784 -2.036466,1.65295 -4.430386,3.08713 -6.332141,3.79355 -1.196889,0.4446 -1.310295,0.53953 -1.424834,1.19276 -0.112437,0.64126 -0.182464,0.71156 -0.72601,0.72884 -0.330856,0.0105 -0.704002,-0.16408 -0.82921,-0.38801 -0.16575,-0.29642 -0.684528,-0.30781 -1.907879,-0.0419 -1.883049,0.40936 -6.277373,0.50842 -8.176603,0.18433 -0.739391,-0.12617 -1.304703,-0.0732 -1.387562,0.12996 -0.359872,0.88248 -1.694516,0.54382 -1.725728,-0.43788 -0.0078,-0.2456 -0.459731,-0.50751 -1.367156,-0.79233 -2.046451,-0.64233 -4.460395,-1.892 -6.565668,-3.39897 -1.268026,-0.90766 -1.965783,-1.27377 -2.118155,-1.11139 -0.348765,0.37166 -1.207135,0.0532 -1.387126,-0.51457 -0.08488,-0.26774 -0.05648,-0.59106 0.06309,-0.71849 0.139516,-0.14868 -0.303189,-0.87308 -1.235563,-2.02179 -1.657368,-2.04191 -3.066038,-4.40127 -3.83852,-6.42906 -0.491198,-1.28941 -0.575828,-1.39263 -1.127447,-1.3751 -0.731178,0.0233 -0.726731,0.0274 -0.749692,-0.69384 -0.01029,-0.32258 0.167546,-0.69061 0.395069,-0.81784 0.29551,-0.16524 0.333141,-0.5715 0.131713,-1.42191 -0.429968,-1.81528 -0.609856,-5.60862 -0.370298,-7.80854 0.118083,-1.084362 0.08446,-2.110045 -0.07473,-2.279291 -0.601778,-0.639826 -0.663799,-0.777938 -0.514134,-1.144946 0.08458,-0.207409 0.415168,-0.385415 0.734647,-0.395568 0.530922,-0.01688 0.618815,-0.140982 1.022306,-1.44344 0.642124,-2.07276 1.898093,-4.516825 3.42242,-6.659886 0.734986,-1.033324 1.276333,-1.935082 1.202991,-2.003903 -0.07334,-0.06882 -0.141338,-0.376494 -0.151105,-0.683715 -0.02077,-0.653191 0.51673,-0.990227 1.119345,-0.701886 0.327424,0.156666 0.829161,-0.12939 2.22191,-1.266789 1.994831,-1.62909 4.332396,-3.036181 6.308603,-3.797446 1.185563,-0.456697 1.310719,-0.56205 1.422067,-1.197074 0.109499,-0.62451 0.184114,-0.698277 0.723655,-0.71543 0.33086,-0.01051 0.705662,0.167049 0.832895,0.39459 0.165845,0.296601 0.577961,0.331611 1.45584,0.123677 1.868507,-0.442574 6.262401,-0.622156 8.164616,-0.333693 1.237771,0.187703 1.754781,0.143389 1.901368,-0.162966 0.110734,-0.231421 0.46526,-0.429155 0.787838,-0.439413 0.717993,-0.02283 0.71696,-0.02376 0.739055,0.671236 0.01615,0.50784 0.160377,0.611492 1.458992,1.048508 2.202275,0.74112 4.571424,1.969057 6.645868,3.444576 1.219114,0.867137 1.956008,1.254034 2.098745,1.101924 0.120985,-0.12893 0.446231,-0.173691 0.722766,-0.09947 0.580273,0.155746 0.936853,0.974898 0.586764,1.347974 -0.149144,0.15894 0.269761,0.844834 1.246254,2.040556 1.645938,2.015457 3.002154,4.274749 3.83259,6.384623 0.509536,1.294569 0.603898,1.409757 1.140904,1.392684 0.719099,-0.02285 0.715802,-0.02596 0.738696,0.694229 0.01026,0.322581 -0.167546,0.690604 -0.395067,0.817843 -0.295511,0.165233 -0.333142,0.571497 -0.131713,1.421903 0.429967,1.815283 0.609856,5.608623 0.370297,7.808543 -0.118082,1.08437 -0.08445,2.11005 0.07473,2.27929 0.662267,0.70414 0.688946,0.82626 0.276523,1.26577 -0.237447,0.25304 -0.558333,0.4344 -0.71308,0.40302 -0.159089,-0.0322 -0.578704,0.75428 -0.965575,1.80988 -0.833835,2.27517 -2.168053,4.73673 -3.581141,6.60701 -0.7269,0.96208 -0.978241,1.47453 -0.803599,1.63841 0.44959,0.42189 0.03778,1.32923 -0.612672,1.34991 z m 2.020106,-7.0221 c 4.64917,-8.70454 3.32485,-19.373668 -3.327107,-26.804211 -2.458779,-2.746572 -6.719246,-5.409825 -10.381913,-6.489823 -9.556413,-2.817868 -19.880518,0.593308 -25.537203,8.43772 -4.7752,6.622012 -5.830026,14.481844 -2.986998,22.257064 1.248421,3.41423 4.200669,7.50151 7.006207,9.69984 7.585843,5.94403 17.610512,6.80338 26.075166,2.23526 3.706982,-2.00054 7.06193,-5.42295 9.151848,-9.33585 z m -7.698008,6.32646 c -3.994768,2.85752 -7.946357,4.10969 -12.99014,4.11626 -3.844381,0.005 -6.881755,-0.78096 -10.533552,-2.72575 -2.080869,-1.10818 -6.066922,-4.84861 -7.305036,-6.85489 -2.367032,-3.83561 -3.205302,-6.63245 -3.355358,-11.19495 -0.194467,-5.912872 1.271841,-10.206964 4.995535,-14.629454 3.969054,-4.71389 9.844347,-7.475323 15.996248,-7.518355 4.092684,-0.02863 6.671568,0.555938 10.255173,2.324582 1.877853,0.926792 2.449922,1.349836 4.772309,3.529113 2.332908,2.189151 2.778649,2.719263 3.846417,4.574466 3.947363,6.858388 4.035429,14.628308 0.24604,21.707828 -1.004762,1.87714 -4.107784,5.36938 -5.927636,6.67115 z m 5.298494,-9.19048 c 1.293804,-2.88411 1.707443,-4.93177 1.685197,-8.34232 -0.04112,-6.303282 -2.779531,-11.710218 -7.975326,-15.747078 -7.124007,-5.534984 -18.217271,-5.081987 -24.88186,1.016058 -3.345865,3.061441 -5.413489,6.507282 -6.330766,10.55067 -0.596479,2.62931 -0.445465,7.37969 0.316814,9.9658 2.009721,6.81818 7.702353,12.16229 14.679424,13.78058 2.644495,0.61337 7.366363,0.47059 9.987712,-0.30208 5.437386,-1.60271 10.203799,-5.76102 12.518854,-10.92168 z m -7.066137,5.5902 c -6.329558,5.16968 -16.018564,5.10039 -22.149568,-0.1584 -1.00762,-0.86427 -1.231338,-1.17295 -1.154992,-1.59357 0.152421,-0.83971 0.836145,-0.67217 2.495706,0.61153 5.988007,4.63188 14.676627,4.37998 20.185504,-0.58521 1.537164,-1.38546 2.343282,-1.65427 2.564759,-0.85525 0.166506,0.6007 -0.337855,1.27119 -1.941408,2.5809 z m 0.308334,-25.250926 c -0.301205,-0.08086 -0.915397,-0.492073 -1.364861,-0.913841 -1.95676,-1.836182 -6.201504,-3.397614 -9.632876,-3.54346 -3.512703,-0.149303 -8.087294,1.48523 -10.633801,3.799533 -1.502218,1.365239 -2.184311,1.715211 -2.593874,1.330886 -1.191923,-1.118475 3.744882,-4.853739 8.094293,-6.124269 2.115765,-0.618047 6.313932,-0.751507 8.464681,-0.269093 3.368564,0.755568 8.062279,3.381974 8.532714,4.774546 0.237451,0.702899 -0.158884,1.135564 -0.866277,0.945697 z"
       id="path2" /><text
       xml:space="preserve"
       style="font-style:normal;font-variant:normal;font-weight:500;font-stretch:ultra-condensed;font-size:4.39642px;font-family:'Fira Sans Compressed';-inkscape-font-specification:'Fira Sans Compressed, Medium Ultra-Condensed';font-variant-ligatures:normal;font-variant-caps:normal;font-variant-numeric:normal;font-variant-east-asian:normal;fill:#ff5e00;fill-opacity:1;stroke:#000000;stroke-width:0.111821;stroke-linecap:square;stroke-dasharray:none;stroke-opacity:1"
       x="-36.621967"
       y="17.582964"
       id="text2"><tspan
         sodipodi:role="line"
         id="tspan2"
         style="font-style:normal;font-variant:normal;font-weight:500;font-stretch:ultra-condensed;font-size:4.39642px;font-family:'Fira Sans Compressed';-inkscape-font-specification:'Fira Sans Compressed, Medium Ultra-Condensed';font-variant-ligatures:normal;font-variant-caps:normal;font-variant-numeric:normal;font-variant-east-asian:normal;fill:#ff5e00;fill-opacity:1;stroke:#000000;stroke-width:0.111821;stroke-dasharray:none;stroke-opacity:1"
         x="-36.621967"
         y="17.582964">PDF + AULAS</tspan></text><text
       xml:space="preserve"
       style="font-style:normal;font-variant:normal;font-weight:500;font-stretch:ultra-condensed;font-size:4.42015px;font-family:'Fira Sans Compressed';-inkscape-font-specification:'Fira Sans Compressed, Medium Ultra-Condensed';font-variant-ligatures:normal;font-variant-caps:normal;font-variant-numeric:normal;font-variant-east-asian:normal;fill:#ff5e00;fill-opacity:1;stroke:#000000;stroke-width:0.0841011;stroke-linecap:square;stroke-dasharray:none;stroke-opacity:1"
       x="-56.594627"
       y="30.291149"
       id="text3"><tspan
         sodipodi:role="line"
         id="tspan3"
         style="stroke:#000000;stroke-width:0.0841011;stroke-opacity:1"
         x="-56.594627"
         y="30.291149">COMBINAES</tspan></text><path
       style="fill:#ffffff;fill-opacity:1;stroke:#000000;stroke-width:1.4698;stroke-dasharray:none;stroke-opacity:1"
       d="M 42.886591,119.44632 C 28.485085,113.71449 17.959607,107.65581 11.311425,101.27099 6.4001027,96.554235 4.2092277,92.104197 4.7521037,87.947879 c 0.103205,-0.790061 0.254258,-1.47041 0.335708,-1.51187 0.0815,-0.04137 0.636383,0.903185 1.233198,2.099202 4.4954903,9.00916 17.3590923,18.199029 36.4134253,26.014079 5.555571,2.27859 20.224998,6.7747 25.684078,7.87201 11.282475,2.26789 21.242962,2.99747 28.961417,2.12134 3.54126,-0.40196 8.12569,-1.70178 10.79591,-3.06094 l 2.27434,-1.15766 -0.61784,1.27644 c -3.96818,8.19828 -19.730397,10.05535 -42.951997,5.0605 -4.522864,-0.97285 -20.015554,-5.63133 -23.993767,-7.21467 z m 3.104907,-5.64105 C 33.174513,108.55861 27.394432,105.64345 20.364637,100.8805 9.9394105,93.81701 4.7635627,85.950319 6.5863467,79.939098 c 0.406358,-1.340091 0.412467,-1.872284 0.03231,-2.810303 -0.257924,-0.636441 -0.471174,-1.681007 -0.473866,-2.321272 -0.0094,-2.235644 2.1193868,-5.533704 4.3413863,-6.725938 1.216318,-0.652648 2.979617,-0.648189 3.610419,0.0092 1.313064,1.368219 0.51248,6.78931 -1.519808,10.291255 -0.953611,1.643216 -1.999277,2.267678 -3.0124395,1.798987 -0.718166,-0.332229 -0.728768,-0.319829 -1.207516,1.411869 -0.584438,2.113991 -0.295957,3.144065 1.6630295,5.938217 3.415734,4.871939 10.848452,10.790076 19.416917,15.460277 l 2.089085,1.13865 0.748337,-2.33664 0.748334,-2.336639 -0.895584,-1.175944 c -1.163191,-1.527306 -1.377765,-3.418342 -0.646188,-5.694737 0.888776,-2.765153 2.131157,-4.311108 4.452321,-5.539635 1.10527,-0.584981 2.227896,-0.992575 2.494726,-0.905755 0.775536,0.252382 2.115706,2.887698 2.401306,4.722052 0.695094,4.464518 -2.502557,9.577768 -5.786919,9.253648 l -0.935466,-0.0923 -0.676854,2.36214 -0.676856,2.36213 1.209078,0.63421 c 10.366185,5.43743 30.505959,12.0125 41.538713,13.56125 l 0.986377,0.13847 0.869256,-2.67159 0.869255,-2.6716 -0.868736,-0.50001 c -2.0619,-1.18677 -2.453454,-3.9243 -1.138221,-7.95712 0.923896,-2.83237 1.739042,-4.10727 3.152717,-4.92991 0.953389,-0.554798 1.195485,-0.56678 2.047428,-0.10134 1.105642,0.60402 2.134274,2.61165 2.50189,4.88299 0.17064,1.05434 0.05555,2.05968 -0.430679,3.76188 -0.36499,1.27764 -0.651249,2.04139 -0.636417,1.69711 0.130739,-3.01875 -3.92933,-3.87766 -4.856716,-1.02744 -0.649025,1.99471 1.49221,3.75391 3.392079,2.78686 0.513477,-0.26136 0.891415,-0.34552 0.83984,-0.18701 -0.188755,0.57974 -1.524247,1.68574 -2.176535,1.8023 -0.593462,0.10605 -0.767451,0.41802 -1.515735,2.71777 l -0.845303,2.59796 1.284046,0.199 c 3.282442,0.50874 9.654256,0.96326 13.259571,0.94584 7.371679,-0.0356 12.529851,-1.02876 16.225581,-3.12405 1.85674,-1.05266 2.00559,-1.21207 2.47282,-2.64806 l 0.49716,-1.52797 -1.15486,-0.21162 c -2.5235,-0.46243 -2.92291,-2.21617 -1.49942,-6.58365 1.67472,-5.13994 3.42008,-7.614709 5.00501,-7.099013 1.13397,0.368901 2.6066,2.381973 2.97895,4.072003 0.32488,1.47456 0.27468,1.86404 -0.57799,4.48463 -0.75526,2.32122 -1.10404,3.02675 -1.82473,3.6907 -0.62551,0.5763 -1.07518,1.37707 -1.50923,2.68765 -2.01065,6.07113 -10.97672,9.46937 -23.83097,9.03227 -10.463397,-0.3558 -20.457263,-2.23549 -33.556031,-6.31135 -4.438082,-1.38096 -8.699364,-2.76883 -9.46951,-3.08418 z M 35.834477,97.471927 c 1.502982,-0.857375 1.754514,-2.748793 0.533985,-4.01549 -0.801104,-0.831418 -1.366594,-0.892665 -2.572858,-0.278663 -1.265372,0.644098 -1.781612,1.756637 -1.397945,3.012741 0.499843,1.636437 1.899565,2.158326 3.436823,1.281409 z m 79.074533,12.380313 c 0.63792,-1.16762 0.72814,-3.35026 0.14634,-3.53957 -0.61239,-0.19931 -1.5064,1.03559 -1.81294,2.50424 -0.49823,2.38695 0.56676,3.04853 1.66661,1.03533 z M 8.4030645,75.815954 c 0.660138,-0.810625 1.296923,-3.350058 0.990838,-3.951389 -0.604989,-1.188577 -2.3964558,1.251132 -2.3880398,3.252177 0.0056,1.339644 0.62375,1.648976 1.3971998,0.699217 z M 52.112117,108.16191 c -3.291195,-1.18882 -11.633986,-4.569 -11.825322,-4.7912 -0.08528,-0.099 0.325696,-0.62895 0.913271,-1.1776 3.564688,-3.328473 5.122806,-8.900451 3.812563,-13.634072 l -0.373547,-1.349537 1.096159,-0.871343 c 1.916104,-1.523109 3.226342,-3.399085 4.290569,-6.143161 1.095657,-2.825072 1.378665,-4.806328 1.095147,-7.666221 -0.09663,-0.974656 -0.130304,-1.795203 -0.07485,-1.823435 0.05545,-0.02826 1.545148,0.556401 3.310394,1.29926 4.032817,1.696997 17.057988,6.013601 22.557631,7.475697 l 4.160799,1.106173 -1.202478,1.341093 c -3.342798,3.728117 -4.601452,8.677184 -3.353459,13.185909 0.355407,1.283996 0.337679,1.406424 -0.252607,1.744919 -3.178099,1.822442 -6.335219,10.986508 -5.171058,15.009818 0.443096,1.53132 0.352366,1.83564 -0.468855,1.5726 -0.355638,-0.114 -2.170424,-0.57166 -4.032793,-1.01717 -4.057025,-0.97053 -11.143354,-3.05593 -14.48157,-4.26171 z m 33.790762,6.82078 c 0.246816,-0.39217 0.936713,-1.98241 1.533222,-3.53383 1.258594,-3.27346 1.413008,-5.64778 0.568708,-8.74455 l -0.487735,-1.78891 0.949974,-0.44092 c 1.595084,-0.740365 3.273537,-2.174242 4.55903,-3.894725 2.17744,-2.914275 3.012488,-7.82007 2.009629,-11.806333 -0.183851,-0.730886 -0.280803,-1.351938 -0.215395,-1.380114 0.06541,-0.02819 2.546317,0.21851 5.513138,0.54818 2.96682,0.329674 6.72534,0.613735 8.35227,0.631239 1.62693,0.01739 2.98389,0.0826 3.0155,0.144699 0.0316,0.06212 -0.41834,1.087027 -0.99978,2.277692 -1.27166,2.603938 -1.94514,5.47977 -1.744,7.446981 0.14683,1.435908 0.13886,1.460295 -1.01032,3.090285 -1.4135,2.004685 -3.68903,7.071686 -4.0886,9.104246 -0.5668,2.88323 -0.57397,4.47829 -0.0272,6.03691 l 0.55202,1.57353 -1.1505,0.39393 c -2.86256,0.98015 -9.300494,1.49385 -15.01381,1.19798 l -2.764729,-0.14317 z M 25.352761,95.303887 C 21.844522,93.1304 15.885649,87.946923 14.158298,85.566091 l -0.932684,-1.285515 1.080573,-0.858935 c 2.59263,-2.060881 4.986841,-8.36575 4.941147,-13.011924 l -0.02319,-2.356835 1.275958,-1.361278 c 1.208151,-1.288932 1.354181,-1.601671 2.747715,-5.884537 1.270468,-3.904665 1.523103,-4.480918 1.847088,-4.213737 1.174996,0.968951 8.183873,5.357912 11.016437,6.898498 1.821911,0.990915 3.249445,1.86747 3.172293,1.947911 -0.07719,0.08043 -0.800519,0.793341 -1.607477,1.584237 -4.716673,4.622736 -6.271417,9.82434 -4.352301,14.561161 l 0.468608,1.156629 -1.528289,1.169318 c -0.840555,0.643134 -2.031434,1.787824 -2.646389,2.543778 -1.484243,1.824541 -3.051923,5.876797 -3.078204,7.956735 -0.01981,1.557864 -0.06161,1.589398 -1.18683,0.89229 z m 14.034771,-13.34945 c -1.371936,-0.926515 -2.070871,-2.061659 -2.300509,-3.736231 -0.172668,-1.259227 -0.07659,-1.839163 0.560947,-3.385613 0.929964,-2.255782 2.725792,-4.557228 4.272447,-5.475309 1.094242,-0.64953 1.17676,-0.790476 2.070079,-3.535993 l 0.930401,-2.859495 -3.74008,-1.916805 C 32.224078,56.454623 23.701243,50.344158 20.758048,46.402831 c -0.317657,-0.425404 -0.643642,-0.740294 -0.724409,-0.69976 -0.08074,0.04051 -0.508563,1.325251 -0.95075,2.854917 l -0.803833,2.781257 0.796775,0.259246 c 0.438195,0.142671 0.933505,0.564587 1.10061,0.937804 0.412189,0.920522 -0.353069,4.921518 -1.585889,8.291565 -0.951102,2.599958 -1.043486,2.741672 -2.065532,3.168448 -1.182815,0.493906 -2.13709,0.156945 -3.157699,-1.114984 -0.657554,-0.819525 -1.413022,-5.886806 -1.119587,-7.509687 0.252498,-1.396358 1.518478,-2.744899 3.095745,-3.297576 l 1.2033,-0.421641 1.284758,-3.948546 c 1.054611,-3.241257 1.22574,-4.041971 0.955213,-4.470107 -0.559478,-0.885276 -0.74815,-2.995037 -0.369954,-4.134875 0.198091,-0.597067 0.820707,-1.578385 1.383572,-2.180722 l 1.023385,-1.095155 -0.03209,0.899236 c -0.255943,7.172618 14.347188,17.737114 37.232091,26.935212 5.574688,2.240627 21.986059,7.378883 27.218166,8.521753 13.215128,2.886655 24.098,3.824285 31.82914,2.742279 4.80454,-0.67242 7.55716,-1.777368 9.27955,-3.724999 l 1.14861,-1.298816 0.0889,0.981015 c 0.22943,2.532125 -0.82171,5.083898 -2.57837,6.259341 -0.66765,0.446755 -0.93314,1.023885 -2.05022,4.457108 -1.05492,3.242244 -1.22439,4.036996 -0.95266,4.4671 0.54006,0.854548 0.85152,3.647258 0.51993,4.660513 -0.64142,1.960403 -1.6123,2.96953 -4.05032,4.210502 -3.31935,1.689573 -4.6424,1.491445 -5.00799,-0.749936 -0.32596,-1.998342 2.58358,-8.697074 4.68342,-10.782777 0.62433,-0.620143 0.7939,-0.636499 1.76447,-0.170156 l 1.07377,0.515926 0.83146,-2.555452 c 0.45734,-1.40554 0.77131,-2.575116 0.69769,-2.599071 -0.0735,-0.02391 -1.07701,0.206603 -2.22982,0.512301 -5.50052,1.458676 -16.08409,1.210781 -26.546076,-0.621774 L 91.116197,78.022129 90.26614,80.63467 c -0.845767,2.599374 -0.846342,2.619073 -0.175422,3.888205 1.093776,2.068299 1.166239,4.2204 0.239137,7.103763 -0.723307,2.24872 -0.907697,2.561395 -2.120123,3.588598 -1.921824,1.628266 -3.404771,1.983923 -5.143041,1.233466 -1.164827,-0.502874 -1.471918,-0.807267 -1.942198,-1.925058 -0.658015,-1.564002 -0.717627,-4.070655 -0.139096,-5.848707 0.5245,-1.612032 2.458398,-4.230312 3.826482,-5.180644 0.58068,-0.403391 1.615049,-0.766852 2.298574,-0.807726 l 1.242772,-0.07432 0.79014,-2.428403 0.790141,-2.428401 -1.275274,-0.225973 C 78.881956,75.797207 61.109046,70.18763 50.739615,65.561383 48.52947,64.575343 46.559821,63.715802 46.36262,63.651292 c -0.259546,-0.08499 -0.584216,0.576277 -1.176134,2.395492 l -0.817595,2.512784 0.762623,0.684256 c 2.22735,1.998468 1.933062,8.219938 -0.559995,11.838788 -1.471731,2.136325 -2.944964,2.384109 -5.184137,0.871922 z M 13.73893,57.71684 c 0.595208,-0.915636 1.238185,-3.115338 1.080056,-3.694972 -0.230193,-0.843786 -0.906202,-0.09371 -1.47481,1.636388 -0.721357,2.195161 -0.48739,3.415647 0.394759,2.058587 z m 107.53806,33.869279 c 0.75121,-1.15259 0.9752,-3.243037 0.36862,-3.440402 -0.92197,-0.2999 -2.083,1.580697 -2.09613,3.395321 -0.008,1.148457 0.99139,1.174542 1.72751,0.04507 z M 59.265799,61.303586 C 48.337658,56.981821 36.70956,50.832327 30.563998,46.124694 c -4.79311,-3.671623 -8.521693,-8.269622 -8.715721,-10.748001 -0.211806,-2.705451 5.706151,-5.045539 13.164697,-5.205609 18.879576,-0.405183 53.202971,9.443181 74.841366,21.474131 5.98937,3.330086 11.41748,7.345938 14.0214,10.373363 1.46617,1.704622 3.2411,5.208536 3.17836,6.274419 -0.0604,1.025841 -2.25564,2.576168 -4.76925,3.368098 -6.95991,2.192792 -18.53847,1.619684 -34.728115,-1.718952 C 83.586077,69.123311 63.633116,63.030731 59.265799,61.303586 Z M 31.08568,35.695184 c 6.668133,-1.855655 19.153378,-0.569579 35.174819,3.623272 7.345723,1.922396 22.168561,7.004009 28.265107,9.689934 15.968104,7.035 25.260924,13.77811 26.118674,18.95239 0.24295,1.465589 0.6905,0.673714 0.603,-1.066886 C 120.97182,61.415672 110.48823,53.878081 92.690279,46.361733 86.795662,43.872344 75.160353,39.914074 68.545579,38.147846 49.697699,33.115191 36.149125,31.880051 30.122444,34.64505 c -1.917105,0.879557 -2.895454,1.740214 -3.263296,2.870743 -0.241311,0.741448 -0.18332,0.727468 0.983546,-0.23764 0.719329,-0.594959 2.080911,-1.259577 3.242993,-1.582967 z"
       id="path3" /><text
       xml:space="preserve"
       transform="matrix(1.3371094,0.48591696,-0.48591696,1.3371094,-360.69128,-280.37436)"
       id="text1"
       style="font-style:normal;font-variant:normal;font-weight:900;font-stretch:ultra-condensed;font-size:39.3126px;font-family:'Fira Sans Compressed';-inkscape-font-specification:'Fira Sans Compressed, Heavy Ultra-Condensed';font-variant-ligatures:normal;font-variant-caps:normal;font-variant-numeric:normal;font-variant-east-asian:normal;white-space:pre;shape-inside:url(#rect1);display:inline;opacity:0.955281;fill:#ff5e00;fill-opacity:1;stroke:#ffffff;stroke-width:0.988213;stroke-linecap:square;stroke-dasharray:none;stroke-opacity:1"><tspan
         x="338.31836"
         y="118.34983"
         id="tspan5">200</tspan></text><text
       xml:space="preserve"
       transform="matrix(0.26680347,0,0,0.26680347,-86.762906,8.4729196)"
       id="text4"
       style="font-style:normal;font-variant:normal;font-weight:900;font-stretch:ultra-condensed;font-size:39.3128px;font-family:'Fira Sans Compressed';-inkscape-font-specification:'Fira Sans Compressed, Heavy Ultra-Condensed';font-variant-ligatures:normal;font-variant-caps:normal;font-variant-numeric:normal;font-variant-east-asian:normal;white-space:pre;shape-inside:url(#rect4);display:inline;opacity:1;fill:#ff5e00;fill-opacity:1;stroke:#ffffff;stroke-width:0.694175;stroke-linecap:square;stroke-dasharray:none;stroke-opacity:1"><tspan
         x="43.710938"
         y="165.79142"
         id="tspan6">COMBINAES</tspan></text></g></svg>
