<?xml version="1.0" encoding="UTF-8" standalone="no"?>
<!-- Created with Inkscape (http://www.inkscape.org/) -->

<svg
   width="250"
   height="250"
   viewBox="0 0 66.145834 66.145832"
   version="1.1"
   id="svg1"
   inkscape:version="1.3 (0e150ed6c4, 2023-07-21)"
   sodipodi:docname="Logo-reformulação.svg"
   xml:space="preserve"
   inkscape:export-filename="../png/Logo-reformulada-insta-stories.png"
   inkscape:export-xdpi="96"
   inkscape:export-ydpi="96"
   xmlns:inkscape="http://www.inkscape.org/namespaces/inkscape"
   xmlns:sodipodi="http://sodipodi.sourceforge.net/DTD/sodipodi-0.dtd"
   xmlns="http://www.w3.org/2000/svg"
   xmlns:svg="http://www.w3.org/2000/svg"><sodipodi:namedview
     id="namedview1"
     pagecolor="#ffffff"
     bordercolor="#000000"
     borderopacity="0.25"
     inkscape:showpageshadow="2"
     inkscape:pageopacity="0.0"
     inkscape:pagecheckerboard="0"
     inkscape:deskcolor="#d1d1d1"
     inkscape:document-units="mm"
     inkscape:zoom="1.4142136"
     inkscape:cx="116.31907"
     inkscape:cy="129.04699"
     inkscape:window-width="1366"
     inkscape:window-height="699"
     inkscape:window-x="0"
     inkscape:window-y="32"
     inkscape:window-maximized="1"
     inkscape:current-layer="layer1"
     showguides="true"
     showgrid="false" /><defs
     id="defs1"><clipPath
       clipPathUnits="userSpaceOnUse"
       id="clipPath2"><rect
         style="fill:none;stroke:#000000;stroke-width:0.881769;stroke-dasharray:none;stroke-opacity:1"
         id="rect2"
         width="89.585342"
         height="68.187721"
         x="151.69763"
         y="199.0618" /></clipPath><clipPath
       clipPathUnits="userSpaceOnUse"
       id="clipPath2-5"><rect
         style="fill:none;stroke:#000000;stroke-width:0.881769;stroke-dasharray:none;stroke-opacity:1"
         id="rect2-6"
         width="89.585342"
         height="68.187721"
         x="151.69763"
         y="199.0618" /></clipPath></defs><g
     inkscape:label="Camada 1"
     inkscape:groupmode="layer"
     id="layer1"><rect
       style="opacity:1;fill:#ff5e00;fill-opacity:1;stroke:#000000;stroke-width:2.08465;stroke-dasharray:none;stroke-opacity:0.0608315"
       id="rect3"
       width="330.60229"
       height="565.29309"
       x="14.486208"
       y="91.831566" /><g
       id="g1"
       transform="matrix(0.27280133,0,0,0.27280133,2.3967603,-7.5951304)"><path
         style="display:inline;fill:#ffffff;fill-opacity:1;stroke:#ffffff;stroke-width:2.76458;stroke-linecap:round;stroke-linejoin:round;stroke-dasharray:none;stroke-opacity:1"
         d="m 194.69195,266.36459 c -0.11303,-0.21322 -0.25901,-0.48945 -0.32441,-0.61384 -0.0654,-0.12439 -0.1416,-0.24521 -0.16933,-0.26849 -0.0277,-0.0233 -0.12475,-0.19474 -0.21557,-0.381 -0.2704,-0.55453 -0.37123,-0.635 -0.79561,-0.635 -0.71484,0 -3.66609,-0.53719 -4.96592,-0.9039 -0.96262,-0.27157 -1.36868,-0.39835 -1.62146,-0.50624 -0.14674,-0.0626 -0.32336,-0.11386 -0.39249,-0.11386 -0.0691,0 -0.23482,-0.0569 -0.3682,-0.12648 -0.13339,-0.0696 -0.30157,-0.12672 -0.37375,-0.127 -0.0722,-2.9e-4 -0.16743,-0.031 -0.21167,-0.0683 -0.0442,-0.0373 -0.30903,-0.15513 -0.58843,-0.26192 -1.17401,-0.44874 -3.01289,-1.36423 -4.318,-2.14972 -1.34494,-0.80946 -1.40771,-0.84799 -1.51938,-0.93261 -0.0491,-0.0372 -0.35599,-0.25791 -0.68195,-0.49044 -0.32597,-0.23254 -0.65978,-0.47832 -0.7418,-0.54618 -0.082,-0.0679 -0.18363,-0.12338 -0.22578,-0.12338 -0.0422,0 -0.0893,-0.034 -0.10487,-0.0754 -0.0155,-0.0415 -0.2295,-0.23387 -0.47552,-0.42751 l -0.44729,-0.35207 -0.48404,0.12878 c -0.26622,0.0708 -0.57929,0.15101 -0.6957,0.17818 -0.11642,0.0272 -0.41247,0.1126 -0.6579,0.18985 l -0.44622,0.14046 -1.00493,-1.00231 c -1.1821,-1.17902 -1.14862,-1.0289 -0.6478,-2.90464 l 0.14054,-0.52637 -0.35207,-0.44729 c -0.19364,-0.24602 -0.38602,-0.46 -0.42751,-0.47552 -0.0415,-0.0155 -0.0755,-0.0611 -0.0755,-0.10139 0,-0.0618 -0.91274,-1.34683 -1.18331,-1.66598 -0.0477,-0.0562 -0.0867,-0.12446 -0.0867,-0.1516 0,-0.0715 -0.36946,-0.58768 -0.4445,-0.62103 -0.0349,-0.0155 -0.0635,-0.0649 -0.0635,-0.10969 0,-0.0448 -0.21923,-0.45121 -0.48719,-0.90311 -0.70092,-1.18209 -1.52939,-2.87527 -1.97624,-4.03898 -0.10729,-0.2794 -0.22556,-0.5442 -0.26282,-0.58843 -0.0373,-0.0442 -0.068,-0.13949 -0.0683,-0.21167 -2.8e-4,-0.0722 -0.0574,-0.24036 -0.127,-0.37375 -0.0696,-0.13338 -0.12648,-0.29401 -0.12648,-0.35696 0,-0.0629 -0.0525,-0.23956 -0.1167,-0.39248 -0.10787,-0.25699 -0.16869,-0.45377 -0.50459,-1.63271 -0.0663,-0.23283 -0.18622,-0.72813 -0.26642,-1.10067 -0.0802,-0.37253 -0.18448,-0.84878 -0.23174,-1.05833 -0.0473,-0.20955 -0.12216,-0.66675 -0.16646,-1.016 -0.52275,-4.12125 0.49748,4.00101 -0.23813,-1.84459 0,-0.36528 -0.0985,-0.48037 -0.635,-0.74198 -0.18626,-0.0908 -0.35771,-0.18783 -0.381,-0.21557 -0.0421,-0.0502 -0.14873,-0.10881 -0.88414,-0.48629 l -0.38586,-0.19805 v -1.50144 -1.50144 l 0.38767,-0.20551 c 0.21322,-0.11302 0.48945,-0.25901 0.61384,-0.32441 0.12439,-0.0654 0.24521,-0.14159 0.26849,-0.16933 0.0233,-0.0277 0.19474,-0.12474 0.381,-0.21557 0.582,-0.28379 0.635,-0.35944 0.635,-0.90632 v -0.49487 h 0.26962 c 0.14828,0 0.48166,0.0546 0.74083,0.12141 0.25917,0.0668 0.70424,0.16615 0.98905,0.22083 0.28481,0.0547 0.55586,0.12387 0.60233,0.15375 0.053,0.0341 0.0596,0.22777 0.0175,0.52001 -0.23197,2.44402 -0.34113,3.94653 0.0854,6.32969 0.21976,1.66895 0.61636,3.54577 0.97936,4.63464 0.0621,0.18627 0.13779,0.46205 0.1682,0.61286 0.0304,0.15081 0.0905,0.29593 0.13346,0.3225 0.043,0.0266 0.0781,0.12096 0.0781,0.20976 0,0.0888 0.0533,0.28659 0.11846,0.43951 0.0651,0.15292 0.18296,0.44949 0.2618,0.65904 0.0788,0.20955 0.19467,0.4953 0.25741,0.635 0.0627,0.1397 0.19625,0.4445 0.29671,0.67733 0.22818,0.52883 0.84666,1.76503 1.08017,2.159 0.0966,0.16298 0.25841,0.44873 0.35957,0.635 0.10117,0.18627 0.29418,0.5025 0.42891,0.70274 0.13474,0.20025 0.24497,0.38526 0.24497,0.41115 0,0.0259 0.1143,0.19139 0.254,0.36778 0.1397,0.17638 0.254,0.36284 0.254,0.41435 0,0.0515 0.0286,0.0937 0.0635,0.0938 0.0349,8e-5 0.17178,0.17153 0.30411,0.381 0.13234,0.20946 0.27521,0.38085 0.3175,0.38085 0.0423,0 0.0769,0.054 0.0769,0.11994 0,0.066 0.0298,0.13264 0.0661,0.14817 0.0364,0.0155 0.2359,0.24729 0.44338,0.51505 0.20749,0.26776 0.40632,0.48684 0.44186,0.48684 0.0355,0 0.0646,0.0353 0.0646,0.0786 0,0.13789 1.23348,1.41275 2.89354,2.9906 0.13473,0.12806 0.27858,0.23284 0.31966,0.23284 0.0411,0 0.0874,0.0337 0.10291,0.0748 0.0452,0.11985 1.05963,0.94117 1.16246,0.94117 0.0514,0 0.0934,0.0346 0.0934,0.0769 0,0.0423 0.17139,0.18516 0.38085,0.3175 0.20947,0.13233 0.38092,0.26918 0.381,0.30411 9e-5,0.0349 0.0423,0.0635 0.0938,0.0635 0.0515,0 0.23249,0.10797 0.40217,0.23993 0.16968,0.13196 0.36567,0.26681 0.43552,0.29965 0.13933,0.0655 0.2939,0.1586 0.80433,0.48433 0.18627,0.11887 0.39582,0.24224 0.46567,0.27417 0.0698,0.0319 0.26035,0.13926 0.42333,0.23852 0.37272,0.22701 1.60051,0.84404 2.159,1.08501 0.23283,0.10047 0.53763,0.23399 0.67733,0.29672 0.1397,0.0627 0.42545,0.17857 0.635,0.25741 0.20955,0.0788 0.50612,0.19665 0.65904,0.2618 0.15292,0.0652 0.3507,0.11846 0.43951,0.11846 0.0888,0 0.1832,0.0352 0.20976,0.0781 0.0266,0.043 0.17169,0.10304 0.3225,0.13346 0.15081,0.0304 0.42659,0.10611 0.61286,0.1682 0.74349,0.24786 1.9568,0.53625 3.175,0.75467 1.73725,0.31147 2.7592,0.39159 4.99533,0.39159 2.23614,0 3.25809,-0.0801 4.99534,-0.39159 1.2182,-0.21842 2.43151,-0.50681 3.175,-0.75467 0.18626,-0.0621 0.46205,-0.13779 0.61286,-0.1682 0.15081,-0.0304 0.29593,-0.0905 0.3225,-0.13346 0.0266,-0.043 0.12096,-0.0781 0.20976,-0.0781 0.0888,0 0.28658,-0.0533 0.4395,-0.11846 0.15293,-0.0652 0.44949,-0.18296 0.65904,-0.2618 0.20955,-0.0788 0.4953,-0.19467 0.635,-0.25741 0.1397,-0.0627 0.4445,-0.19625 0.67734,-0.29672 0.52882,-0.22817 1.76503,-0.84665 2.159,-1.08016 0.16298,-0.0966 0.43799,-0.2531 0.61113,-0.34778 0.17314,-0.0947 0.47794,-0.27739 0.67734,-0.40601 0.48981,-0.31598 0.66693,-0.42402 0.89169,-0.5439 0.10478,-0.0559 0.1905,-0.1336 0.1905,-0.17269 0,-0.0391 0.0571,-0.0711 0.127,-0.0711 0.0698,0 0.12707,-0.0286 0.12716,-0.0635 8e-5,-0.0349 0.17153,-0.17178 0.381,-0.30411 0.20946,-0.13234 0.38084,-0.27521 0.38084,-0.3175 0,-0.0423 0.0572,-0.0769 0.127,-0.0769 0.0699,0 0.127,-0.0299 0.127,-0.0664 0,-0.0365 0.10478,-0.12999 0.23284,-0.2077 0.12806,-0.0777 0.37783,-0.27642 0.55504,-0.44159 0.17722,-0.16516 0.34045,-0.30029 0.36273,-0.30029 0.0589,0 1.30872,-1.20325 2.05775,-1.98105 1.02146,-1.06068 1.10964,-1.15543 1.10964,-1.19216 0,-0.0191 0.13514,-0.1797 0.3003,-0.35692 0.16517,-0.17721 0.36388,-0.42698 0.44159,-0.55504 0.0777,-0.12806 0.17118,-0.23283 0.2077,-0.23283 0.0365,0 0.0664,-0.0571 0.0664,-0.127 0,-0.0698 0.0346,-0.127 0.0769,-0.127 0.0423,0 0.18516,-0.17139 0.3175,-0.38085 0.13233,-0.20947 0.26918,-0.38092 0.3041,-0.381 0.0349,-9e-5 0.0635,-0.0423 0.0635,-0.0938 0,-0.0515 0.1143,-0.23797 0.254,-0.41435 0.1397,-0.17639 0.254,-0.34189 0.254,-0.36778 0,-0.0259 0.11024,-0.2109 0.24498,-0.41115 0.13473,-0.20024 0.32774,-0.51647 0.4289,-0.70274 0.10117,-0.18627 0.26298,-0.47202 0.35958,-0.635 0.2335,-0.39397 0.85199,-1.63017 1.08016,-2.159 0.10046,-0.23283 0.23399,-0.53763 0.29672,-0.67733 0.0627,-0.1397 0.17857,-0.42545 0.25741,-0.635 0.0788,-0.20955 0.19665,-0.50612 0.2618,-0.65904 0.0652,-0.15292 0.11845,-0.3507 0.11845,-0.43951 0,-0.0888 0.0352,-0.1832 0.0782,-0.20976 0.043,-0.0266 0.10304,-0.17169 0.13345,-0.3225 0.0304,-0.15081 0.10611,-0.42659 0.16821,-0.61286 1.15558,-3.19301 1.31135,-6.57843 1.14418,-9.13664 0,-1.28764 -0.10267,-2.34619 -0.3908,-4.02903 -0.23357,-1.36422 -0.71797,-3.25235 -1.01619,-3.96104 -0.0644,-0.15292 -0.11701,-0.3326 -0.11701,-0.39929 0,-0.0667 -0.0533,-0.24637 -0.11845,-0.39929 -0.0651,-0.15293 -0.18524,-0.44949 -0.26687,-0.65904 -0.2458,-0.63099 -0.39865,-0.97629 -0.85327,-1.92762 -0.45021,-0.94208 -0.46377,-1.12158 -0.0845,-1.1193 0.16497,0.001 0.78457,-0.12409 1.8697,-0.37745 l 0.41956,-0.098 0.28466,0.597 c 0.39105,0.82011 0.48172,1.02742 0.70555,1.61299 0.10679,0.2794 0.22466,0.5442 0.26192,0.58844 0.0373,0.0442 0.0677,0.16078 0.0677,0.25898 0,0.0982 0.0559,0.25251 0.12431,0.3429 0.0684,0.0904 0.12552,0.22973 0.127,0.30964 10e-4,0.0799 0.0552,0.27042 0.1194,0.42334 0.49468,1.17852 1.41305,5.50494 1.40864,6.63608 -10e-4,0.38331 0.0904,0.49325 0.63365,0.75815 0.18627,0.0908 0.35772,0.18783 0.381,0.21557 0.0421,0.0502 0.14873,0.10882 0.88415,0.48629 l 0.38585,0.19805 v 1.5089 1.50889 l -0.38585,0.19805 c -0.73542,0.37748 -0.84202,0.43611 -0.88415,0.48629 -0.0233,0.0277 -0.19473,0.12475 -0.381,0.21557 -0.55452,0.2704 -0.635,0.37123 -0.635,0.79561 0,0.71484 -0.53718,3.66609 -0.90389,4.96592 -0.30991,1.0985 -0.39497,1.37439 -0.5034,1.63271 -0.0642,0.15292 -0.11671,0.32954 -0.11671,0.39248 0,0.063 -0.0569,0.22358 -0.12647,0.35696 -0.0696,0.13339 -0.12672,0.30157 -0.127,0.37375 -2.9e-4,0.0722 -0.031,0.16743 -0.0683,0.21167 -0.0373,0.0442 -0.15513,0.30903 -0.26192,0.58843 -0.39969,1.04568 -1.33404,2.9544 -1.97714,4.03898 -0.26796,0.4519 -0.4872,0.8583 -0.4872,0.90311 0,0.0448 -0.0286,0.0942 -0.0635,0.10969 -0.075,0.0333 -0.4445,0.54954 -0.4445,0.62103 0,0.0271 -0.039,0.0954 -0.0867,0.1516 -0.16929,0.19969 -1.18331,1.59336 -1.18331,1.62634 0,0.0184 -0.09,0.13063 -0.19998,0.24931 -0.10999,0.11868 -0.29881,0.35877 -0.4196,0.53353 -0.24311,0.35173 -0.24601,0.31095 0.11268,1.58774 0.10465,0.37254 0.20629,0.75354 0.22586,0.84667 0.0266,0.12675 -0.23047,0.434 -1.02242,1.22181 l -1.05802,1.05248 -0.44909,-0.13825 c -0.5117,-0.15752 -1.27292,-0.36946 -1.60634,-0.44723 -0.18113,-0.0423 -0.31539,0.0177 -0.67733,0.30264 -0.24828,0.19543 -0.46412,0.38928 -0.47965,0.43077 -0.0155,0.0415 -0.0611,0.0754 -0.10138,0.0754 -0.0403,0 -0.40855,0.24673 -0.81845,0.54831 -0.4099,0.30157 -0.78546,0.57779 -0.83456,0.61383 -0.12968,0.0952 -0.29798,0.1984 -1.51938,0.93205 -1.30764,0.78544 -3.14749,1.70074 -4.318,2.14814 -0.2794,0.10679 -0.5442,0.22466 -0.58844,0.26192 -0.0442,0.0373 -0.13948,0.068 -0.21166,0.0683 -0.0722,2.8e-4 -0.24037,0.0574 -0.37375,0.127 -0.13338,0.0696 -0.29401,0.12648 -0.35696,0.12648 -0.063,0 -0.23957,0.0525 -0.39249,0.1167 -0.25831,0.10843 -0.5342,0.19349 -1.6327,0.5034 -1.29983,0.36671 -4.25108,0.9039 -4.96592,0.9039 -0.42438,0 -0.52521,0.0805 -0.79561,0.635 -0.0908,0.18626 -0.18783,0.35771 -0.21557,0.381 -0.0502,0.0421 -0.10882,0.14873 -0.48629,0.88414 l -0.19805,0.38586 h -1.50144 -1.50144 z m -1.09446,-6.60288 c -1.54671,-0.19105 -3.0528,-0.47387 -4.10633,-0.77109 -1.4271,-0.40261 -1.39624,-0.39226 -3.048,-1.02239 -0.43892,-0.16745 -1.29551,-0.55967 -1.98967,-0.91104 -1.05837,-0.53574 -1.48199,-0.7614 -1.524,-0.81183 -0.0233,-0.028 -0.13758,-0.10075 -0.254,-0.16177 -0.65791,-0.34483 -2.794,-1.84539 -2.794,-1.96274 0,-0.0376 -0.0571,-0.0683 -0.127,-0.0683 -0.0698,0 -0.127,-0.0317 -0.127,-0.0703 0,-0.0387 -0.1748,-0.19585 -0.38845,-0.34928 -0.51567,-0.37033 -2.88129,-2.73279 -3.24656,-3.24224 -0.1586,-0.22119 -0.32,-0.40216 -0.35867,-0.40216 -0.0387,0 -0.0703,-0.0571 -0.0703,-0.127 0,-0.0698 -0.0308,-0.127 -0.0683,-0.127 -0.11735,0 -1.61791,-2.13609 -1.96274,-2.794 -0.061,-0.11642 -0.13381,-0.23072 -0.16177,-0.254 -0.09,-0.075 -0.90869,-1.67585 -1.34222,-2.62467 -0.24486,-0.5359 -0.43592,-1.00448 -0.65594,-1.60867 -0.0593,-0.16298 -0.16429,-0.44873 -0.23321,-0.635 -0.11807,-0.3191 -0.23347,-0.69935 -0.51389,-1.69333 -0.44055,-1.56157 -0.81021,-3.92016 -0.85278,-5.44113 l -0.0766,-1.53381 0.0544,-1.16898 c 0.0688,-1.47955 0.10376,-1.64347 0.34067,-1.59929 0.33724,0.0629 1.53366,0.32023 1.89529,0.40766 l 1.63256,0.36127 c 0.20807,0.0276 0.60691,0.10242 0.88631,0.16622 0.2794,0.0638 0.8128,0.17859 1.18533,0.25509 0.37254,0.0765 0.82974,0.17644 1.016,0.22211 0.18627,0.0457 0.52917,0.11476 0.762,0.15354 0.23284,0.0388 0.59479,0.11173 0.80434,0.16212 0.20955,0.0504 0.6858,0.15469 1.05833,0.23179 0.37253,0.0771 0.90593,0.19026 1.18533,0.25147 0.2794,0.0612 0.8128,0.1748 1.18534,0.25243 0.37253,0.0776 0.90593,0.19161 1.18533,0.2533 0.2794,0.0617 0.8128,0.17433 1.18533,0.25031 0.37254,0.076 0.82974,0.1789 1.016,0.2287 0.18627,0.0498 0.52917,0.11906 0.762,0.15391 0.23284,0.0348 0.59479,0.10432 0.80434,0.15438 0.46286,0.11057 1.32832,0.29708 3.47133,0.74806 0.34925,0.0735 0.8636,0.18318 1.143,0.24375 1.05383,0.22846 1.71424,0.3689 2.37067,0.50413 0.37253,0.0767 0.84878,0.17952 1.05833,0.22838 0.20955,0.0489 0.65947,0.13898 0.99981,0.20024 0.52767,0.095 0.67295,0.16128 0.98636,0.45017 0.87397,0.80561 2.40302,1.17968 3.5595,0.87083 0.51427,-0.13735 1.22766,-0.45107 1.22766,-0.53988 0,-0.0356 0.0368,-0.0647 0.0818,-0.0647 0.17471,0 0.67039,-0.60157 0.92308,-1.12028 0.20124,-0.41307 0.26507,-0.65898 0.26507,-1.02111 0,-0.85588 -0.47962,-1.75236 -1.25776,-2.35094 -0.91922,-0.7071 -2.46209,-1.03448 -3.35657,-0.71223 -0.42583,0.15341 -0.62977,0.15452 -1.12709,0.006 -0.37313,-0.11133 -0.69856,-0.19727 -1.98441,-0.52405 -0.29104,-0.074 -0.71967,-0.18407 -0.9525,-0.24467 -0.78896,-0.20536 -1.47986,-0.3824 -1.98967,-0.50985 -0.2794,-0.0699 -0.7366,-0.18415 -1.016,-0.254 -0.2794,-0.0699 -0.74612,-0.18704 -1.03716,-0.26041 -0.29104,-0.0734 -0.75777,-0.19104 -1.03717,-0.26148 -0.2794,-0.0704 -0.6985,-0.17766 -0.93133,-0.23826 -0.62349,-0.16229 -1.411,-0.36489 -2.01084,-0.51733 -0.29104,-0.074 -0.71966,-0.18407 -0.9525,-0.24467 -1.07686,-0.2803 -1.56145,-0.40507 -2.032,-0.52323 -0.2794,-0.0702 -0.69335,-0.18157 -0.91989,-0.24759 -0.22653,-0.066 -0.46907,-0.12003 -0.53897,-0.12003 -0.0699,0 -0.30364,-0.0554 -0.51944,-0.12302 -0.2158,-0.0677 -0.63049,-0.18196 -0.92153,-0.254 -0.29104,-0.072 -0.75777,-0.18813 -1.03717,-0.25798 -0.2794,-0.0699 -0.72707,-0.18127 -0.99483,-0.24759 -0.51867,-0.12848 -1.31815,-0.33227 -2.01083,-0.51256 -0.78506,-0.20434 -1.47878,-0.38213 -2.01084,-0.51534 -0.29104,-0.0729 -0.64546,-0.16786 -0.78761,-0.2111 -0.14214,-0.0432 -0.42789,-0.11497 -0.635,-0.1594 -0.64618,-0.13865 -1.33242,-0.32269 -1.43148,-0.38391 -0.12269,-0.0758 -0.0997,-0.15934 0.39049,-1.42027 0.15872,-0.40828 0.84126,-1.90287 0.95695,-2.0955 0.0419,-0.0699 0.2217,-0.41275 0.39944,-0.762 0.17774,-0.34925 0.34411,-0.65405 0.36972,-0.67733 0.0256,-0.0233 0.12444,-0.17699 0.21963,-0.34156 0.36713,-0.63469 1.0847,-1.69044 1.14895,-1.69044 0.0371,0 0.0674,-0.054 0.0674,-0.11995 0,-0.066 0.0286,-0.13264 0.0635,-0.14816 0.0349,-0.0155 0.17346,-0.19015 0.30785,-0.38806 0.13439,-0.19791 0.27727,-0.35983 0.3175,-0.35983 0.0402,0 0.0731,-0.054 0.0731,-0.11995 0,-0.066 0.0328,-0.13264 0.0728,-0.14816 0.0401,-0.0155 0.2963,-0.29493 0.56944,-0.62089 0.63723,-0.7605 2.02622,-2.14949 2.78672,-2.78673 0.32597,-0.27313 0.60537,-0.52938 0.62089,-0.56944 0.0155,-0.0401 0.0822,-0.0728 0.14817,-0.0728 0.066,0 0.11994,-0.0308 0.11994,-0.0683 0,-0.11734 2.13609,-1.6179 2.794,-1.96274 0.11642,-0.061 0.23072,-0.13381 0.254,-0.16176 0.0689,-0.0827 1.74708,-0.94078 2.62467,-1.34204 0.60538,-0.2768 1.13304,-0.48623 2.26483,-0.89888 0.46447,-0.16935 1.24234,-0.39249 2.52794,-0.72515 0.64237,-0.16623 1.75924,-0.35025 3.12356,-0.51466 3.95277,-0.47633 8.42175,0.0664 12.1285,1.47302 0.87355,0.33148 1.11163,0.42872 1.62984,0.66567 0.87758,0.40126 2.55581,1.25937 2.62466,1.34204 0.0233,0.028 0.13759,0.10074 0.254,0.16176 0.65792,0.34484 2.794,1.8454 2.794,1.96274 0,0.0376 0.054,0.0683 0.11995,0.0683 0.066,0 0.13264,0.0328 0.14816,0.0728 0.0155,0.0401 0.29493,0.29604 0.62089,0.56885 0.32597,0.27282 0.96812,0.87083 1.427,1.32891 0.81057,0.80917 0.83007,0.8376 0.68472,0.99821 -0.0823,0.0909 -0.30534,0.20597 -0.49567,0.25565 -0.19032,0.0497 -0.57465,0.14879 -0.85405,0.22026 -0.2794,0.0715 -0.6985,0.17953 -0.93133,0.24014 -0.63257,0.16465 -1.87251,0.47909 -3.048,0.77297 -0.2794,0.0699 -0.7366,0.18415 -1.016,0.254 -0.58591,0.14647 -1.33961,0.33885 -1.94733,0.49703 -0.23284,0.0606 -0.65194,0.16782 -0.93134,0.23826 -0.47251,0.11912 -0.98406,0.25097 -2.032,0.52374 -0.39581,0.10302 -0.77259,0.19979 -2.032,0.52189 -0.2794,0.0714 -0.6985,0.1795 -0.93133,0.24011 -0.69268,0.18029 -1.49217,0.38408 -2.01083,0.51256 -0.26776,0.0663 -0.71544,0.17774 -0.99484,0.24759 -0.2794,0.0699 -0.7366,0.18415 -1.016,0.254 -0.94893,0.23723 -1.56526,0.39935 -2.01083,0.52892 -0.40796,0.11863 -0.48339,0.11703 -0.91762,-0.0196 -0.5907,-0.18579 -1.63377,-0.13965 -2.33908,0.10348 -0.66669,0.22981 -1.38264,0.74191 -1.77188,1.26738 -0.17962,0.24248 -0.32659,0.47625 -0.32659,0.51948 0,0.0432 -0.0569,0.18774 -0.12647,0.32112 -0.28967,0.55541 -0.0833,1.66584 0.44791,2.40957 0.51804,0.72536 1.73252,1.26194 2.85627,1.26194 0.75303,0 2.15629,-0.3963 2.15629,-0.60896 0,-0.0376 0.046,-0.0684 0.10227,-0.0684 0.0562,0 0.23722,-0.13125 0.40216,-0.29166 0.30542,-0.29701 0.36309,-0.31686 1.73924,-0.59848 0.37253,-0.0762 0.90593,-0.18868 1.18533,-0.24989 0.2794,-0.0612 0.8128,-0.17551 1.18534,-0.254 0.37253,-0.0785 0.90593,-0.19443 1.18533,-0.25763 0.2794,-0.0632 0.6223,-0.13481 0.762,-0.15914 0.1397,-0.0243 0.61595,-0.12651 1.05833,-0.22709 0.44239,-0.10057 0.97579,-0.21128 1.18534,-0.24603 0.20955,-0.0348 0.55245,-0.10423 0.762,-0.1544 0.20955,-0.0502 0.6858,-0.15429 1.05833,-0.23139 0.37253,-0.0771 0.90593,-0.19089 1.18533,-0.25287 0.2794,-0.062 0.8128,-0.17661 1.18534,-0.25474 1.49619,-0.31382 1.80004,-0.37883 2.32833,-0.4982 0.30268,-0.0684 0.75121,-0.15071 0.99673,-0.18291 0.24552,-0.0322 0.46685,-0.0916 0.49183,-0.13207 0.025,-0.0404 0.14171,-0.0735 0.25937,-0.0735 0.11767,0 0.4488,-0.0561 0.73584,-0.12466 0.28704,-0.0686 0.7886,-0.17961 1.11456,-0.24677 1.15666,-0.23833 1.95392,-0.40616 2.45534,-0.51687 0.2794,-0.0617 0.79375,-0.17176 1.143,-0.2446 0.34925,-0.0728 0.83719,-0.1759 1.08431,-0.22903 0.52533,-0.11295 0.50154,-0.13271 0.96738,0.8039 0.63478,1.27628 0.88884,1.87443 1.45074,3.41553 0.34839,0.95553 0.78389,2.68179 1.01993,4.04283 0.60029,3.46132 0.52002,6.65932 -0.26032,10.37167 -0.22919,1.09036 -0.59232,2.31725 -1.00238,3.38666 -0.0804,0.20955 -0.20422,0.5334 -0.27528,0.71967 -0.33418,0.87598 -1.56171,3.37943 -1.72287,3.51367 -0.028,0.0233 -0.10075,0.13758 -0.16177,0.254 -0.34483,0.65791 -1.8454,2.794 -1.96274,2.794 -0.0376,0 -0.0683,0.0572 -0.0683,0.127 0,0.0699 -0.0316,0.127 -0.0703,0.127 -0.0387,0 -0.20024,0.18092 -0.35904,0.40205 -0.37422,0.52108 -2.71151,2.85837 -3.2326,3.23259 -0.22112,0.1588 -0.40205,0.32037 -0.40205,0.35904 0,0.0387 -0.0571,0.0703 -0.127,0.0703 -0.0698,0 -0.127,0.0308 -0.127,0.0683 0,0.11735 -2.13608,1.61791 -2.794,1.96274 -0.11641,0.061 -0.23071,0.13381 -0.254,0.16177 -0.0233,0.0279 -0.25188,0.15937 -0.508,0.29204 -1.79616,0.93041 -2.52053,1.26213 -3.7465,1.71566 -0.95574,0.35357 -1.02844,0.37681 -2.30716,0.73756 -1.09414,0.30868 -2.63841,0.59488 -4.10634,0.76102 -1.35423,0.15328 -4.38439,0.15874 -5.588,0.0101 z m 4.7625,-24.14791 c -0.56097,-0.20103 -0.85711,-0.94501 -1.68579,-1.07517 -0.17877,-0.0281 -0.53459,-0.10351 -0.79071,-0.16761 -0.25611,-0.0641 -0.77046,-0.17872 -1.143,-0.25469 -0.37253,-0.076 -0.94403,-0.19463 -1.27,-0.26368 -0.32596,-0.0691 -0.87841,-0.1857 -1.22766,-0.25919 -0.34925,-0.0735 -0.8636,-0.18319 -1.143,-0.24376 -0.89813,-0.1947 -1.67665,-0.36109 -2.37067,-0.50666 -0.37253,-0.0781 -0.90593,-0.19254 -1.18533,-0.25423 -0.2794,-0.0617 -0.8128,-0.17474 -1.18534,-0.25123 -0.37253,-0.0765 -0.82973,-0.17644 -1.016,-0.22211 -0.18626,-0.0457 -0.52916,-0.11477 -0.762,-0.15355 -0.23283,-0.0388 -0.59478,-0.11173 -0.80433,-0.16211 -0.20955,-0.0504 -0.6858,-0.15469 -1.05833,-0.2318 -0.37254,-0.0771 -0.90594,-0.19026 -1.18534,-0.25147 -0.2794,-0.0612 -0.8128,-0.17479 -1.18533,-0.25242 -0.37253,-0.0776 -0.90593,-0.19162 -1.18533,-0.25331 -0.2794,-0.0617 -0.8128,-0.17545 -1.18534,-0.25281 -5.0147,-1.0419 -2.24389,-0.48325 -6.01133,-1.274 -0.37253,-0.0782 -0.90593,-0.19224 -1.18533,-0.25345 -0.2794,-0.0612 -0.8128,-0.17517 -1.18534,-0.25326 -0.37253,-0.0781 -0.88938,-0.19526 -1.14855,-0.26037 -0.25917,-0.0651 -0.56062,-0.11839 -0.66989,-0.11839 -0.10927,0 -0.39252,-0.0544 -0.62945,-0.12087 -0.23692,-0.0665 -0.73557,-0.18264 -1.10811,-0.25815 -0.37253,-0.0755 -0.94403,-0.1938 -1.27,-0.26285 -0.32596,-0.0691 -0.87841,-0.18569 -1.22766,-0.25919 -0.34925,-0.0735 -0.8636,-0.18371 -1.143,-0.24492 -0.2794,-0.0612 -0.8128,-0.1755 -1.18534,-0.254 -0.37253,-0.0785 -0.90593,-0.19216 -1.18533,-0.2526 -0.2794,-0.0604 -0.79375,-0.16931 -1.143,-0.24194 -0.34925,-0.0726 -0.9017,-0.18889 -1.22767,-0.25836 -0.32596,-0.0695 -0.87841,-0.18631 -1.22766,-0.25965 -0.34925,-0.0733 -0.88265,-0.18589 -1.18534,-0.25011 -0.30268,-0.0642 -0.85513,-0.1807 -1.22766,-0.25884 -1.00051,-0.20985 -0.693,-0.16389 -0.81098,-0.26009 -0.16616,-0.13548 -0.13122,-1.29073 0.057,-1.88589 0.16616,-0.52529 0.27902,-0.76556 0.54684,-1.16417 0.18266,-0.27186 -0.10519,-0.44743 0.50952,-0.25502 0.37779,0.11825 1.06459,0.30166 1.96242,0.52406 0.6198,0.15352 1.3583,0.33815 2.032,0.508 0.29104,0.0734 0.75777,0.19104 1.03717,0.26148 0.2794,0.0704 0.6985,0.17766 0.93133,0.23826 0.23283,0.0606 0.67098,0.17467 0.97367,0.25349 0.30268,0.0788 0.73568,0.19731 0.96222,0.26333 0.22654,0.066 0.46703,0.12003 0.53442,0.12003 0.0674,0 0.30115,0.0533 0.51945,0.11842 0.37313,0.11133 0.69856,0.19727 1.98441,0.52406 0.29104,0.074 0.71966,0.18407 0.9525,0.24467 1.13979,0.29667 1.56315,0.40536 2.01083,0.51626 0.26776,0.0663 0.71543,0.17774 0.99483,0.24759 0.2794,0.0699 0.7366,0.18415 1.016,0.254 0.68734,0.17183 1.4779,0.37294 1.98967,0.50615 1.04793,0.27276 1.55949,0.40461 2.032,0.52374 0.2794,0.0704 0.6985,0.17766 0.93133,0.23826 0.52907,0.13771 1.27447,0.3284 1.98967,0.509 0.30268,0.0764 0.74083,0.18862 0.97367,0.2493 0.98268,0.2561 1.46825,0.38096 1.94733,0.50073 0.56195,0.14049 1.29023,0.32392 2.0955,0.52779 0.29104,0.0737 0.71452,0.18798 0.94106,0.254 0.22654,0.066 0.46703,0.12003 0.53442,0.12003 0.0674,0 0.30115,0.0533 0.51945,0.11842 0.37312,0.11133 0.69855,0.19727 1.9844,0.52406 0.29105,0.074 0.71967,0.18406 0.9525,0.24467 0.23284,0.0606 0.65194,0.16865 0.93134,0.24011 1.2594,0.32209 1.63619,0.41886 2.032,0.52189 1.10328,0.28717 1.563,0.40541 2.032,0.52266 0.2794,0.0699 0.7366,0.18415 1.016,0.254 0.2794,0.0699 0.7366,0.18415 1.016,0.254 0.72759,0.1819 1.4588,0.36646 1.94733,0.49151 1.67923,0.42985 1.66136,0.42745 1.97426,0.26564 0.386,-0.1996 1.49575,-0.18258 1.97314,0.0303 0.66846,0.29804 1.17525,0.93291 1.17462,1.47146 -3.3e-4,0.27774 -0.25714,0.77693 -0.49724,0.96652 -0.0756,0.0597 -0.29728,0.18419 -0.49263,0.27666 -0.44113,0.2088 -1.3472,0.21724 -1.86732,0.0174 -1e-5,-1e-5 3e-5,-3e-5 3e-5,-3e-5 z m -5.82083,-10.69596 c -0.18627,-0.0991 -0.4094,-0.24227 -0.49584,-0.31822 -0.22165,-0.19473 -0.47783,-0.72523 -0.47783,-0.98949 0,-0.45924 0.51771,-1.09372 1.143,-1.40082 0.43766,-0.21495 1.59488,-0.23794 1.97898,-0.0393 0.31568,0.16324 0.43248,0.16457 0.97692,0.0111 0.41115,-0.11591 0.84228,-0.22646 2.01827,-0.51754 0.29104,-0.072 0.70573,-0.18634 0.92153,-0.254 0.2158,-0.0677 0.44955,-0.12302 0.51944,-0.12302 0.0699,0 0.31244,-0.054 0.53897,-0.12003 0.22654,-0.066 0.64049,-0.17744 0.91989,-0.2476 0.2794,-0.0702 0.75565,-0.19259 1.05834,-0.27207 1.00516,-0.26396 1.39212,-0.36396 1.92616,-0.49774 0.53334,-0.13361 1.23062,-0.31233 2.01084,-0.51541 0.43299,-0.1127 1.04611,-0.26803 1.94733,-0.49333 0.2794,-0.0699 0.7366,-0.18415 1.016,-0.254 1.2096,-0.30241 1.98475,-0.49992 3.048,-0.77667 0.23283,-0.0606 0.65193,-0.16782 0.93133,-0.23826 3.70695,-0.777 7.34168,-1.8567 11.00667,-2.80977 0.23283,-0.0606 0.65193,-0.16782 0.93133,-0.23826 0.47252,-0.11913 0.98407,-0.25098 2.032,-0.52374 0.39582,-0.10303 0.7726,-0.1998 2.032,-0.52189 0.2794,-0.0715 0.6985,-0.17951 0.93134,-0.24011 0.23283,-0.0606 0.65193,-0.16782 0.93133,-0.23826 0.2794,-0.0704 0.75565,-0.19099 1.05833,-0.26789 0.70065,-0.17801 1.43915,-0.36263 2.032,-0.508 0.4271,-0.10473 0.82119,-0.20571 1.98967,-0.50985 0.4481,-0.11663 1.08463,-0.27779 1.98967,-0.50372 0.30268,-0.0756 0.72689,-0.19275 0.94269,-0.26041 0.54688,-0.17147 0.58631,-0.0967 0.74918,0.0935 0.44215,0.51639 0.76663,1.59857 0.73457,2.44969 l -0.0247,0.65567 -0.46567,0.14275 c -0.25611,0.0785 -0.33585,0.143 -0.70839,0.21933 -0.37253,0.0763 -0.90593,0.18887 -1.18533,0.25008 -0.4725,0.1035 -0.82394,0.17808 -2.37067,0.50307 -0.32596,0.0685 -0.87841,0.18523 -1.22766,0.25942 -0.34925,0.0742 -0.92075,0.19433 -1.27,0.26696 -0.34925,0.0726 -0.8636,0.18151 -1.143,0.24194 -0.2794,0.0604 -0.8128,0.17411 -1.18534,0.25261 -0.37253,0.0785 -0.90593,0.19279 -1.18533,0.254 -0.2794,0.0612 -0.79375,0.17141 -1.143,0.24491 -0.34925,0.0735 -0.92075,0.19434 -1.27,0.26853 -0.79194,0.16824 -1.63189,0.34477 -2.45533,0.51601 -0.34925,0.0726 -0.8636,0.18151 -1.143,0.24194 -0.2794,0.0604 -0.8128,0.17453 -1.18534,0.25353 -1.11852,0.23721 -1.83452,0.3918 -2.37066,0.51186 -0.2794,0.0626 -0.6223,0.13366 -0.762,0.15798 -0.1397,0.0243 -0.61595,0.12652 -1.05834,0.22709 -0.44238,0.10057 -0.97578,0.21129 -1.18533,0.24604 -0.20955,0.0348 -0.55245,0.10423 -0.762,0.15439 -0.20955,0.0502 -0.6858,0.15358 -1.05833,0.22982 -0.37254,0.0762 -0.90594,0.18932 -1.18534,0.25129 -0.2794,0.062 -0.8128,0.17691 -1.18533,0.2554 -0.37253,0.0785 -0.90593,0.19217 -1.18533,0.2526 -0.54542,0.11798 -1.50039,0.32095 -2.45534,0.52186 -0.32596,0.0686 -0.76411,0.16479 -0.97366,0.21379 -0.20955,0.049 -0.6477,0.14025 -0.97367,0.20277 -0.32597,0.0625 -0.85937,0.17401 -1.18533,0.24777 -0.32597,0.0737 -0.70697,0.15428 -0.84667,0.17896 -0.1397,0.0247 -0.4826,0.0959 -0.762,0.15837 -0.2794,0.0624 -0.8128,0.17745 -1.18533,0.25558 -0.69402,0.14557 -1.47255,0.31196 -2.37067,0.50666 -0.2794,0.0606 -0.79375,0.17026 -1.143,0.24376 -0.34925,0.0735 -0.9017,0.19013 -1.22767,0.25919 -0.32596,0.0691 -0.89746,0.18769 -1.27,0.26364 -1.19173,0.24294 -1.27902,0.2768 -1.48369,0.5755 -0.10614,0.1549 -0.27292,0.32293 -0.37064,0.37341 -0.66707,0.3446 -0.82117,0.39037 -1.40533,0.41739 -0.5225,0.0242 -0.695,-0.003 -0.97367,-0.15076 z m -23.70667,-0.80719 c -0.22388,-0.0448 -1.07744,-0.26483 -1.6161,-0.41668 -0.23693,-0.0668 -0.48822,-0.12144 -0.55842,-0.12144 -0.10863,0 -0.11347,-0.0536 -0.0325,-0.35984 0.0523,-0.1979 0.14167,-0.44305 0.19858,-0.54476 0.0569,-0.10172 0.10348,-0.25602 0.10348,-0.3429 0,-0.0869 0.0305,-0.19416 0.0677,-0.2384 0.0373,-0.0442 0.15512,-0.30904 0.26192,-0.58844 0.39969,-1.04567 1.33404,-2.9544 1.97714,-4.03897 0.26796,-0.45191 0.48719,-0.85831 0.48719,-0.90312 0,-0.0448 0.0286,-0.0942 0.0635,-0.10968 0.075,-0.0333 0.4445,-0.54955 0.4445,-0.62104 0,-0.0271 0.04,-0.0953 0.0888,-0.15159 0.0488,-0.0563 0.27908,-0.36896 0.51161,-0.69493 0.23254,-0.32597 0.47832,-0.65978 0.54618,-0.7418 0.0679,-0.082 0.12338,-0.18362 0.12338,-0.22578 0,-0.0421 0.0364,-0.0893 0.0809,-0.10486 0.0445,-0.0155 0.23423,-0.23413 0.42167,-0.48579 0.26304,-0.35316 0.32957,-0.5077 0.2916,-0.67733 -0.0752,-0.33583 -0.28267,-1.10001 -0.43469,-1.60083 l -0.13651,-0.44972 1.07111,-1.07112 1.07111,-1.07111 0.32025,0.11691 c 0.17614,0.0643 0.4536,0.1443 0.61658,0.17779 0.16299,0.0335 0.5332,0.12421 0.82271,0.20161 l 0.52637,0.14072 0.44729,-0.35207 c 0.24602,-0.19363 0.46,-0.38601 0.47552,-0.42751 0.0155,-0.0415 0.0611,-0.0754 0.10139,-0.0754 0.0402,0 0.40854,-0.24674 0.81845,-0.54831 0.4099,-0.30157 0.78545,-0.5778 0.83456,-0.61383 0.11455,-0.0841 0.20026,-0.13655 1.51938,-0.93048 0.929,-0.55913 2.57357,-1.41086 3.556,-1.84168 0.1397,-0.0613 0.38735,-0.16972 0.55033,-0.24102 0.16299,-0.0713 0.40147,-0.15583 0.52997,-0.18787 0.1285,-0.032 0.25457,-0.0921 0.28016,-0.13352 0.0256,-0.0414 0.11096,-0.0755 0.1897,-0.0758 0.0787,-2.9e-4 0.2523,-0.0574 0.38569,-0.127 0.13338,-0.0696 0.29401,-0.12648 0.35696,-0.12648 0.0629,0 0.23956,-0.0525 0.39248,-0.11671 0.25832,-0.10842 0.53421,-0.19349 1.63271,-0.5034 1.29983,-0.36671 4.25108,-0.90389 4.96592,-0.90389 0.42438,0 0.52521,-0.0805 0.79561,-0.635 0.0908,-0.18627 0.18783,-0.35772 0.21557,-0.381 0.0502,-0.0421 0.10882,-0.14873 0.48629,-0.88414 l 0.19805,-0.38586 h 1.50889 1.5089 l 0.19805,0.38586 c 0.37747,0.73541 0.4361,0.84201 0.48629,0.88414 0.0277,0.0233 0.12474,0.19473 0.21557,0.381 0.2704,0.55452 0.37123,0.635 0.79561,0.635 1.13607,0 5.42516,0.91474 6.59862,1.40729 0.15292,0.0642 0.32954,0.11671 0.39249,0.11671 0.063,0 0.22358,0.0569 0.35696,0.12648 0.13338,0.0696 0.30157,0.12671 0.37375,0.127 0.0722,2.8e-4 0.16743,0.031 0.21166,0.0683 0.0442,0.0373 0.30904,0.15512 0.58844,0.26191 1.02246,0.39082 2.92194,1.31843 4.04935,1.9775 0.45803,0.26776 0.8646,0.48684 0.90349,0.48684 0.0389,0 0.0834,0.0286 0.0989,0.0635 0.0333,0.075 0.54955,0.4445 0.62104,0.4445 0.0271,0 0.0953,0.0385 0.15159,0.0855 0.0562,0.047 0.59756,0.452 1.20293,0.89998 0.60537,0.44797 1.18268,0.88891 1.28292,0.97986 0.17669,0.16033 0.19864,0.16099 0.71966,0.0218 0.29558,-0.079 0.67077,-0.17095 0.83375,-0.20444 0.16299,-0.0335 0.44017,-0.1134 0.61596,-0.17757 l 0.31963,-0.11668 1.0562,1.05368 1.23074,4.29069 -2.74857,0.84517 c -0.1494,0.0459 -0.93512,-0.99059 -1.79653,-1.83782 -1.30664,-1.28511 -1.55531,-1.52216 -1.59679,-1.52216 -0.0191,0 -0.17979,-0.13514 -0.35701,-0.3003 -0.17721,-0.16517 -0.42698,-0.36388 -0.55504,-0.44159 -0.12806,-0.0777 -0.23284,-0.17117 -0.23284,-0.2077 0,-0.0365 -0.0571,-0.0664 -0.127,-0.0664 -0.0698,0 -0.127,-0.0346 -0.127,-0.0769 0,-0.0423 -0.17138,-0.18517 -0.38084,-0.3175 -0.20947,-0.13234 -0.38092,-0.26919 -0.381,-0.30411 -9e-5,-0.0349 -0.0398,-0.0635 -0.0883,-0.0635 -0.0804,0 -0.57318,-0.3141 -0.67391,-0.42951 -0.0233,-0.0267 -0.0995,-0.0758 -0.16933,-0.10916 -0.14664,-0.07 -0.32405,-0.17774 -0.82382,-0.50023 -0.19698,-0.12711 -0.39383,-0.2311 -0.43744,-0.2311 -0.0436,0 -0.092,-0.0286 -0.10752,-0.0635 -0.043,-0.0967 -1.62978,-0.91974 -2.48355,-1.28812 -0.23284,-0.10046 -0.53764,-0.23399 -0.67734,-0.29672 -0.1397,-0.0627 -0.42545,-0.17857 -0.635,-0.25741 -0.20955,-0.0788 -0.50611,-0.19665 -0.65904,-0.2618 -0.15292,-0.0652 -0.35069,-0.11845 -0.4395,-0.11845 -0.0888,0 -0.1832,-0.0352 -0.20976,-0.0781 -0.0266,-0.043 -0.17169,-0.10304 -0.3225,-0.13346 -0.15081,-0.0304 -0.4266,-0.10611 -0.61286,-0.16821 -1.16424,-0.38812 -3.00702,-0.769 -4.91067,-1.01497 -1.39149,-0.1798 -5.12785,-0.1798 -6.51933,0 -1.90366,0.24597 -3.74644,0.62685 -4.91067,1.01497 -0.18627,0.0621 -0.46205,0.13779 -0.61286,0.16821 -0.15081,0.0304 -0.29593,0.0905 -0.3225,0.13346 -0.0266,0.043 -0.12096,0.0781 -0.20976,0.0781 -0.0888,0 -0.28659,0.0533 -0.43951,0.11845 -0.15292,0.0651 -0.44949,0.18296 -0.65904,0.2618 -0.20955,0.0788 -0.4953,0.19468 -0.635,0.25741 -0.1397,0.0627 -0.4445,0.19626 -0.67733,0.29672 -0.64503,0.27831 -1.834,0.88134 -2.22752,1.12976 -0.1933,0.12202 -0.37201,0.22186 -0.39715,0.22186 -0.0251,0 -0.20686,0.10399 -0.40385,0.2311 -0.50471,0.32568 -0.67826,0.43087 -0.82381,0.49931 -0.0699,0.0328 -0.26584,0.16769 -0.43552,0.29965 -0.16968,0.13197 -0.35066,0.23994 -0.40217,0.23994 -0.0515,0 -0.0937,0.0286 -0.0938,0.0635 -8e-5,0.0349 -0.17153,0.17177 -0.381,0.30411 -0.20946,0.13233 -0.38085,0.27521 -0.38085,0.3175 0,0.0423 -0.0571,0.0769 -0.127,0.0769 -0.0698,0 -0.127,0.0293 -0.127,0.0651 0,0.0358 -0.0911,0.12151 -0.20239,0.1905 -0.8331,0.51635 -4.26054,3.95124 -4.82242,4.83291 -0.0861,0.13505 -0.19084,0.24554 -0.23283,0.24554 -0.042,0 -0.0764,0.0572 -0.0764,0.127 0,0.0699 -0.0348,0.127 -0.0774,0.127 -0.0426,0 -0.19158,0.18097 -0.33112,0.40216 -0.35784,0.56723 -0.72329,1.07453 -0.79798,1.10773 -0.0349,0.0155 -0.0635,0.0662 -0.0635,0.11265 0,0.0464 -0.12989,0.28138 -0.28865,0.52211 -0.71936,1.09073 -1.92226,3.51148 -2.48938,5.00968 -0.14102,0.37253 -0.26897,0.75038 -0.28435,0.83965 -0.0308,0.17877 -0.11185,0.21507 -0.36662,0.16414 z"
         id="path1-9"
         clip-path="url(#clipPath2-5)"
         sodipodi:nodetypes="csssssssssssssssscscssscsscsssssssssssssssssscssscccssssscsssscssssssssssssssssssscssssssssssssssssssssssssssssssssssssssssssssssssssssssssssssssssssssssssssssssssscssssscccssscccssssssssssssssscsssssscssssssssssssssssssscccccsssssssssssssssssssccssccsssssssssssssssssssssssssscsssssssssssscssssssssscssssssssssssssssssssssssssssssssssssssssssssscssssssssssssssssssssssssssssssssssssssssssssssssssscccssssssssssssssssssssssssssssssssssssssssssssssssssssssssssssssssssssssssssccssssssssssssssssssssssssssssssssssssssscsssssssssssssssssssssssssscscsssssssssscssssscssssssssscssscccssscssssssssssssssssssscccsssssssssssssscsssssscccsssssssssssssssssssssssssssssssssssscssssssscssss"
         transform="matrix(-2.6414513,0,0,-2.6414513,631.47175,764.94501)" /><path
         style="fill:#1a1a1a;stroke:none;stroke-width:0.330547;stroke-dasharray:none;stroke-opacity:1"
         d="m 194.69195,266.36459 c -0.11303,-0.21322 -0.25901,-0.48945 -0.32441,-0.61384 -0.0654,-0.12439 -0.1416,-0.24521 -0.16933,-0.26849 -0.0277,-0.0233 -0.12475,-0.19474 -0.21557,-0.381 -0.2704,-0.55453 -0.37123,-0.635 -0.79561,-0.635 -0.71484,0 -3.66609,-0.53719 -4.96592,-0.9039 -0.96262,-0.27157 -1.36868,-0.39835 -1.62146,-0.50624 -0.14674,-0.0626 -0.32336,-0.11386 -0.39249,-0.11386 -0.0691,0 -0.23482,-0.0569 -0.3682,-0.12648 -0.13339,-0.0696 -0.30157,-0.12672 -0.37375,-0.127 -0.0722,-2.9e-4 -0.16743,-0.031 -0.21167,-0.0683 -0.0442,-0.0373 -0.30903,-0.15513 -0.58843,-0.26192 -1.17401,-0.44874 -3.01289,-1.36423 -4.318,-2.14972 -1.34494,-0.80946 -1.40771,-0.84799 -1.51938,-0.93261 -0.0491,-0.0372 -0.35599,-0.25791 -0.68195,-0.49044 -0.32597,-0.23254 -0.65978,-0.47832 -0.7418,-0.54618 -0.082,-0.0679 -0.18363,-0.12338 -0.22578,-0.12338 -0.0422,0 -0.0893,-0.034 -0.10487,-0.0754 -0.0155,-0.0415 -0.2295,-0.23387 -0.47552,-0.42751 l -0.44729,-0.35207 -0.48404,0.12878 c -0.26622,0.0708 -0.57929,0.15101 -0.6957,0.17818 -0.11642,0.0272 -0.41247,0.1126 -0.6579,0.18985 l -0.44622,0.14046 -1.00493,-1.00231 c -1.1821,-1.17902 -1.14862,-1.0289 -0.6478,-2.90464 l 0.14054,-0.52637 -0.35207,-0.44729 c -0.19364,-0.24602 -0.38602,-0.46 -0.42751,-0.47552 -0.0415,-0.0155 -0.0755,-0.0611 -0.0755,-0.10139 0,-0.0618 -0.91274,-1.34683 -1.18331,-1.66598 -0.0477,-0.0562 -0.0867,-0.12446 -0.0867,-0.1516 0,-0.0715 -0.36946,-0.58768 -0.4445,-0.62103 -0.0349,-0.0155 -0.0635,-0.0649 -0.0635,-0.10969 0,-0.0448 -0.21923,-0.45121 -0.48719,-0.90311 -0.70092,-1.18209 -1.52939,-2.87527 -1.97624,-4.03898 -0.10729,-0.2794 -0.22556,-0.5442 -0.26282,-0.58843 -0.0373,-0.0442 -0.068,-0.13949 -0.0683,-0.21167 -2.8e-4,-0.0722 -0.0574,-0.24036 -0.127,-0.37375 -0.0696,-0.13338 -0.12648,-0.29401 -0.12648,-0.35696 0,-0.0629 -0.0525,-0.23956 -0.1167,-0.39248 -0.10787,-0.25699 -0.16869,-0.45377 -0.50459,-1.63271 -0.0663,-0.23283 -0.18622,-0.72813 -0.26642,-1.10067 -0.0802,-0.37253 -0.18448,-0.84878 -0.23174,-1.05833 -0.0473,-0.20955 -0.12216,-0.66675 -0.16646,-1.016 -0.52275,-4.12125 0.49748,4.00101 -0.23813,-1.84459 0,-0.36528 -0.0985,-0.48037 -0.635,-0.74198 -0.18626,-0.0908 -0.35771,-0.18783 -0.381,-0.21557 -0.0421,-0.0502 -0.14873,-0.10881 -0.88414,-0.48629 l -0.38586,-0.19805 v -1.50144 -1.50144 l 0.38767,-0.20551 c 0.21322,-0.11302 0.48945,-0.25901 0.61384,-0.32441 0.12439,-0.0654 0.24521,-0.14159 0.26849,-0.16933 0.0233,-0.0277 0.19474,-0.12474 0.381,-0.21557 0.582,-0.28379 0.635,-0.35944 0.635,-0.90632 v -0.49487 h 0.26962 c 0.14828,0 0.48166,0.0546 0.74083,0.12141 0.25917,0.0668 0.70424,0.16615 0.98905,0.22083 0.28481,0.0547 0.55586,0.12387 0.60233,0.15375 0.053,0.0341 0.0596,0.22777 0.0175,0.52001 -0.23197,2.44402 -0.34113,3.94653 0.0854,6.32969 0.21976,1.66895 0.61636,3.54577 0.97936,4.63464 0.0621,0.18627 0.13779,0.46205 0.1682,0.61286 0.0304,0.15081 0.0905,0.29593 0.13346,0.3225 0.043,0.0266 0.0781,0.12096 0.0781,0.20976 0,0.0888 0.0533,0.28659 0.11846,0.43951 0.0651,0.15292 0.18296,0.44949 0.2618,0.65904 0.0788,0.20955 0.19467,0.4953 0.25741,0.635 0.0627,0.1397 0.19625,0.4445 0.29671,0.67733 0.22818,0.52883 0.84666,1.76503 1.08017,2.159 0.0966,0.16298 0.25841,0.44873 0.35957,0.635 0.10117,0.18627 0.29418,0.5025 0.42891,0.70274 0.13474,0.20025 0.24497,0.38526 0.24497,0.41115 0,0.0259 0.1143,0.19139 0.254,0.36778 0.1397,0.17638 0.254,0.36284 0.254,0.41435 0,0.0515 0.0286,0.0937 0.0635,0.0938 0.0349,8e-5 0.17178,0.17153 0.30411,0.381 0.13234,0.20946 0.27521,0.38085 0.3175,0.38085 0.0423,0 0.0769,0.054 0.0769,0.11994 0,0.066 0.0298,0.13264 0.0661,0.14817 0.0364,0.0155 0.2359,0.24729 0.44338,0.51505 0.20749,0.26776 0.40632,0.48684 0.44186,0.48684 0.0355,0 0.0646,0.0353 0.0646,0.0786 0,0.13789 1.23348,1.41275 2.89354,2.9906 0.13473,0.12806 0.27858,0.23284 0.31966,0.23284 0.0411,0 0.0874,0.0337 0.10291,0.0748 0.0452,0.11985 1.05963,0.94117 1.16246,0.94117 0.0514,0 0.0934,0.0346 0.0934,0.0769 0,0.0423 0.17139,0.18516 0.38085,0.3175 0.20947,0.13233 0.38092,0.26918 0.381,0.30411 9e-5,0.0349 0.0423,0.0635 0.0938,0.0635 0.0515,0 0.23249,0.10797 0.40217,0.23993 0.16968,0.13196 0.36567,0.26681 0.43552,0.29965 0.13933,0.0655 0.2939,0.1586 0.80433,0.48433 0.18627,0.11887 0.39582,0.24224 0.46567,0.27417 0.0698,0.0319 0.26035,0.13926 0.42333,0.23852 0.37272,0.22701 1.60051,0.84404 2.159,1.08501 0.23283,0.10047 0.53763,0.23399 0.67733,0.29672 0.1397,0.0627 0.42545,0.17857 0.635,0.25741 0.20955,0.0788 0.50612,0.19665 0.65904,0.2618 0.15292,0.0652 0.3507,0.11846 0.43951,0.11846 0.0888,0 0.1832,0.0352 0.20976,0.0781 0.0266,0.043 0.17169,0.10304 0.3225,0.13346 0.15081,0.0304 0.42659,0.10611 0.61286,0.1682 0.74349,0.24786 1.9568,0.53625 3.175,0.75467 1.73725,0.31147 2.7592,0.39159 4.99533,0.39159 2.23614,0 3.25809,-0.0801 4.99534,-0.39159 1.2182,-0.21842 2.43151,-0.50681 3.175,-0.75467 0.18626,-0.0621 0.46205,-0.13779 0.61286,-0.1682 0.15081,-0.0304 0.29593,-0.0905 0.3225,-0.13346 0.0266,-0.043 0.12096,-0.0781 0.20976,-0.0781 0.0888,0 0.28658,-0.0533 0.4395,-0.11846 0.15293,-0.0652 0.44949,-0.18296 0.65904,-0.2618 0.20955,-0.0788 0.4953,-0.19467 0.635,-0.25741 0.1397,-0.0627 0.4445,-0.19625 0.67734,-0.29672 0.52882,-0.22817 1.76503,-0.84665 2.159,-1.08016 0.16298,-0.0966 0.43799,-0.2531 0.61113,-0.34778 0.17314,-0.0947 0.47794,-0.27739 0.67734,-0.40601 0.48981,-0.31598 0.66693,-0.42402 0.89169,-0.5439 0.10478,-0.0559 0.1905,-0.1336 0.1905,-0.17269 0,-0.0391 0.0571,-0.0711 0.127,-0.0711 0.0698,0 0.12707,-0.0286 0.12716,-0.0635 8e-5,-0.0349 0.17153,-0.17178 0.381,-0.30411 0.20946,-0.13234 0.38084,-0.27521 0.38084,-0.3175 0,-0.0423 0.0572,-0.0769 0.127,-0.0769 0.0699,0 0.127,-0.0299 0.127,-0.0664 0,-0.0365 0.10478,-0.12999 0.23284,-0.2077 0.12806,-0.0777 0.37783,-0.27642 0.55504,-0.44159 0.17722,-0.16516 0.34045,-0.30029 0.36273,-0.30029 0.0589,0 1.30872,-1.20325 2.05775,-1.98105 1.02146,-1.06068 1.10964,-1.15543 1.10964,-1.19216 0,-0.0191 0.13514,-0.1797 0.3003,-0.35692 0.16517,-0.17721 0.36388,-0.42698 0.44159,-0.55504 0.0777,-0.12806 0.17118,-0.23283 0.2077,-0.23283 0.0365,0 0.0664,-0.0571 0.0664,-0.127 0,-0.0698 0.0346,-0.127 0.0769,-0.127 0.0423,0 0.18516,-0.17139 0.3175,-0.38085 0.13233,-0.20947 0.26918,-0.38092 0.3041,-0.381 0.0349,-9e-5 0.0635,-0.0423 0.0635,-0.0938 0,-0.0515 0.1143,-0.23797 0.254,-0.41435 0.1397,-0.17639 0.254,-0.34189 0.254,-0.36778 0,-0.0259 0.11024,-0.2109 0.24498,-0.41115 0.13473,-0.20024 0.32774,-0.51647 0.4289,-0.70274 0.10117,-0.18627 0.26298,-0.47202 0.35958,-0.635 0.2335,-0.39397 0.85199,-1.63017 1.08016,-2.159 0.10046,-0.23283 0.23399,-0.53763 0.29672,-0.67733 0.0627,-0.1397 0.17857,-0.42545 0.25741,-0.635 0.0788,-0.20955 0.19665,-0.50612 0.2618,-0.65904 0.0652,-0.15292 0.11845,-0.3507 0.11845,-0.43951 0,-0.0888 0.0352,-0.1832 0.0782,-0.20976 0.043,-0.0266 0.10304,-0.17169 0.13345,-0.3225 0.0304,-0.15081 0.10611,-0.42659 0.16821,-0.61286 1.15558,-3.19301 1.31135,-6.57843 1.14418,-9.13664 0,-1.28764 -0.10267,-2.34619 -0.3908,-4.02903 -0.23357,-1.36422 -0.71797,-3.25235 -1.01619,-3.96104 -0.0644,-0.15292 -0.11701,-0.3326 -0.11701,-0.39929 0,-0.0667 -0.0533,-0.24637 -0.11845,-0.39929 -0.0651,-0.15293 -0.18524,-0.44949 -0.26687,-0.65904 -0.2458,-0.63099 -0.39865,-0.97629 -0.85327,-1.92762 -0.45021,-0.94208 -0.46377,-1.12158 -0.0845,-1.1193 0.16497,0.001 0.78457,-0.12409 1.8697,-0.37745 l 0.41956,-0.098 0.28466,0.597 c 0.39105,0.82011 0.48172,1.02742 0.70555,1.61299 0.10679,0.2794 0.22466,0.5442 0.26192,0.58844 0.0373,0.0442 0.0677,0.16078 0.0677,0.25898 0,0.0982 0.0559,0.25251 0.12431,0.3429 0.0684,0.0904 0.12552,0.22973 0.127,0.30964 10e-4,0.0799 0.0552,0.27042 0.1194,0.42334 0.49468,1.17852 1.41305,5.50494 1.40864,6.63608 -10e-4,0.38331 0.0904,0.49325 0.63365,0.75815 0.18627,0.0908 0.35772,0.18783 0.381,0.21557 0.0421,0.0502 0.14873,0.10882 0.88415,0.48629 l 0.38585,0.19805 v 1.5089 1.50889 l -0.38585,0.19805 c -0.73542,0.37748 -0.84202,0.43611 -0.88415,0.48629 -0.0233,0.0277 -0.19473,0.12475 -0.381,0.21557 -0.55452,0.2704 -0.635,0.37123 -0.635,0.79561 0,0.71484 -0.53718,3.66609 -0.90389,4.96592 -0.30991,1.0985 -0.39497,1.37439 -0.5034,1.63271 -0.0642,0.15292 -0.11671,0.32954 -0.11671,0.39248 0,0.063 -0.0569,0.22358 -0.12647,0.35696 -0.0696,0.13339 -0.12672,0.30157 -0.127,0.37375 -2.9e-4,0.0722 -0.031,0.16743 -0.0683,0.21167 -0.0373,0.0442 -0.15513,0.30903 -0.26192,0.58843 -0.39969,1.04568 -1.33404,2.9544 -1.97714,4.03898 -0.26796,0.4519 -0.4872,0.8583 -0.4872,0.90311 0,0.0448 -0.0286,0.0942 -0.0635,0.10969 -0.075,0.0333 -0.4445,0.54954 -0.4445,0.62103 0,0.0271 -0.039,0.0954 -0.0867,0.1516 -0.16929,0.19969 -1.18331,1.59336 -1.18331,1.62634 0,0.0184 -0.09,0.13063 -0.19998,0.24931 -0.10999,0.11868 -0.29881,0.35877 -0.4196,0.53353 -0.24311,0.35173 -0.24601,0.31095 0.11268,1.58774 0.10465,0.37254 0.20629,0.75354 0.22586,0.84667 0.0266,0.12675 -0.23047,0.434 -1.02242,1.22181 l -1.05802,1.05248 -0.44909,-0.13825 c -0.5117,-0.15752 -1.27292,-0.36946 -1.60634,-0.44723 -0.18113,-0.0423 -0.31539,0.0177 -0.67733,0.30264 -0.24828,0.19543 -0.46412,0.38928 -0.47965,0.43077 -0.0155,0.0415 -0.0611,0.0754 -0.10138,0.0754 -0.0403,0 -0.40855,0.24673 -0.81845,0.54831 -0.4099,0.30157 -0.78546,0.57779 -0.83456,0.61383 -0.12968,0.0952 -0.29798,0.1984 -1.51938,0.93205 -1.30764,0.78544 -3.14749,1.70074 -4.318,2.14814 -0.2794,0.10679 -0.5442,0.22466 -0.58844,0.26192 -0.0442,0.0373 -0.13948,0.068 -0.21166,0.0683 -0.0722,2.8e-4 -0.24037,0.0574 -0.37375,0.127 -0.13338,0.0696 -0.29401,0.12648 -0.35696,0.12648 -0.063,0 -0.23957,0.0525 -0.39249,0.1167 -0.25831,0.10843 -0.5342,0.19349 -1.6327,0.5034 -1.29983,0.36671 -4.25108,0.9039 -4.96592,0.9039 -0.42438,0 -0.52521,0.0805 -0.79561,0.635 -0.0908,0.18626 -0.18783,0.35771 -0.21557,0.381 -0.0502,0.0421 -0.10882,0.14873 -0.48629,0.88414 l -0.19805,0.38586 h -1.50144 -1.50144 z m -1.09446,-6.60288 c -1.54671,-0.19105 -3.0528,-0.47387 -4.10633,-0.77109 -1.4271,-0.40261 -1.39624,-0.39226 -3.048,-1.02239 -0.43892,-0.16745 -1.29551,-0.55967 -1.98967,-0.91104 -1.05837,-0.53574 -1.48199,-0.7614 -1.524,-0.81183 -0.0233,-0.028 -0.13758,-0.10075 -0.254,-0.16177 -0.65791,-0.34483 -2.794,-1.84539 -2.794,-1.96274 0,-0.0376 -0.0571,-0.0683 -0.127,-0.0683 -0.0698,0 -0.127,-0.0317 -0.127,-0.0703 0,-0.0387 -0.1748,-0.19585 -0.38845,-0.34928 -0.51567,-0.37033 -2.88129,-2.73279 -3.24656,-3.24224 -0.1586,-0.22119 -0.32,-0.40216 -0.35867,-0.40216 -0.0387,0 -0.0703,-0.0571 -0.0703,-0.127 0,-0.0698 -0.0308,-0.127 -0.0683,-0.127 -0.11735,0 -1.61791,-2.13609 -1.96274,-2.794 -0.061,-0.11642 -0.13381,-0.23072 -0.16177,-0.254 -0.09,-0.075 -0.90869,-1.67585 -1.34222,-2.62467 -0.24486,-0.5359 -0.43592,-1.00448 -0.65594,-1.60867 -0.0593,-0.16298 -0.16429,-0.44873 -0.23321,-0.635 -0.11807,-0.3191 -0.23347,-0.69935 -0.51389,-1.69333 -0.44055,-1.56157 -0.81021,-3.92016 -0.85278,-5.44113 l -0.0766,-1.53381 0.0544,-1.16898 c 0.0688,-1.47955 0.10376,-1.64347 0.34067,-1.59929 0.33724,0.0629 1.53366,0.32023 1.89529,0.40766 l 1.63256,0.36127 c 0.20807,0.0276 0.60691,0.10242 0.88631,0.16622 0.2794,0.0638 0.8128,0.17859 1.18533,0.25509 0.37254,0.0765 0.82974,0.17644 1.016,0.22211 0.18627,0.0457 0.52917,0.11476 0.762,0.15354 0.23284,0.0388 0.59479,0.11173 0.80434,0.16212 0.20955,0.0504 0.6858,0.15469 1.05833,0.23179 0.37253,0.0771 0.90593,0.19026 1.18533,0.25147 0.2794,0.0612 0.8128,0.1748 1.18534,0.25243 0.37253,0.0776 0.90593,0.19161 1.18533,0.2533 0.2794,0.0617 0.8128,0.17433 1.18533,0.25031 0.37254,0.076 0.82974,0.1789 1.016,0.2287 0.18627,0.0498 0.52917,0.11906 0.762,0.15391 0.23284,0.0348 0.59479,0.10432 0.80434,0.15438 0.46286,0.11057 1.32832,0.29708 3.47133,0.74806 0.34925,0.0735 0.8636,0.18318 1.143,0.24375 1.05383,0.22846 1.71424,0.3689 2.37067,0.50413 0.37253,0.0767 0.84878,0.17952 1.05833,0.22838 0.20955,0.0489 0.65947,0.13898 0.99981,0.20024 0.52767,0.095 0.67295,0.16128 0.98636,0.45017 0.87397,0.80561 2.40302,1.17968 3.5595,0.87083 0.51427,-0.13735 1.22766,-0.45107 1.22766,-0.53988 0,-0.0356 0.0368,-0.0647 0.0818,-0.0647 0.17471,0 0.67039,-0.60157 0.92308,-1.12028 0.20124,-0.41307 0.26507,-0.65898 0.26507,-1.02111 0,-0.85588 -0.47962,-1.75236 -1.25776,-2.35094 -0.91922,-0.7071 -2.46209,-1.03448 -3.35657,-0.71223 -0.42583,0.15341 -0.62977,0.15452 -1.12709,0.006 -0.37313,-0.11133 -0.69856,-0.19727 -1.98441,-0.52405 -0.29104,-0.074 -0.71967,-0.18407 -0.9525,-0.24467 -0.78896,-0.20536 -1.47986,-0.3824 -1.98967,-0.50985 -0.2794,-0.0699 -0.7366,-0.18415 -1.016,-0.254 -0.2794,-0.0699 -0.74612,-0.18704 -1.03716,-0.26041 -0.29104,-0.0734 -0.75777,-0.19104 -1.03717,-0.26148 -0.2794,-0.0704 -0.6985,-0.17766 -0.93133,-0.23826 -0.62349,-0.16229 -1.411,-0.36489 -2.01084,-0.51733 -0.29104,-0.074 -0.71966,-0.18407 -0.9525,-0.24467 -1.07686,-0.2803 -1.56145,-0.40507 -2.032,-0.52323 -0.2794,-0.0702 -0.69335,-0.18157 -0.91989,-0.24759 -0.22653,-0.066 -0.46907,-0.12003 -0.53897,-0.12003 -0.0699,0 -0.30364,-0.0554 -0.51944,-0.12302 -0.2158,-0.0677 -0.63049,-0.18196 -0.92153,-0.254 -0.29104,-0.072 -0.75777,-0.18813 -1.03717,-0.25798 -0.2794,-0.0699 -0.72707,-0.18127 -0.99483,-0.24759 -0.51867,-0.12848 -1.31815,-0.33227 -2.01083,-0.51256 -0.78506,-0.20434 -1.47878,-0.38213 -2.01084,-0.51534 -0.29104,-0.0729 -0.64546,-0.16786 -0.78761,-0.2111 -0.14214,-0.0432 -0.42789,-0.11497 -0.635,-0.1594 -0.64618,-0.13865 -1.33242,-0.32269 -1.43148,-0.38391 -0.12269,-0.0758 -0.0997,-0.15934 0.39049,-1.42027 0.15872,-0.40828 0.84126,-1.90287 0.95695,-2.0955 0.0419,-0.0699 0.2217,-0.41275 0.39944,-0.762 0.17774,-0.34925 0.34411,-0.65405 0.36972,-0.67733 0.0256,-0.0233 0.12444,-0.17699 0.21963,-0.34156 0.36713,-0.63469 1.0847,-1.69044 1.14895,-1.69044 0.0371,0 0.0674,-0.054 0.0674,-0.11995 0,-0.066 0.0286,-0.13264 0.0635,-0.14816 0.0349,-0.0155 0.17346,-0.19015 0.30785,-0.38806 0.13439,-0.19791 0.27727,-0.35983 0.3175,-0.35983 0.0402,0 0.0731,-0.054 0.0731,-0.11995 0,-0.066 0.0328,-0.13264 0.0728,-0.14816 0.0401,-0.0155 0.2963,-0.29493 0.56944,-0.62089 0.63723,-0.7605 2.02622,-2.14949 2.78672,-2.78673 0.32597,-0.27313 0.60537,-0.52938 0.62089,-0.56944 0.0155,-0.0401 0.0822,-0.0728 0.14817,-0.0728 0.066,0 0.11994,-0.0308 0.11994,-0.0683 0,-0.11734 2.13609,-1.6179 2.794,-1.96274 0.11642,-0.061 0.23072,-0.13381 0.254,-0.16176 0.0689,-0.0827 1.74708,-0.94078 2.62467,-1.34204 0.60538,-0.2768 1.13304,-0.48623 2.26483,-0.89888 0.46447,-0.16935 1.24234,-0.39249 2.52794,-0.72515 0.64237,-0.16623 1.75924,-0.35025 3.12356,-0.51466 3.95277,-0.47633 8.42175,0.0664 12.1285,1.47302 0.87355,0.33148 1.11163,0.42872 1.62984,0.66567 0.87758,0.40126 2.55581,1.25937 2.62466,1.34204 0.0233,0.028 0.13759,0.10074 0.254,0.16176 0.65792,0.34484 2.794,1.8454 2.794,1.96274 0,0.0376 0.054,0.0683 0.11995,0.0683 0.066,0 0.13264,0.0328 0.14816,0.0728 0.0155,0.0401 0.29493,0.29604 0.62089,0.56885 0.32597,0.27282 0.96812,0.87083 1.427,1.32891 0.81057,0.80917 0.83007,0.8376 0.68472,0.99821 -0.0823,0.0909 -0.30534,0.20597 -0.49567,0.25565 -0.19032,0.0497 -0.57465,0.14879 -0.85405,0.22026 -0.2794,0.0715 -0.6985,0.17953 -0.93133,0.24014 -0.63257,0.16465 -1.87251,0.47909 -3.048,0.77297 -0.2794,0.0699 -0.7366,0.18415 -1.016,0.254 -0.58591,0.14647 -1.33961,0.33885 -1.94733,0.49703 -0.23284,0.0606 -0.65194,0.16782 -0.93134,0.23826 -0.47251,0.11912 -0.98406,0.25097 -2.032,0.52374 -0.39581,0.10302 -0.77259,0.19979 -2.032,0.52189 -0.2794,0.0714 -0.6985,0.1795 -0.93133,0.24011 -0.69268,0.18029 -1.49217,0.38408 -2.01083,0.51256 -0.26776,0.0663 -0.71544,0.17774 -0.99484,0.24759 -0.2794,0.0699 -0.7366,0.18415 -1.016,0.254 -0.94893,0.23723 -1.56526,0.39935 -2.01083,0.52892 -0.40796,0.11863 -0.48339,0.11703 -0.91762,-0.0196 -0.5907,-0.18579 -1.63377,-0.13965 -2.33908,0.10348 -0.66669,0.22981 -1.38264,0.74191 -1.77188,1.26738 -0.17962,0.24248 -0.32659,0.47625 -0.32659,0.51948 0,0.0432 -0.0569,0.18774 -0.12647,0.32112 -0.28967,0.55541 -0.0833,1.66584 0.44791,2.40957 0.51804,0.72536 1.73252,1.26194 2.85627,1.26194 0.75303,0 2.15629,-0.3963 2.15629,-0.60896 0,-0.0376 0.046,-0.0684 0.10227,-0.0684 0.0562,0 0.23722,-0.13125 0.40216,-0.29166 0.30542,-0.29701 0.36309,-0.31686 1.73924,-0.59848 0.37253,-0.0762 0.90593,-0.18868 1.18533,-0.24989 0.2794,-0.0612 0.8128,-0.17551 1.18534,-0.254 0.37253,-0.0785 0.90593,-0.19443 1.18533,-0.25763 0.2794,-0.0632 0.6223,-0.13481 0.762,-0.15914 0.1397,-0.0243 0.61595,-0.12651 1.05833,-0.22709 0.44239,-0.10057 0.97579,-0.21128 1.18534,-0.24603 0.20955,-0.0348 0.55245,-0.10423 0.762,-0.1544 0.20955,-0.0502 0.6858,-0.15429 1.05833,-0.23139 0.37253,-0.0771 0.90593,-0.19089 1.18533,-0.25287 0.2794,-0.062 0.8128,-0.17661 1.18534,-0.25474 1.49619,-0.31382 1.80004,-0.37883 2.32833,-0.4982 0.30268,-0.0684 0.75121,-0.15071 0.99673,-0.18291 0.24552,-0.0322 0.46685,-0.0916 0.49183,-0.13207 0.025,-0.0404 0.14171,-0.0735 0.25937,-0.0735 0.11767,0 0.4488,-0.0561 0.73584,-0.12466 0.28704,-0.0686 0.7886,-0.17961 1.11456,-0.24677 1.15666,-0.23833 1.95392,-0.40616 2.45534,-0.51687 0.2794,-0.0617 0.79375,-0.17176 1.143,-0.2446 0.34925,-0.0728 0.83719,-0.1759 1.08431,-0.22903 0.52533,-0.11295 0.50154,-0.13271 0.96738,0.8039 0.63478,1.27628 0.88884,1.87443 1.45074,3.41553 0.34839,0.95553 0.78389,2.68179 1.01993,4.04283 0.60029,3.46132 0.52002,6.65932 -0.26032,10.37167 -0.22919,1.09036 -0.59232,2.31725 -1.00238,3.38666 -0.0804,0.20955 -0.20422,0.5334 -0.27528,0.71967 -0.33418,0.87598 -1.56171,3.37943 -1.72287,3.51367 -0.028,0.0233 -0.10075,0.13758 -0.16177,0.254 -0.34483,0.65791 -1.8454,2.794 -1.96274,2.794 -0.0376,0 -0.0683,0.0572 -0.0683,0.127 0,0.0699 -0.0316,0.127 -0.0703,0.127 -0.0387,0 -0.20024,0.18092 -0.35904,0.40205 -0.37422,0.52108 -2.71151,2.85837 -3.2326,3.23259 -0.22112,0.1588 -0.40205,0.32037 -0.40205,0.35904 0,0.0387 -0.0571,0.0703 -0.127,0.0703 -0.0698,0 -0.127,0.0308 -0.127,0.0683 0,0.11735 -2.13608,1.61791 -2.794,1.96274 -0.11641,0.061 -0.23071,0.13381 -0.254,0.16177 -0.0233,0.0279 -0.25188,0.15937 -0.508,0.29204 -1.79616,0.93041 -2.52053,1.26213 -3.7465,1.71566 -0.95574,0.35357 -1.02844,0.37681 -2.30716,0.73756 -1.09414,0.30868 -2.63841,0.59488 -4.10634,0.76102 -1.35423,0.15328 -4.38439,0.15874 -5.588,0.0101 z m 4.7625,-24.14791 c -0.56097,-0.20103 -0.85711,-0.94501 -1.68579,-1.07517 -0.17877,-0.0281 -0.53459,-0.10351 -0.79071,-0.16761 -0.25611,-0.0641 -0.77046,-0.17872 -1.143,-0.25469 -0.37253,-0.076 -0.94403,-0.19463 -1.27,-0.26368 -0.32596,-0.0691 -0.87841,-0.1857 -1.22766,-0.25919 -0.34925,-0.0735 -0.8636,-0.18319 -1.143,-0.24376 -0.89813,-0.1947 -1.67665,-0.36109 -2.37067,-0.50666 -0.37253,-0.0781 -0.90593,-0.19254 -1.18533,-0.25423 -0.2794,-0.0617 -0.8128,-0.17474 -1.18534,-0.25123 -0.37253,-0.0765 -0.82973,-0.17644 -1.016,-0.22211 -0.18626,-0.0457 -0.52916,-0.11477 -0.762,-0.15355 -0.23283,-0.0388 -0.59478,-0.11173 -0.80433,-0.16211 -0.20955,-0.0504 -0.6858,-0.15469 -1.05833,-0.2318 -0.37254,-0.0771 -0.90594,-0.19026 -1.18534,-0.25147 -0.2794,-0.0612 -0.8128,-0.17479 -1.18533,-0.25242 -0.37253,-0.0776 -0.90593,-0.19162 -1.18533,-0.25331 -0.2794,-0.0617 -0.8128,-0.17545 -1.18534,-0.25281 -5.0147,-1.0419 -2.24389,-0.48325 -6.01133,-1.274 -0.37253,-0.0782 -0.90593,-0.19224 -1.18533,-0.25345 -0.2794,-0.0612 -0.8128,-0.17517 -1.18534,-0.25326 -0.37253,-0.0781 -0.88938,-0.19526 -1.14855,-0.26037 -0.25917,-0.0651 -0.56062,-0.11839 -0.66989,-0.11839 -0.10927,0 -0.39252,-0.0544 -0.62945,-0.12087 -0.23692,-0.0665 -0.73557,-0.18264 -1.10811,-0.25815 -0.37253,-0.0755 -0.94403,-0.1938 -1.27,-0.26285 -0.32596,-0.0691 -0.87841,-0.18569 -1.22766,-0.25919 -0.34925,-0.0735 -0.8636,-0.18371 -1.143,-0.24492 -0.2794,-0.0612 -0.8128,-0.1755 -1.18534,-0.254 -0.37253,-0.0785 -0.90593,-0.19216 -1.18533,-0.2526 -0.2794,-0.0604 -0.79375,-0.16931 -1.143,-0.24194 -0.34925,-0.0726 -0.9017,-0.18889 -1.22767,-0.25836 -0.32596,-0.0695 -0.87841,-0.18631 -1.22766,-0.25965 -0.34925,-0.0733 -0.88265,-0.18589 -1.18534,-0.25011 -0.30268,-0.0642 -0.85513,-0.1807 -1.22766,-0.25884 -1.00051,-0.20985 -1.34252,-0.30343 -1.4605,-0.39963 -0.16616,-0.13548 -0.13122,-1.29073 0.057,-1.88589 0.16616,-0.52529 0.27902,-0.76556 0.54684,-1.16417 0.18266,-0.27186 0.54433,-0.30789 1.15904,-0.11548 0.37779,0.11825 1.06459,0.30166 1.96242,0.52406 0.6198,0.15352 1.3583,0.33815 2.032,0.508 0.29104,0.0734 0.75777,0.19104 1.03717,0.26148 0.2794,0.0704 0.6985,0.17766 0.93133,0.23826 0.23283,0.0606 0.67098,0.17467 0.97367,0.25349 0.30268,0.0788 0.73568,0.19731 0.96222,0.26333 0.22654,0.066 0.46703,0.12003 0.53442,0.12003 0.0674,0 0.30115,0.0533 0.51945,0.11842 0.37313,0.11133 0.69856,0.19727 1.98441,0.52406 0.29104,0.074 0.71966,0.18407 0.9525,0.24467 1.13979,0.29667 1.56315,0.40536 2.01083,0.51626 0.26776,0.0663 0.71543,0.17774 0.99483,0.24759 0.2794,0.0699 0.7366,0.18415 1.016,0.254 0.68734,0.17183 1.4779,0.37294 1.98967,0.50615 1.04793,0.27276 1.55949,0.40461 2.032,0.52374 0.2794,0.0704 0.6985,0.17766 0.93133,0.23826 0.52907,0.13771 1.27447,0.3284 1.98967,0.509 0.30268,0.0764 0.74083,0.18862 0.97367,0.2493 0.98268,0.2561 1.46825,0.38096 1.94733,0.50073 0.56195,0.14049 1.29023,0.32392 2.0955,0.52779 0.29104,0.0737 0.71452,0.18798 0.94106,0.254 0.22654,0.066 0.46703,0.12003 0.53442,0.12003 0.0674,0 0.30115,0.0533 0.51945,0.11842 0.37312,0.11133 0.69855,0.19727 1.9844,0.52406 0.29105,0.074 0.71967,0.18406 0.9525,0.24467 0.23284,0.0606 0.65194,0.16865 0.93134,0.24011 1.2594,0.32209 1.63619,0.41886 2.032,0.52189 1.10328,0.28717 1.563,0.40541 2.032,0.52266 0.2794,0.0699 0.7366,0.18415 1.016,0.254 0.2794,0.0699 0.7366,0.18415 1.016,0.254 0.72759,0.1819 1.4588,0.36646 1.94733,0.49151 1.67923,0.42985 1.66136,0.42745 1.97426,0.26564 0.386,-0.1996 1.49575,-0.18258 1.97314,0.0303 0.66846,0.29804 1.17525,0.93291 1.17462,1.47146 -3.3e-4,0.27774 -0.25714,0.77693 -0.49724,0.96652 -0.0756,0.0597 -0.29728,0.18419 -0.49263,0.27666 -0.44113,0.2088 -1.3472,0.21724 -1.86732,0.0174 -1e-5,-1e-5 3e-5,-3e-5 3e-5,-3e-5 z m -5.82083,-10.69596 c -0.18627,-0.0991 -0.4094,-0.24227 -0.49584,-0.31822 -0.22165,-0.19473 -0.47783,-0.72523 -0.47783,-0.98949 0,-0.45924 0.51771,-1.09372 1.143,-1.40082 0.43766,-0.21495 1.59488,-0.23794 1.97898,-0.0393 0.31568,0.16324 0.43248,0.16457 0.97692,0.0111 0.41115,-0.11591 0.84228,-0.22646 2.01827,-0.51754 0.29104,-0.072 0.70573,-0.18634 0.92153,-0.254 0.2158,-0.0677 0.44955,-0.12302 0.51944,-0.12302 0.0699,0 0.31244,-0.054 0.53897,-0.12003 0.22654,-0.066 0.64049,-0.17744 0.91989,-0.2476 0.2794,-0.0702 0.75565,-0.19259 1.05834,-0.27207 1.00516,-0.26396 1.39212,-0.36396 1.92616,-0.49774 0.53334,-0.13361 1.23062,-0.31233 2.01084,-0.51541 0.43299,-0.1127 1.04611,-0.26803 1.94733,-0.49333 0.2794,-0.0699 0.7366,-0.18415 1.016,-0.254 1.2096,-0.30241 1.98475,-0.49992 3.048,-0.77667 0.23283,-0.0606 0.65193,-0.16782 0.93133,-0.23826 3.70695,-0.777 7.34168,-1.8567 11.00667,-2.80977 0.23283,-0.0606 0.65193,-0.16782 0.93133,-0.23826 0.47252,-0.11913 0.98407,-0.25098 2.032,-0.52374 0.39582,-0.10303 0.7726,-0.1998 2.032,-0.52189 0.2794,-0.0715 0.6985,-0.17951 0.93134,-0.24011 0.23283,-0.0606 0.65193,-0.16782 0.93133,-0.23826 0.2794,-0.0704 0.75565,-0.19099 1.05833,-0.26789 0.70065,-0.17801 1.43915,-0.36263 2.032,-0.508 0.4271,-0.10473 0.82119,-0.20571 1.98967,-0.50985 0.4481,-0.11663 1.08463,-0.27779 1.98967,-0.50372 0.30268,-0.0756 0.72689,-0.19275 0.94269,-0.26041 0.54688,-0.17147 1.02092,-0.15894 1.18379,0.0313 0.44215,0.51639 0.76666,1.59857 0.73457,2.44969 l -0.0247,0.65567 -0.46567,0.14275 c -0.25611,0.0785 -0.77046,0.20521 -1.143,0.28154 -0.37253,0.0763 -0.90593,0.18887 -1.18533,0.25008 -0.4725,0.1035 -0.82394,0.17808 -2.37067,0.50307 -0.32596,0.0685 -0.87841,0.18523 -1.22766,0.25942 -0.34925,0.0742 -0.92075,0.19433 -1.27,0.26696 -0.34925,0.0726 -0.8636,0.18151 -1.143,0.24194 -0.2794,0.0604 -0.8128,0.17411 -1.18534,0.25261 -0.37253,0.0785 -0.90593,0.19279 -1.18533,0.254 -0.2794,0.0612 -0.79375,0.17141 -1.143,0.24491 -0.34925,0.0735 -0.92075,0.19434 -1.27,0.26853 -0.79194,0.16824 -1.63189,0.34477 -2.45533,0.51601 -0.34925,0.0726 -0.8636,0.18151 -1.143,0.24194 -0.2794,0.0604 -0.8128,0.17453 -1.18534,0.25353 -1.11852,0.23721 -1.83452,0.3918 -2.37066,0.51186 -0.2794,0.0626 -0.6223,0.13366 -0.762,0.15798 -0.1397,0.0243 -0.61595,0.12652 -1.05834,0.22709 -0.44238,0.10057 -0.97578,0.21129 -1.18533,0.24604 -0.20955,0.0348 -0.55245,0.10423 -0.762,0.15439 -0.20955,0.0502 -0.6858,0.15358 -1.05833,0.22982 -0.37254,0.0762 -0.90594,0.18932 -1.18534,0.25129 -0.2794,0.062 -0.8128,0.17691 -1.18533,0.2554 -0.37253,0.0785 -0.90593,0.19217 -1.18533,0.2526 -0.54542,0.11798 -1.50039,0.32095 -2.45534,0.52186 -0.32596,0.0686 -0.76411,0.16479 -0.97366,0.21379 -0.20955,0.049 -0.6477,0.14025 -0.97367,0.20277 -0.32597,0.0625 -0.85937,0.17401 -1.18533,0.24777 -0.32597,0.0737 -0.70697,0.15428 -0.84667,0.17896 -0.1397,0.0247 -0.4826,0.0959 -0.762,0.15837 -0.2794,0.0624 -0.8128,0.17745 -1.18533,0.25558 -0.69402,0.14557 -1.47255,0.31196 -2.37067,0.50666 -0.2794,0.0606 -0.79375,0.17026 -1.143,0.24376 -0.34925,0.0735 -0.9017,0.19013 -1.22767,0.25919 -0.32596,0.0691 -0.89746,0.18769 -1.27,0.26364 -1.19173,0.24294 -1.27902,0.2768 -1.48369,0.5755 -0.10614,0.1549 -0.27292,0.32293 -0.37064,0.37341 -0.66707,0.3446 -0.82117,0.39037 -1.40533,0.41739 -0.5225,0.0242 -0.695,-0.003 -0.97367,-0.15076 z m -23.70667,-0.80719 c -0.22388,-0.0448 -1.07744,-0.26483 -1.6161,-0.41668 -0.23693,-0.0668 -0.48822,-0.12144 -0.55842,-0.12144 -0.10863,0 -0.11347,-0.0536 -0.0325,-0.35984 0.0523,-0.1979 0.14167,-0.44305 0.19858,-0.54476 0.0569,-0.10172 0.10348,-0.25602 0.10348,-0.3429 0,-0.0869 0.0305,-0.19416 0.0677,-0.2384 0.0373,-0.0442 0.15512,-0.30904 0.26192,-0.58844 0.39969,-1.04567 1.33404,-2.9544 1.97714,-4.03897 0.26796,-0.45191 0.48719,-0.85831 0.48719,-0.90312 0,-0.0448 0.0286,-0.0942 0.0635,-0.10968 0.075,-0.0333 0.4445,-0.54955 0.4445,-0.62104 0,-0.0271 0.04,-0.0953 0.0888,-0.15159 0.0488,-0.0563 0.27908,-0.36896 0.51161,-0.69493 0.23254,-0.32597 0.47832,-0.65978 0.54618,-0.7418 0.0679,-0.082 0.12338,-0.18362 0.12338,-0.22578 0,-0.0421 0.0364,-0.0893 0.0809,-0.10486 0.0445,-0.0155 0.23423,-0.23413 0.42167,-0.48579 0.26304,-0.35316 0.32957,-0.5077 0.2916,-0.67733 -0.0752,-0.33583 -0.28267,-1.10001 -0.43469,-1.60083 l -0.13651,-0.44972 1.07111,-1.07112 1.07111,-1.07111 0.32025,0.11691 c 0.17614,0.0643 0.4536,0.1443 0.61658,0.17779 0.16299,0.0335 0.5332,0.12421 0.82271,0.20161 l 0.52637,0.14072 0.44729,-0.35207 c 0.24602,-0.19363 0.46,-0.38601 0.47552,-0.42751 0.0155,-0.0415 0.0611,-0.0754 0.10139,-0.0754 0.0402,0 0.40854,-0.24674 0.81845,-0.54831 0.4099,-0.30157 0.78545,-0.5778 0.83456,-0.61383 0.11455,-0.0841 0.20026,-0.13655 1.51938,-0.93048 0.929,-0.55913 2.57357,-1.41086 3.556,-1.84168 0.1397,-0.0613 0.38735,-0.16972 0.55033,-0.24102 0.16299,-0.0713 0.40147,-0.15583 0.52997,-0.18787 0.1285,-0.032 0.25457,-0.0921 0.28016,-0.13352 0.0256,-0.0414 0.11096,-0.0755 0.1897,-0.0758 0.0787,-2.9e-4 0.2523,-0.0574 0.38569,-0.127 0.13338,-0.0696 0.29401,-0.12648 0.35696,-0.12648 0.0629,0 0.23956,-0.0525 0.39248,-0.11671 0.25832,-0.10842 0.53421,-0.19349 1.63271,-0.5034 1.29983,-0.36671 4.25108,-0.90389 4.96592,-0.90389 0.42438,0 0.52521,-0.0805 0.79561,-0.635 0.0908,-0.18627 0.18783,-0.35772 0.21557,-0.381 0.0502,-0.0421 0.10882,-0.14873 0.48629,-0.88414 l 0.19805,-0.38586 h 1.50889 1.5089 l 0.19805,0.38586 c 0.37747,0.73541 0.4361,0.84201 0.48629,0.88414 0.0277,0.0233 0.12474,0.19473 0.21557,0.381 0.2704,0.55452 0.37123,0.635 0.79561,0.635 1.13607,0 5.42516,0.91474 6.59862,1.40729 0.15292,0.0642 0.32954,0.11671 0.39249,0.11671 0.063,0 0.22358,0.0569 0.35696,0.12648 0.13338,0.0696 0.30157,0.12671 0.37375,0.127 0.0722,2.8e-4 0.16743,0.031 0.21166,0.0683 0.0442,0.0373 0.30904,0.15512 0.58844,0.26191 1.02246,0.39082 2.92194,1.31843 4.04935,1.9775 0.45803,0.26776 0.8646,0.48684 0.90349,0.48684 0.0389,0 0.0834,0.0286 0.0989,0.0635 0.0333,0.075 0.54955,0.4445 0.62104,0.4445 0.0271,0 0.0953,0.0385 0.15159,0.0855 0.0562,0.047 0.59756,0.452 1.20293,0.89998 0.60537,0.44797 1.18268,0.88891 1.28292,0.97986 0.17669,0.16033 0.19864,0.16099 0.71966,0.0218 0.29558,-0.079 0.67077,-0.17095 0.83375,-0.20444 0.16299,-0.0335 0.44017,-0.1134 0.61596,-0.17757 l 0.31963,-0.11668 1.0562,1.05368 1.23074,4.29069 -2.74857,0.84517 c -0.1494,0.0459 -0.93512,-0.99059 -1.79653,-1.83782 -1.30664,-1.28511 -1.55531,-1.52216 -1.59679,-1.52216 -0.0191,0 -0.17979,-0.13514 -0.35701,-0.3003 -0.17721,-0.16517 -0.42698,-0.36388 -0.55504,-0.44159 -0.12806,-0.0777 -0.23284,-0.17117 -0.23284,-0.2077 0,-0.0365 -0.0571,-0.0664 -0.127,-0.0664 -0.0698,0 -0.127,-0.0346 -0.127,-0.0769 0,-0.0423 -0.17138,-0.18517 -0.38084,-0.3175 -0.20947,-0.13234 -0.38092,-0.26919 -0.381,-0.30411 -9e-5,-0.0349 -0.0398,-0.0635 -0.0883,-0.0635 -0.0804,0 -0.57318,-0.3141 -0.67391,-0.42951 -0.0233,-0.0267 -0.0995,-0.0758 -0.16933,-0.10916 -0.14664,-0.07 -0.32405,-0.17774 -0.82382,-0.50023 -0.19698,-0.12711 -0.39383,-0.2311 -0.43744,-0.2311 -0.0436,0 -0.092,-0.0286 -0.10752,-0.0635 -0.043,-0.0967 -1.62978,-0.91974 -2.48355,-1.28812 -0.23284,-0.10046 -0.53764,-0.23399 -0.67734,-0.29672 -0.1397,-0.0627 -0.42545,-0.17857 -0.635,-0.25741 -0.20955,-0.0788 -0.50611,-0.19665 -0.65904,-0.2618 -0.15292,-0.0652 -0.35069,-0.11845 -0.4395,-0.11845 -0.0888,0 -0.1832,-0.0352 -0.20976,-0.0781 -0.0266,-0.043 -0.17169,-0.10304 -0.3225,-0.13346 -0.15081,-0.0304 -0.4266,-0.10611 -0.61286,-0.16821 -1.16424,-0.38812 -3.00702,-0.769 -4.91067,-1.01497 -1.39149,-0.1798 -5.12785,-0.1798 -6.51933,0 -1.90366,0.24597 -3.74644,0.62685 -4.91067,1.01497 -0.18627,0.0621 -0.46205,0.13779 -0.61286,0.16821 -0.15081,0.0304 -0.29593,0.0905 -0.3225,0.13346 -0.0266,0.043 -0.12096,0.0781 -0.20976,0.0781 -0.0888,0 -0.28659,0.0533 -0.43951,0.11845 -0.15292,0.0651 -0.44949,0.18296 -0.65904,0.2618 -0.20955,0.0788 -0.4953,0.19468 -0.635,0.25741 -0.1397,0.0627 -0.4445,0.19626 -0.67733,0.29672 -0.64503,0.27831 -1.834,0.88134 -2.22752,1.12976 -0.1933,0.12202 -0.37201,0.22186 -0.39715,0.22186 -0.0251,0 -0.20686,0.10399 -0.40385,0.2311 -0.50471,0.32568 -0.67826,0.43087 -0.82381,0.49931 -0.0699,0.0328 -0.26584,0.16769 -0.43552,0.29965 -0.16968,0.13197 -0.35066,0.23994 -0.40217,0.23994 -0.0515,0 -0.0937,0.0286 -0.0938,0.0635 -8e-5,0.0349 -0.17153,0.17177 -0.381,0.30411 -0.20946,0.13233 -0.38085,0.27521 -0.38085,0.3175 0,0.0423 -0.0571,0.0769 -0.127,0.0769 -0.0698,0 -0.127,0.0293 -0.127,0.0651 0,0.0358 -0.0911,0.12151 -0.20239,0.1905 -0.8331,0.51635 -4.26054,3.95124 -4.82242,4.83291 -0.0861,0.13505 -0.19084,0.24554 -0.23283,0.24554 -0.042,0 -0.0764,0.0572 -0.0764,0.127 0,0.0699 -0.0348,0.127 -0.0774,0.127 -0.0426,0 -0.19158,0.18097 -0.33112,0.40216 -0.35784,0.56723 -0.72329,1.07453 -0.79798,1.10773 -0.0349,0.0155 -0.0635,0.0662 -0.0635,0.11265 0,0.0464 -0.12989,0.28138 -0.28865,0.52211 -0.71936,1.09073 -1.92226,3.51148 -2.48938,5.00968 -0.14102,0.37253 -0.26897,0.75038 -0.28435,0.83965 -0.0308,0.17877 -0.11185,0.21507 -0.36662,0.16414 z"
         id="path1"
         clip-path="url(#clipPath2)"
         sodipodi:nodetypes="csssssssssssssssscscssscsscsssssssssssssssssscssscccssssscsssscssssssssssssssssssscssssssssssssssssssssssssssssssssssssssssssssssssssssssssssssssssssssssssssssssssscssssscccssscccssssssssssssssscsssssscssssssssssssssssssscccccsssssssssssssssssssccssccsssssssssssssssssssssssssscsssssssssssscssssssssscssssssssssssssssssssssssssssssssssssssssssssscssssssssssssssssssssssssssssssssssssssssssssssssssscccssssssssssssssssssssssssssssssssssssssssssssssssssssssssssssssssssssssssssccssssssssssssssssssssssssssssssssssssssscsssssssssssssssssssssssssscscsssssssssscssssscssssssssscssscccssscssssssssssssssssssscccsssssssssssssscsssssscccsssssssssssssssssssssssssssssssssssscssssssscssss"
         transform="matrix(-2.6414513,0,0,-2.6414513,631.18587,765.12653)" /></g></g></svg>
