<?xml version="1.0" encoding="UTF-8" standalone="no"?>
<!-- Created with Inkscape (http://www.inkscape.org/) -->

<svg
   width="118.76713mm"
   height="114.28132mm"
   viewBox="0 0 118.76713 114.28132"
   version="1.1"
   id="svg5"
   inkscape:version="1.2.2 (b0a8486541, 2022-12-01)"
   sodipodi:docname="snare.svg"
   xml:space="preserve"
   inkscape:export-filename="../image/snare.png"
   inkscape:export-xdpi="96"
   inkscape:export-ydpi="96"
   xmlns:inkscape="http://www.inkscape.org/namespaces/inkscape"
   xmlns:sodipodi="http://sodipodi.sourceforge.net/DTD/sodipodi-0.dtd"
   xmlns="http://www.w3.org/2000/svg"
   xmlns:svg="http://www.w3.org/2000/svg"><sodipodi:namedview
     id="namedview7"
     pagecolor="#ffffff"
     bordercolor="#000000"
     borderopacity="0.25"
     inkscape:showpageshadow="2"
     inkscape:pageopacity="0.0"
     inkscape:pagecheckerboard="0"
     inkscape:deskcolor="#d1d1d1"
     inkscape:document-units="mm"
     showgrid="false"
     inkscape:zoom="0.16787586"
     inkscape:cx="35.740696"
     inkscape:cy="363.36374"
     inkscape:window-width="1366"
     inkscape:window-height="699"
     inkscape:window-x="0"
     inkscape:window-y="32"
     inkscape:window-maximized="1"
     inkscape:current-layer="layer1" /><defs
     id="defs2" /><g
     inkscape:label="Camada 1"
     inkscape:groupmode="layer"
     id="layer1"
     transform="translate(-39.600891,-54.707413)"><ellipse
       style="fill:#ffffff;fill-opacity:1;stroke:none;stroke-width:0.635903;stroke-miterlimit:4.1;stroke-dashoffset:1102.68;stroke-opacity:1;paint-order:stroke fill markers"
       id="path847"
       cx="101.08238"
       cy="111.91914"
       rx="52.111855"
       ry="52.002155" /><path
       style="fill:#000000;fill-opacity:1;stroke:#000000;stroke-width:0.265;stroke-dasharray:none;stroke-opacity:1"
       d="m 99.498008,168.69028 c -0.21828,-0.0788 -0.587,-0.38166 -0.81937,-0.67302 -0.33941,-0.42558 -0.91172,-0.57479 -2.91041,-0.7588 -7.781686,-0.71642 -15.522034,-3.17941 -22.346564,-7.11069 -2.314994,-1.33356 -2.835342,-1.53355 -3.719571,-1.42959 -0.866667,0.1019 -1.225331,-0.0263 -2.284818,-0.81668 -1.051226,-0.78423 -1.25677,-1.07884 -1.25677,-1.80138 0,-0.75042 -0.265268,-1.08869 -2.020951,-2.57711 -3.34096,-2.83238 -7.027431,-7.14169 -9.958931,-11.64154 -1.421456,-2.18193 -4.288644,-7.7253 -4.894161,-9.46229 -0.193191,-0.55419 -0.471063,-0.8501 -0.79827,-0.8501 -0.717891,0 -1.267226,-0.72551 -1.722667,-2.27513 -0.352894,-1.2007 -0.352546,-1.43984 0.0032,-2.17429 0.364173,-0.75194 0.349854,-1.0727 -0.161244,-3.61214 -0.308499,-1.53281 -0.700585,-3.97742 -0.871302,-5.43247 -0.343227,-2.9254 -0.742303,-3.50945 -0.742303,-1.08636 0,1.73854 -0.139715,1.88039 -1.852083,1.88039 -1.715614,0 -1.852084,-0.13995 -1.852084,-1.89929 0,-1.04997 -0.132817,-1.71091 -0.396875,-1.97497 -0.218281,-0.21828 -0.401094,-0.65626 -0.40625,-0.97329 -0.0052,-0.31703 -0.179532,-0.87407 -0.3875,-1.23787 -0.491134,-0.85915 -0.490575,-1.79846 0.0016,-2.74222 0.217385,-0.41682 0.395245,-0.97263 0.395245,-1.23514 0,-1.19857 0.222468,-1.31431 2.526235,-1.31431 1.212769,0 2.269779,-0.10475 2.34891,-0.23279 0.07913,-0.12804 0.31898,-1.4802 0.532996,-3.00481 0.214017,-1.52461 0.585296,-3.63453 0.825064,-4.688699 0.411526,-1.80935 0.409702,-1.96542 -0.03256,-2.78666 -0.450973,-0.8374 -0.449307,-0.92799 0.04452,-2.42069 0.405673,-1.22624 0.68435,-1.63377 1.331809,-1.9476 0.676552,-0.32793 1.112209,-1.01692 2.50789,-3.96622 3.413357,-7.21299 8.395751,-13.92059 13.576901,-18.27806 1.734087,-1.4584 2.002826,-1.79925 2.002826,-2.54024 0,-0.70953 0.214839,-1.02033 1.25677,-1.81819 1.085866,-0.83149 1.398061,-0.94365 2.295774,-0.82476 0.907211,0.12014 1.351632,-0.0464 3.503618,-1.31291 6.418173,-3.7773 14.866173,-6.48185 22.516106,-7.20833 2.14957,-0.20414 2.53198,-0.31869 3.09622,-0.92751 0.55914,-0.60333 0.8556,-0.69461 2.255902,-0.69461 1.392,0 1.7081,0.0959 2.31471,0.70255 0.61095,0.61095 1.01471,0.73106 3.09683,0.92128 7.57661,0.69219 15.72522,3.28023 22.31293,7.08672 2.29191,1.3243 2.86269,1.54905 3.62131,1.42594 1.52059,-0.24676 3.84441,1.56916 3.84441,3.00415 0,0.40515 0.358,0.94017 0.99219,1.48279 4.02076,3.44023 7.6452,7.54473 10.45066,11.8349 1.76779,2.70333 4.14602,7.18706 5.01615,9.45704 0.28098,0.73302 0.66274,1.21102 1.09996,1.37725 0.82025,0.31186 1.35271,1.10748 1.75018,2.6152 0.2546,0.96576 0.23392,1.25058 -0.13123,1.80787 -0.40665,0.62063 -0.39164,0.86943 0.24289,4.026299 0.37198,1.85064 0.75594,4.40062 0.85325,5.66661 0.14548,1.89268 0.25465,2.30182 0.61415,2.30182 0.88432,0 1.07222,0.57956 1.07222,3.30729 0,2.72752 -0.18792,3.30729 -1.07195,3.30729 -0.35876,0 -0.46476,0.39401 -0.59234,2.20182 -0.0855,1.21101 -0.46256,3.71894 -0.83801,5.57318 -0.6538,3.22903 -0.66349,3.40375 -0.22943,4.13854 0.42776,0.72415 0.42779,0.84778 5.3e-4,2.20336 -0.44437,1.40969 -0.78211,1.86002 -1.80692,2.40923 -0.28213,0.1512 -1.0294,1.4308 -1.6606,2.84355 -2.85491,6.38991 -6.69481,11.84605 -12.10008,17.19305 -2.18365,2.16007 -3.66162,3.82772 -3.66162,4.13151 0,1.31494 -2.396,3.11473 -3.83555,2.88112 -0.74963,-0.12165 -1.35897,0.12191 -3.82425,1.52861 -6.59458,3.76291 -14.42369,6.23135 -22.12119,6.97461 -2.07223,0.20009 -2.49139,0.32619 -3.09683,0.93162 -0.58869,0.5887 -0.92335,0.69689 -2.1013,0.67933 -0.7706,-0.0115 -1.579682,-0.0854 -1.797962,-0.16416 z m 0.680352,-0.75989 c -0.522082,-0.52209 -0.530192,-1.13592 -0.0224,-1.69701 0.36195,-0.39995 0.10313,-0.45984 -3.241142,-0.75003 -8.878051,-0.77036 -17.142327,-3.47708 -24.243463,-7.94024 -1.428462,-0.8978 -2.627821,-1.63237 -2.665246,-1.63237 -0.03742,0 -0.01439,0.28066 0.05118,0.62368 0.08662,0.45315 -0.08617,0.78866 -0.632003,1.22709 l -0.751226,0.60342 1.11646,-0.1706 c 0.972743,-0.14865 1.296294,-0.0557 2.513542,0.72234 6.630101,4.23765 15.652739,7.16615 24.596376,7.98332 1.48321,0.13552 1.83586,0.26502 2.18891,0.80386 0.23148,0.35327 0.66475,0.64231 0.962832,0.64231 0.4927,0 0.50417,-0.0378 0.12619,-0.41577 z m 3.02098,-0.24297 c 0.5897,-0.56497 1.08138,-0.69873 3.45406,-0.93966 7.68381,-0.78024 15.3794,-3.26007 22.06079,-7.1089 2.27191,-1.30874 2.92595,-1.57271 3.57509,-1.44288 0.43696,0.0874 1.00651,0.076 1.26567,-0.0252 0.41068,-0.1605 0.37776,-0.23356 -0.25642,-0.56906 -0.53823,-0.28474 -0.72761,-0.58481 -0.72761,-1.15291 v -0.76798 l -2.57048,1.61559 c -7.39399,4.64721 -15.7194,7.40383 -24.71956,8.18485 -3.08609,0.26781 -3.55634,0.36675 -3.24115,0.68195 0.51338,0.51338 0.46064,1.57396 -0.0943,1.8972 -0.42861,0.24964 -0.42477,0.27028 0.0517,0.27773 0.28308,0.004 0.8241,-0.28839 1.20227,-0.6507 z m -1.84925,-0.66418 c 0,-0.14552 -0.11906,-0.26458 -0.26458,-0.26458 -0.14552,0 -0.26459,0.11906 -0.26459,0.26458 0,0.14553 0.11907,0.26459 0.26459,0.26459 0.14552,0 0.26458,-0.11906 0.26458,-0.26459 z m 5.0652,-2.1324 c 22.26262,-2.27763 40.66571,-18.01938 46.37874,-39.67176 4.29235,-16.26799 0.25215,-34.402569 -10.5455,-47.333819 -15.22364,-18.23181 -40.38729,-24.28513 -62.208447,-14.96475 -16.026683,6.84541 -27.76629,21.26027 -31.204209,38.315119 -3.07233,15.24123 0.475192,30.55378 9.998341,43.15691 3.94704,5.22359 10.328183,10.70348 16.322123,14.01682 9.580443,5.29589 20.57156,7.57487 31.258952,6.48148 z m -9.695412,-0.50845 C 91.76384,163.92621 86.139221,162.62055 81.934193,160.95013 63.553778,153.64865 51.117422,137.48364 48.684132,117.73107 48.28065,114.45575 48.496124,106.06462 49.061276,103.04406 52.291208,85.781121 62.692215,71.967471 78.066755,64.521671 c 14.959023,-7.24456 32.401835,-7.09567 46.993455,0.40112 18.94498,9.73344 30.16293,29.49104 28.67666,50.506699 -1.7526,24.7813 -20.338,44.88482 -44.86511,48.52986 -3.38368,0.50286 -9.116462,0.70243 -12.151882,0.42304 z m 10.715632,-0.82409 c 3.13012,-0.3382 7.54363,-1.35905 10.88754,-2.5183 18.41483,-6.38394 31.73409,-22.58143 34.48521,-41.93729 0.52011,-3.65927 0.5135,-10.90411 -0.0132,-14.48718 -2.22606,-15.143119 -10.45095,-28.064479 -23.13455,-36.344549 -5.98351,-3.90613 -12.24304,-6.38063 -19.71146,-7.79228 -3.35991,-0.63508 -12.037182,-0.76012 -15.846932,-0.22835 -15.069645,2.10341 -28.145779,10.30726 -36.489616,22.89324 -17.219387,25.974019 -7.780924,61.326499 20.088715,75.243819 9.409512,4.69885 18.872421,6.34448 29.734293,5.17089 z m -39.879349,-6.67976 c -0.139227,-0.72831 0.521308,-1.49696 1.286409,-1.49696 0.359915,0 -0.129619,-0.51655 -1.540253,-1.62525 -6.717996,-5.28006 -12.779264,-13.42652 -16.086604,-21.6207 -1.015985,-2.51718 -1.350269,-3.11813 -1.503727,-2.7033 -0.255301,0.69015 -1.410305,0.98817 -1.986776,0.51265 -0.393952,-0.32497 -0.406372,-0.30325 -0.126728,0.22162 0.170516,0.32004 0.625511,0.73676 1.0111,0.92604 0.385589,0.18928 0.789396,0.52274 0.897349,0.74102 0.107954,0.21828 1.033248,2.12328 2.05621,4.23333 3.452654,7.12176 7.26159,12.0335 14.027876,18.08939 0.792968,0.70971 1.104192,1.17544 1.014557,1.51821 -0.07112,0.27195 0.105949,0.79352 0.393477,1.15905 0.645062,0.82007 0.706234,0.825 0.55711,0.0449 z m 1.51476,-0.17405 c 0,-0.14552 -0.119062,-0.26458 -0.264583,-0.26458 -0.145521,0 -0.264583,0.11906 -0.264583,0.26458 0,0.14552 0.119062,0.26459 0.264583,0.26459 0.145521,0 0.264583,-0.11907 0.264583,-0.26459 z m 66.674999,-0.95889 c 0,-0.45929 1.06123,-1.68468 3.92458,-4.53167 2.15852,-2.14618 4.71035,-4.96298 5.67072,-6.25955 2.36863,-3.19783 4.9804,-7.6661 6.33431,-10.83686 0.96842,-2.26797 1.23834,-2.67347 1.98818,-2.98678 0.47719,-0.19938 0.86763,-0.41071 0.86763,-0.46962 0,-0.0589 0.0818,-0.32519 0.18183,-0.59176 0.15955,-0.42529 0.12756,-0.44052 -0.26115,-0.12438 -0.59612,0.48483 -1.69132,0.18086 -1.91765,-0.53225 -0.14224,-0.44816 -0.41469,0.0113 -1.29461,2.18343 -2.21132,5.45869 -4.62149,9.5898 -8.17772,14.01695 -2.29924,2.86232 -6.49572,7.03071 -8.59014,8.53265 -0.9279,0.6654 -1.06763,0.85851 -0.67554,0.93356 0.7747,0.14827 1.15581,0.57466 1.15581,1.29309 0,0.55797 0.0621,0.60993 0.39688,0.33208 0.21828,-0.18115 0.39687,-0.61265 0.39687,-0.95889 z m -1.5875,0.69431 c 0,-0.14552 -0.17859,-0.26458 -0.39687,-0.26458 -0.21828,0 -0.39688,0.11906 -0.39688,0.26458 0,0.14552 0.1786,0.26458 0.39688,0.26458 0.21828,0 0.39687,-0.11906 0.39687,-0.26458 z M 48.962588,128.92324 c 0,-0.14552 -0.178594,-0.26458 -0.396875,-0.26458 -0.218281,0 -0.396875,0.11906 -0.396875,0.26458 0,0.14552 0.178594,0.26459 0.396875,0.26459 0.218281,0 0.396875,-0.11907 0.396875,-0.26459 z m 105.039582,0 c 0,-0.14552 -0.11906,-0.26458 -0.26458,-0.26458 -0.14552,0 -0.26458,0.11906 -0.26458,0.26458 0,0.14552 0.11906,0.26459 0.26458,0.26459 0.14552,0 0.26458,-0.11907 0.26458,-0.26459 z m -105.090951,-1.15814 0.788514,0.29706 -0.502624,-1.75227 c -2.556938,-8.91412 -2.554076,-20.00009 0.0075,-28.930659 l 0.510092,-1.77838 -0.622881,0.40812 c -0.482301,0.31602 -0.746315,0.34207 -1.16979,0.11543 -0.300799,-0.16098 -0.546908,-0.40757 -0.546908,-0.54797 0,-0.1404 -0.119062,-0.25527 -0.264583,-0.25527 -0.403073,0 -0.316137,0.73368 0.17592,1.48466 0.411009,0.62728 0.410897,0.79938 -0.0017,2.57038 -1.7815,7.647269 -1.868329,15.509959 -0.260269,23.568399 0.652264,3.26869 0.661986,3.44673 0.228306,4.18089 -0.249133,0.42175 -0.382167,0.95133 -0.29563,1.17684 0.130188,0.33926 0.244333,0.30265 0.661443,-0.21214 0.447497,-0.55229 0.592645,-0.5888 1.292616,-0.32509 z m 105.996571,-0.71651 c -0.43734,-0.48326 -0.43198,-0.63419 0.10957,-3.08703 1.75261,-7.93812 1.79558,-15.53265 0.1328,-23.47381 -0.61624,-2.943069 -0.63356,-3.218119 -0.24418,-3.877279 0.23051,-0.39023 0.41646,-0.92925 0.41323,-1.19784 -0.005,-0.42431 -0.0695,-0.40561 -0.49104,0.14259 -0.37936,0.49336 -0.66654,0.60432 -1.31703,0.50885 -0.45753,-0.0671 -0.83188,-0.0817 -0.83188,-0.0323 0,0.0494 0.23305,0.93082 0.51789,1.95871 1.19045,4.295879 1.69826,8.340539 1.70781,13.602529 0.005,2.7649 -0.13785,6.03912 -0.31749,7.27605 -0.28611,1.97001 -1.29274,6.67855 -1.79584,8.40005 -0.15784,0.54008 -0.10347,0.58077 0.59057,0.44196 0.57793,-0.11558 0.89204,-0.0111 1.28751,0.42831 l 0.52309,0.58119 0.0874,-0.58195 c 0.0481,-0.32007 -0.11952,-0.8106 -0.37242,-1.09005 z M 44.612581,117.71042 c 0.0869,-0.34622 0.11893,-0.9713 0.07119,-1.38906 -0.08386,-0.73379 -0.136212,-0.75958 -1.542013,-0.75958 h -1.455209 l -0.08378,1.02002 c -0.129061,1.57137 0.03298,1.75811 1.52564,1.75811 1.175971,0 1.344074,-0.0713 1.484172,-0.62949 z m 0.749754,-3.02876 c 0.07433,-0.12027 0.06977,-0.46866 -0.01013,-0.7742 -0.144753,-0.55354 -0.148282,-0.55371 -0.979425,-0.0469 -0.922149,0.56229 -2.051445,0.65655 -2.835918,0.23672 -0.390091,-0.20877 -0.511771,-0.18781 -0.511771,0.0882 0,0.19915 0.07937,0.44146 0.176389,0.53848 0.255316,0.25531 4.000454,0.21726 4.160858,-0.0423 z m 112.344005,-2.82404 c 0,-2.29306 -0.0693,-2.77813 -0.39688,-2.77813 -0.32758,0 -0.39687,0.48507 -0.39687,2.77813 0,2.29305 0.0693,2.77812 0.39687,2.77812 0.32759,0 0.39688,-0.48507 0.39688,-2.77812 z m -113.221316,1.21097 c 2.008954,-2.00895 -0.255876,-5.12257 -2.832408,-3.89391 -1.574712,0.75093 -1.890843,2.65095 -0.647881,3.89391 0.572586,0.57259 1.024413,0.7734 1.740145,0.7734 0.715731,0 1.167559,-0.20081 1.740144,-0.7734 z m 1.037981,-4.38597 v -0.92604 h -1.830444 c -2.050632,0 -2.667473,0.15632 -2.667473,0.676 0,0.2817 0.168618,0.29602 0.818429,0.0695 0.937361,-0.32677 2.601742,0.0487 3.151331,0.71092 0.469499,0.56571 0.528157,0.50681 0.528157,-0.53038 z m 3.175,-13.773949 c 0,-0.22687 -0.119063,-0.33891 -0.264584,-0.24897 -0.145521,0.0899 -0.264583,0.27556 -0.264583,0.41249 0,0.13693 0.119062,0.24897 0.264583,0.24897 0.145521,0 0.264584,-0.18562 0.264584,-0.41249 z m 5.540807,-9.57271 c 3.080103,-5.42718 7.432781,-10.68175 11.96655,-14.44607 2.055781,-1.70688 2.494555,-2.18705 2.123826,-2.32419 -0.738311,-0.27312 -1.186082,-0.9722 -1.022752,-1.59678 0.133446,-0.5103 0.106085,-0.52984 -0.247197,-0.17656 -0.218491,0.21849 -0.445315,0.777 -0.504055,1.24114 -0.06994,0.55266 -0.40757,1.09012 -0.978343,1.5574 -3.523615,2.8847 -7.758667,7.65519 -10.53342,11.86515 -1.810253,2.74658 -4.330786,7.48616 -5.14922,9.68252 -0.341693,0.91697 -0.656783,1.30907 -1.20576,1.50044 -0.408753,0.14249 -0.866779,0.49001 -1.017835,0.77226 -0.249791,0.46674 -0.185899,0.51054 0.705936,0.48393 0.758487,-0.0226 1.036146,0.0966 1.225897,0.5265 0.20643,0.46767 0.460305,0.026 1.60163,-2.78628 0.745973,-1.83813 2.111608,-4.67288 3.034743,-6.29946 z m 99.763358,9.45603 c 0,-0.14552 -0.11906,-0.26458 -0.26458,-0.26458 -0.14552,0 -0.26458,0.11906 -0.26458,0.26458 0,0.14552 0.11906,0.26458 0.26458,0.26458 0.14552,0 0.26458,-0.11906 0.26458,-0.26458 z m -0.78241,-1.0644 c 0.3625,-0.194 0.67656,-0.19218 1.047,0.006 0.29104,0.15576 0.52916,0.22922 0.52916,0.16324 0,-0.50843 -0.45901,-1.03113 -1.1643,-1.32581 -0.71077,-0.29698 -1.00287,-0.74099 -1.95609,-2.97337 -1.35391,-3.17076 -3.96568,-7.63903 -6.33431,-10.83685 -0.96037,-1.29658 -3.5122,-4.11338 -5.67072,-6.25956 -2.86335,-2.84699 -3.92458,-4.07237 -3.92458,-4.53167 0,-0.34623 -0.16333,-0.76506 -0.36295,-0.93074 -0.29031,-0.24093 -0.39386,-0.1467 -0.51736,0.47079 -0.1027,0.51354 -0.37747,0.84714 -0.82067,0.99643 -0.64129,0.21601 -0.58599,0.28889 1.4746,1.94343 4.05044,3.25229 8.43916,8.27046 11.40378,13.03937 1.46569,2.35771 4.06834,7.68184 4.84817,9.91768 0.35729,1.02436 0.54457,1.28764 0.7081,0.99543 0.12228,-0.21851 0.45535,-0.522 0.74017,-0.67443 z M 72.245921,66.401951 c 4.769567,-3.11836 12.420219,-6.16315 18.388542,-7.31824 1.600729,-0.3098 4.486335,-0.69925 6.412445,-0.86544 3.221182,-0.27793 3.470502,-0.33701 3.108862,-0.73662 -0.507612,-0.5609 -0.499442,-1.17477 0.0226,-1.6968 0.37798,-0.37798 0.36732,-0.41578 -0.11729,-0.41578 -0.293182,0 -0.688642,0.21565 -0.878792,0.47922 -0.5356,0.74239 -0.76384,0.81446 -3.55375,1.1221 -8.173552,0.90128 -15.864694,3.4334 -22.848175,7.5222 -1.732962,1.01464 -2.130282,1.14591 -3.079816,1.01755 -0.669594,-0.0905 -1.160473,-0.0336 -1.272386,0.14745 -0.109972,0.17793 0.02093,0.29482 0.330176,0.29482 0.711848,0 1.192469,0.66591 1.043408,1.44568 -0.08282,0.43323 -0.02617,0.59509 0.167304,0.47811 0.16088,-0.0973 1.185476,-0.76068 2.276882,-1.47425 z m 60.183419,1.3875 c -0.33551,-0.54287 0.13902,-1.56173 0.80524,-1.72895 1.03921,-0.26082 0.44165,-0.71323 -0.73382,-0.55557 -0.93896,0.12594 -1.37406,-0.0388 -3.81354,-1.44408 -6.71603,-3.86879 -14.31709,-6.30588 -22.16724,-7.10739 -2.23837,-0.22854 -2.73872,-0.36813 -3.32177,-0.92673 -0.78478,-0.75186 -1.94916,-0.98549 -1.20556,-0.24188 0.51453,0.51453 0.53491,1.27937 0.0471,1.7672 -0.31519,0.3152 0.16729,0.41459 3.32545,0.68508 4.35388,0.37289 9.05646,1.31826 12.91824,2.59697 3.35306,1.11026 9.44743,4.058 12.17084,5.88681 2.14398,1.43971 2.23486,1.48888 1.97508,1.06854 z m -63.623002,-0.51413 c 0,-0.14552 -0.119063,-0.26458 -0.264583,-0.26458 -0.145521,0 -0.264584,0.11906 -0.264584,0.26458 0,0.14552 0.119063,0.26459 0.264584,0.26459 0.14552,0 0.264583,-0.11907 0.264583,-0.26459 z m 65.087502,0 c 0,-0.14552 -0.11906,-0.26458 -0.26458,-0.26458 -0.14552,0 -0.26459,0.11906 -0.26459,0.26458 0,0.14552 0.11907,0.26459 0.26459,0.26459 0.14552,0 0.26458,-0.11907 0.26458,-0.26459 z m -32.54375,-10.58333 c 0,-0.14552 -0.11906,-0.26458 -0.26458,-0.26458 -0.14552,0 -0.26459,0.11906 -0.26459,0.26458 0,0.14552 0.11907,0.26458 0.26459,0.26458 0.14552,0 0.26458,-0.11906 0.26458,-0.26458 z"
       id="path881"
       inkscape:export-filename="../image/snare.png"
       inkscape:export-xdpi="96"
       inkscape:export-ydpi="96" /></g></svg>
